<?xml version="1.0" encoding="UTF-8" standalone="no"?>
<svg width="33px" height="37px" viewBox="0 0 33 37" version="1.1" xmlns="http://www.w3.org/2000/svg" xmlns:xlink="http://www.w3.org/1999/xlink">
    <!-- Generator: Sketch 3.8.3 (29802) - http://www.bohemiancoding.com/sketch -->
    <title>Group 3</title>
    <desc>Created with Sketch.</desc>
    <defs></defs>
    <g id="GS_mobile_facelift_Retina_final_02_aza" stroke="none" stroke-width="1" fill="none" fill-rule="evenodd">
        <g id="Group-3" fill="#3D9CF3">
            <g id="Page-1" transform="translate(0.000000, 2.055556)">
                <path d="M3.0399403,25.0238194 C1.48549254,25.0238194 0.221149254,23.7051806 0.221149254,22.0812917 C0.221149254,20.4589444 1.48549254,19.1403056 3.0399403,19.1403056 C4.59438806,19.1403056 5.85873134,20.4589444 5.85873134,22.0812917 C5.86020896,23.703125 4.59438806,25.0238194 3.0399403,25.0238194 L3.0399403,25.0238194 Z M3.0399403,19.9111389 C1.89331343,19.9111389 0.959955224,20.8849583 0.959955224,22.0812917 C0.959955224,23.277625 1.89331343,24.2529861 3.0399403,24.2529861 C4.18656716,24.2529861 5.11992537,23.2796806 5.11992537,22.0812917 C5.12140299,20.8849583 4.18853731,19.9111389 3.0399403,19.9111389 L3.0399403,19.9111389 Z" id="Fill-1"></path>
                <path d="M32.7537313,22.0812917 C32.7537313,22.5586944 32.2592239,22.9482222 31.6494627,22.9482222 L9.66210448,22.9482222 C9.05234328,22.9482222 8.55783582,22.5586944 8.55783582,22.0812917 C8.55783582,21.603375 9.05234328,21.2138472 9.66210448,21.2138472 L31.6494627,21.2138472 C32.2592239,21.2138472 32.7537313,21.603375 32.7537313,22.0812917 L32.7537313,22.0812917 Z" id="Fill-2"></path>
                <path d="M3.0399403,15.6515139 C1.48549254,15.6515139 0.221149254,14.332875 0.221149254,12.7105278 C0.221149254,11.0886944 1.48549254,9.77005556 3.0399403,9.77005556 C4.59438806,9.77005556 5.85873134,11.0886944 5.85873134,12.7105278 C5.86020896,14.332875 4.59438806,15.6515139 3.0399403,15.6515139 L3.0399403,15.6515139 Z M3.0399403,10.5408889 C1.89331343,10.5408889 0.959955224,11.5141944 0.959955224,12.7105278 C0.959955224,13.9068611 1.89331343,14.8806806 3.0399403,14.8806806 C4.18656716,14.8806806 5.11992537,13.9068611 5.11992537,12.7105278 C5.12140299,11.5141944 4.18853731,10.5408889 3.0399403,10.5408889 L3.0399403,10.5408889 Z" id="Fill-3"></path>
                <path d="M32.7537313,12.7105278 C32.7537313,13.1884444 32.2592239,13.5779722 31.6494627,13.5779722 L9.66210448,13.5779722 C9.05234328,13.5779722 8.55783582,13.1884444 8.55783582,12.7105278 C8.55783582,12.233125 9.05234328,11.8435972 9.66210448,11.8435972 L31.6494627,11.8435972 C32.2592239,11.8435972 32.7537313,12.2310694 32.7537313,12.7105278 L32.7537313,12.7105278 Z" id="Fill-4"></path>
                <path d="M3.26108955,6.28126389 C1.70664179,6.28126389 0.442298507,4.96211111 0.442298507,3.34027778 C0.442298507,1.71844444 1.70664179,0.399291667 3.26108955,0.399291667 C4.81553731,0.399291667 6.0798806,1.71844444 6.0798806,3.34027778 C6.08185075,4.96211111 4.81553731,6.28126389 3.26108955,6.28126389 L3.26108955,6.28126389 Z M3.26108955,1.170125 C2.11446269,1.170125 1.18110448,2.14394444 1.18110448,3.34027778 C1.18110448,4.53661111 2.11446269,5.51043056 3.26108955,5.51043056 C4.40771642,5.51043056 5.34107463,4.53661111 5.34107463,3.34027778 C5.34304478,2.14394444 4.40968657,1.170125 3.26108955,1.170125 L3.26108955,1.170125 Z" id="Fill-5"></path>
                <path d="M32.7537313,3.34027778 C32.7537313,3.81819444 32.2631642,4.20772222 31.6588209,4.20772222 L9.87389552,4.20772222 C9.26955224,4.20772222 8.77898507,3.81819444 8.77898507,3.34027778 C8.77898507,2.86236111 9.26758209,2.47283333 9.87389552,2.47283333 L31.6588209,2.47283333 C32.2631642,2.47283333 32.7537313,2.86236111 32.7537313,3.34027778 L32.7537313,3.34027778 Z" id="Fill-6"></path>
                <path d="M32.7537313,31.066125 C32.7537313,31.5440417 32.2592239,31.9335694 31.6494627,31.9335694 L9.66210448,31.9335694 C9.05234328,31.9335694 8.55783582,31.5440417 8.55783582,31.066125 C8.55783582,30.5882083 9.05234328,30.1991944 9.66210448,30.1991944 L31.6494627,30.1991944 C32.2592239,30.1991944 32.7537313,30.5866667 32.7537313,31.066125 L32.7537313,31.066125 Z" id="Fill-7"></path>
            </g>
            <path d="M0.492982609,2.92421695 C0.281308696,3.09081079 0.233434783,3.41194517 0.386552174,3.64224932 L2.11753043,6.24877568 C2.29201304,6.51265688 2.54562609,6.6624622 2.81427391,6.6624622 L2.84236522,6.6624622 C3.1220913,6.6521308 3.3753087,6.48080173 3.53752609,6.1932444 L6.57296957,0.845883454 C6.71065652,0.603526006 6.64102174,0.287557327 6.41866522,0.139473913 C6.19591304,-0.00990092593 5.90550435,0.0654322061 5.7694,0.306067754 L2.8035913,5.52902142 L1.15293043,3.04173663 C0.999813043,2.80971059 0.704656522,2.75934501 0.492982609,2.92421695 L0.492982609,2.92421695 Z" id="Fill-2"></path>
            <path d="M0.386552174,13.8389116 L2.11753043,16.445438 C2.29201304,16.7093192 2.54562609,16.8591245 2.81427391,16.8591245 L2.84236522,16.8591245 C3.1220913,16.8492236 3.3753087,16.677464 3.5391087,16.3899067 L6.57455217,11.0425457 C6.71223913,10.8023407 6.64260435,10.4842196 6.42024783,10.3365667 C6.19749565,10.1867614 5.90708696,10.262525 5.77098261,10.5044519 L2.80517391,15.7274056 L1.15451304,13.2405513 C1.00139565,13.0102471 0.70623913,12.9581597 0.494565217,13.124323 C0.281308696,13.289195 0.233434783,13.6103293 0.386552174,13.8389116 L0.386552174,13.8389116 Z" id="Fill-4"></path>
            <path d="M3.0399403,36.329375 C1.48549254,36.329375 0.221149254,35.0107361 0.221149254,33.3868472 C0.221149254,31.7645 1.48549254,30.4458611 3.0399403,30.4458611 C4.59438806,30.4458611 5.85873134,31.7645 5.85873134,33.3868472 C5.86020896,35.0086806 4.59438806,36.329375 3.0399403,36.329375 L3.0399403,36.329375 Z M3.0399403,31.2166944 C1.89331343,31.2166944 0.959955224,32.1905139 0.959955224,33.3868472 C0.959955224,34.5831806 1.89331343,35.5585417 3.0399403,35.5585417 C4.18656716,35.5585417 5.11992537,34.5852361 5.11992537,33.3868472 C5.12140299,32.1905139 4.18853731,31.2166944 3.0399403,31.2166944 L3.0399403,31.2166944 Z" id="Fill-1"></path>
        </g>
    </g>
</svg>