<?xml version="1.0" encoding="UTF-8" standalone="no"?>
<svg width="25px" height="17px" viewBox="0 0 25 17" version="1.1" xmlns="http://www.w3.org/2000/svg" xmlns:xlink="http://www.w3.org/1999/xlink">
    <!-- Generator: Sketch 3.8.3 (29802) - http://www.bohemiancoding.com/sketch -->
    <title>Page 1</title>
    <desc>Created with Sketch.</desc>
    <defs>
        <polygon id="path-1" points="0.000603448276 16.7251097 24.137931 16.7251097 24.137931 0.000956121212 0.000603448276 0.000956121212"></polygon>
    </defs>
    <g id="GS_mobile_facelift_Retina_final_02_aza" stroke="none" stroke-width="1" fill="none" fill-rule="evenodd">
        <g id="Unfallversicherung-Zum-Chat" transform="translate(-68.000000, -400.000000)">
            <g id="Page-1" transform="translate(68.000000, 400.000000)">
                <mask id="mask-2" fill="white">
                    <use xlink:href="#path-1"></use>
                </mask>
                <g id="Clip-2"></g>
                <path d="M13.8839368,13.1420454 C13.7109483,13.1420454 13.5661207,13.0842798 13.4474425,12.9667565 C13.3307759,12.8512252 13.270431,12.7097989 13.270431,12.5464616 C13.270431,12.3831242 13.3307759,12.2436899 13.4474425,12.1261666 C13.5661207,12.0106353 13.7109483,11.9508777 13.8839368,11.9508777 L19.9184195,11.9508777 C20.0833621,11.9508777 20.2241667,12.0106353 20.3428448,12.1261666 C20.461523,12.2436899 20.5198563,12.3831242 20.5198563,12.5464616 C20.5198563,12.7097989 20.461523,12.8512252 20.3428448,12.9667565 C20.2241667,13.0842798 20.0833621,13.1420454 19.9184195,13.1420454 L13.8839368,13.1420454 Z M13.8839368,10.7497505 C13.7109483,10.7497505 13.5661207,10.6919848 13.4474425,10.5744616 C13.3307759,10.4569383 13.270431,10.317504 13.270431,10.1541666 C13.270431,9.99082925 13.3307759,9.85139491 13.4474425,9.73387168 C13.5661207,9.61634844 13.7109483,9.55858279 13.8839368,9.55858279 L18.703477,9.55858279 C18.870431,9.55858279 19.0112356,9.61634844 19.1279023,9.73387168 C19.2465805,9.85139491 19.3049138,9.99082925 19.3049138,10.1541666 C19.3049138,10.317504 19.2465805,10.4569383 19.1279023,10.5744616 C19.0112356,10.6919848 18.870431,10.7497505 18.703477,10.7497505 L13.8839368,10.7497505 Z M13.8839368,8.35745552 C13.7109483,8.35745552 13.5661207,8.29769794 13.4474425,8.18216663 C13.3307759,8.06464339 13.270431,7.92520905 13.270431,7.76187168 C13.270431,7.5985343 13.3307759,7.45710804 13.4474425,7.34157673 C13.5661207,7.22405349 13.7109483,7.16628784 13.8839368,7.16628784 L18.703477,7.16628784 C18.870431,7.16628784 19.0112356,7.22405349 19.1279023,7.34157673 C19.2465805,7.45710804 19.3049138,7.5985343 19.3049138,7.76187168 C19.3049138,7.92520905 19.2465805,8.06464339 19.1279023,8.18216663 C19.0112356,8.29769794 18.870431,8.35745552 18.703477,8.35745552 L13.8839368,8.35745552 Z M13.8839368,5.97512016 C13.7109483,5.97512016 13.5661207,5.91735451 13.4474425,5.79983127 C13.3307759,5.68429996 13.270431,5.54088178 13.270431,5.36957673 C13.270431,5.20623935 13.3307759,5.06481309 13.4474425,4.94928178 C13.5661207,4.83175855 13.7109483,4.77399289 13.8839368,4.77399289 L19.9184195,4.77399289 C20.0833621,4.77399289 20.2241667,4.83175855 20.3428448,4.94928178 C20.461523,5.06481309 20.5198563,5.20623935 20.5198563,5.36957673 C20.5198563,5.54088178 20.461523,5.68429996 20.3428448,5.79983127 C20.2241667,5.91735451 20.0833621,5.97512016 19.9184195,5.97512016 L13.8839368,5.97512016 Z M6.3870977,5.12457067 C6.15175287,5.35762521 6.03508621,5.64047774 6.03508621,5.97512016 C6.03508621,6.30179491 6.15175287,6.58265552 6.3870977,6.81571006 C6.62445402,7.04876461 6.90606322,7.16628784 7.23594828,7.16628784 C7.57387931,7.16628784 7.86152299,7.04876461 8.09686782,6.81571006 C8.33221264,6.58265552 8.4508908,6.30179491 8.4508908,5.97512016 C8.4508908,5.64047774 8.33221264,5.35762521 8.09686782,5.12457067 C7.86152299,4.8895242 7.57387931,4.77399289 7.23594828,4.77399289 C6.90606322,4.77399289 6.62445402,4.8895242 6.3870977,5.12457067 L6.3870977,5.12457067 Z M9.51094828,11.9508777 C9.49485632,11.8970959 9.47272989,11.8433141 9.44054598,11.7875404 L9.34600575,11.624203 C9.14887931,11.3373666 8.87732759,11.1182555 8.52732759,10.9708535 C8.17732759,10.8234515 7.74686782,10.7497505 7.23594828,10.7497505 C6.73307471,10.7497505 6.30663793,10.8234515 5.95864943,10.9708535 C5.60864943,11.1182555 5.33508621,11.3373666 5.13795977,11.624203 C5.09974138,11.6799767 5.06554598,11.7337585 5.03939655,11.7875404 C5.01123563,11.8433141 4.9891092,11.8970959 4.97301724,11.9508777 L9.51094828,11.9508777 Z M6.29859195,8.17021511 C6.00491379,8.0447242 5.74945402,7.87541107 5.53422414,7.66227572 C5.31698276,7.44914036 5.14600575,7.19616663 5.0212931,6.90335451 C4.89456897,6.6125343 4.83221264,6.30179491 4.83221264,5.97512016 C4.83221264,5.64047774 4.89456897,5.32973834 5.0212931,5.04290198 C5.14600575,4.7540737 5.31698276,4.50109996 5.53422414,4.28398077 C5.74945402,4.06486966 6.00491379,3.89356461 6.29859195,3.77006562 C6.59428161,3.64457471 6.90606322,3.58282521 7.23594828,3.58282521 C7.57387931,3.58282521 7.88968391,3.64457471 8.17933908,3.77006562 C8.47100575,3.89356461 8.72646552,4.06486966 8.94571839,4.28398077 C9.16497126,4.50109996 9.33795977,4.7540737 9.46468391,5.04290198 C9.58939655,5.32973834 9.65175287,5.64047774 9.65175287,5.97512016 C9.65175287,6.30179491 9.58939655,6.6125343 9.46468391,6.90335451 C9.33795977,7.19616663 9.16497126,7.44914036 8.94571839,7.66227572 C8.72646552,7.87541107 8.47100575,8.0447242 8.17933908,8.17021511 C7.88968391,8.2937141 7.57387931,8.35745552 7.23594828,8.35745552 C6.90606322,8.35745552 6.59428161,8.2937141 6.29859195,8.17021511 L6.29859195,8.17021511 Z M4.2187069,13.1420454 C4.05376437,13.1420454 3.91295977,13.0842798 3.79428161,12.9667565 C3.67761494,12.8512252 3.61727011,12.7097989 3.61727011,12.5464616 C3.61727011,12.5086151 3.63939655,12.3373101 3.68364943,12.0325464 C3.7258908,11.7297747 3.86267241,11.3951323 4.08997126,11.0286192 C4.30117816,10.6939767 4.65117816,10.3653101 5.13795977,10.0426192 C5.62675287,9.71992824 6.32474138,9.55858279 7.23594828,9.55858279 C8.15520115,9.55858279 8.85922414,9.71992824 9.34600575,10.0426192 C9.83278736,10.3653101 10.1827874,10.6939767 10.3960057,11.0286192 C10.5991667,11.3572858 10.7279023,11.6600575 10.7781897,11.9389262 C10.828477,12.2197868 10.8586494,12.4070272 10.8666954,12.5006474 L10.8666954,12.5225585 L10.8666954,12.5464616 C10.8666954,12.7097989 10.8083621,12.8512252 10.6896839,12.9667565 C10.5730172,13.0842798 10.4261782,13.1420454 10.2531897,13.1420454 L4.2187069,13.1420454 Z M1.37847701,1.36581915 C1.26181034,1.48135046 1.20146552,1.62277673 1.20146552,1.7861141 L1.20146552,14.9387565 C1.20146552,15.1020939 1.26181034,15.2435202 1.37847701,15.3590515 C1.49715517,15.4765747 1.64198276,15.5343404 1.81497126,15.5343404 L22.3221552,15.5343404 C22.4951437,15.5343404 22.6419828,15.4765747 22.7586494,15.3590515 C22.8773276,15.2435202 22.9356609,15.1020939 22.9356609,14.9387565 L22.9356609,1.7861141 C22.9356609,1.62277673 22.8773276,1.48135046 22.7586494,1.36581915 C22.6419828,1.24829592 22.4951437,1.19053026 22.3221552,1.19053026 L1.81497126,1.19053026 C1.64198276,1.19053026 1.49715517,1.24829592 1.37847701,1.36581915 L1.37847701,1.36581915 Z M1.81497126,16.725508 C1.3120977,16.725508 0.883649425,16.5502192 0.529626437,16.1996414 C0.177614943,15.8490636 0.000603448276,15.4287686 0.000603448276,14.9387565 L0.000603448276,1.7861141 C0.000603448276,1.29610198 0.177614943,0.87580703 0.529626437,0.525229253 C0.883649425,0.174651475 1.3120977,-0.000637414141 1.81497126,-0.000637414141 L22.3221552,-0.000637414141 C22.8250287,-0.000637414141 23.253477,0.174651475 23.6075,0.525229253 C23.961523,0.87580703 24.1385345,1.29610198 24.1385345,1.7861141 L24.1385345,14.9387565 C24.1385345,15.4287686 23.961523,15.8490636 23.6075,16.1996414 C23.253477,16.5502192 22.8250287,16.725508 22.3221552,16.725508 L1.81497126,16.725508 Z" id="Fill-1" fill="#009BF2" mask="url(#mask-2)"></path>
            </g>
        </g>
    </g>
</svg>