<?xml version="1.0" encoding="UTF-8" standalone="no"?>
<svg width="137px" height="103px" viewBox="0 0 137 103" version="1.1" xmlns="http://www.w3.org/2000/svg" xmlns:xlink="http://www.w3.org/1999/xlink">
    <!-- Generator: Sketch 3.8.3 (29802) - http://www.bohemiancoding.com/sketch -->
    <title>Fill 1</title>
    <desc>Created with Sketch.</desc>
    <defs></defs>
    <g id="GS_mobile_facelift_Retina_final_02_aza" stroke="none" stroke-width="1" fill="none" fill-rule="evenodd">
        <g id="Page-1" fill="#6a6a6a">
            <path d="M109.573742,68.6666667 L109.573742,58.3437778 C109.573742,57.4053333 109.242658,56.5927778 108.569075,55.929 C107.906908,55.2537778 107.096325,54.9218889 106.160158,54.9218889 C105.223992,54.9218889 104.424825,55.2537778 103.751242,55.929 C103.089075,56.5927778 102.746575,57.4053333 102.746575,58.3437778 L102.746575,68.6666667 L92.4487417,68.6666667 C91.512575,68.6666667 90.7134083,68.9985556 90.039825,69.6737778 C89.3662417,70.3375556 89.0351583,71.1501111 89.0351583,72.0885556 C89.0351583,73.027 89.3662417,73.8281111 90.039825,74.5033333 C90.7134083,75.1671111 91.512575,75.5104444 92.4487417,75.5104444 L102.746575,75.5104444 L102.746575,85.8333333 C102.746575,86.7717778 103.089075,87.5728889 103.751242,88.2481111 C104.424825,88.9233333 105.223992,89.2552222 106.160158,89.2552222 C107.096325,89.2552222 107.906908,88.9233333 108.569075,88.2481111 C109.242658,87.5728889 109.573742,86.7717778 109.573742,85.8333333 L109.573742,75.5104444 L119.871575,75.5104444 C120.807742,75.5104444 121.618325,75.1671111 122.280492,74.5033333 C122.954075,73.8281111 123.285158,73.027 123.285158,72.0885556 C123.285158,71.1501111 122.954075,70.3375556 122.280492,69.6737778 C121.618325,68.9985556 120.807742,68.6666667 119.871575,68.6666667 L109.573742,68.6666667 Z M96.8669917,49.9206667 C93.9671583,51.2024444 91.4212417,52.9191111 89.2406583,55.0821111 C87.0486583,57.2565556 85.3361583,59.8086667 84.0917417,62.727 C82.8359083,65.6567778 82.2194083,68.7811111 82.2194083,72.0885556 C82.2194083,75.396 82.8359083,78.4974444 84.0917417,81.4043333 C85.3361583,84.3112222 87.0486583,86.8633333 89.2406583,89.0492222 C91.4212417,91.2465556 93.9671583,92.9632222 96.8669917,94.2106667 C99.766825,95.4695556 102.860742,96.0875556 106.160158,96.0875556 C109.459575,96.0875556 112.576325,95.4695556 115.498992,94.2106667 C118.410242,92.9632222 120.956158,91.2465556 123.125325,89.0492222 C125.283075,86.8633333 126.995575,84.3112222 128.274242,81.4043333 C129.541492,78.4974444 130.180825,75.396 130.180825,72.0885556 C130.180825,68.7811111 129.541492,65.6567778 128.274242,62.727 C126.995575,59.8086667 125.283075,57.2565556 123.125325,55.0821111 C120.956158,52.9191111 118.410242,51.2024444 115.498992,49.9206667 C112.576325,48.6503333 109.459575,48.0094444 106.160158,48.0094444 C102.860742,48.0094444 99.766825,48.6503333 96.8669917,49.9206667 L96.8669917,49.9206667 Z M94.184075,100.550889 C90.4394083,98.9257778 87.1742417,96.7055556 84.388575,93.9131111 C81.6029083,91.1206667 79.388075,87.8475556 77.7669083,84.0937778 C76.134325,80.34 75.3237417,76.3344444 75.3237417,72.0885556 C75.3237417,67.8426667 76.134325,63.8371111 77.7669083,60.0833333 C79.388075,56.3295556 81.6029083,53.0564444 84.388575,50.264 C87.1742417,47.4601111 90.4394083,45.2513333 94.184075,43.6262222 C97.9287417,41.9896667 101.924575,41.1771111 106.160158,41.1771111 C110.395742,41.1771111 114.391575,41.9896667 118.136242,43.6262222 C121.880908,45.2513333 125.146075,47.4601111 127.931742,50.264 C130.728825,53.0564444 132.932242,56.3295556 134.553408,60.0833333 C136.185992,63.8371111 136.996575,67.8426667 136.996575,72.0885556 C136.996575,76.3344444 136.185992,80.34 134.553408,84.0937778 C132.932242,87.8475556 130.728825,91.1206667 127.931742,93.9131111 C125.146075,96.7055556 121.880908,98.9257778 118.136242,100.550889 C114.391575,102.187444 110.395742,103 106.160158,103 C101.924575,103 97.9287417,102.187444 94.184075,100.550889 L94.184075,100.550889 Z M70.8027417,47.6088889 C70.380325,47.4372222 70.0149917,47.1854444 69.7067417,46.8764444 C68.4166583,45.5717778 67.263575,44.1755556 66.2589083,42.6763333 C65.2542417,41.1885556 64.4094083,39.6092222 63.7129917,37.9497778 C63.0279917,36.3017778 62.5142417,34.5851111 62.1831583,32.8226667 C61.8406583,31.0602222 61.680825,29.2634444 61.680825,27.4208889 C61.680825,23.6671111 62.3886583,20.1193333 63.8157417,16.7661111 C65.242825,13.4128889 67.195075,10.4945556 69.6724917,8.01111111 C72.1499083,5.52766667 75.0611583,3.58211111 78.4062417,2.15155556 C81.7399083,0.721 85.2904917,0 89.0351583,0 C92.8254917,0 96.3874917,0.721 99.7097417,2.15155556 C103.031992,3.58211111 105.931825,5.52766667 108.397825,8.01111111 C110.875242,10.4945556 112.838908,13.4128889 114.288825,16.7661111 C115.738742,20.1193333 116.469408,23.6671111 116.469408,27.4208889 C116.469408,28.0961111 116.446575,28.7598889 116.400908,29.4007778 C116.355242,30.0531111 116.286742,30.7168889 116.195408,31.3806667 C116.058408,32.3191111 115.613158,33.0744444 114.859658,33.6237778 C114.094742,34.1845556 113.249908,34.402 112.313742,34.2646667 C111.377575,34.1273333 110.624075,33.681 110.041825,32.9256667 C109.459575,32.1703333 109.242658,31.312 109.368242,30.3735556 C109.459575,29.8814444 109.516658,29.3893333 109.539492,28.8972222 C109.562325,28.4051111 109.573742,27.913 109.573742,27.4208889 C109.573742,24.6055556 109.037158,21.9504444 107.963992,19.4441111 C106.902242,16.9377778 105.440908,14.7518889 103.591408,12.875 C101.730492,10.9981111 99.561325,9.52177778 97.061075,8.446 C94.5722417,7.38166667 91.889325,6.84377778 89.0351583,6.84377778 C86.2266583,6.84377778 83.5779917,7.38166667 81.0777417,8.446 C78.5774917,9.52177778 76.3969083,10.9981111 74.524575,12.875 C72.6522417,14.7518889 71.1794917,16.9377778 70.106325,19.4441111 C69.0331583,21.9504444 68.496575,24.6055556 68.496575,27.4208889 C68.496575,30.2018889 69.010325,32.8341111 70.037825,35.3404444 C71.065325,37.8467778 72.5609083,40.0555556 74.524575,41.9782222 C75.1867417,42.6534444 75.5292417,43.466 75.5292417,44.4273333 C75.5292417,45.3886667 75.1867417,46.2012222 74.524575,46.8764444 C74.1592417,47.1854444 73.7824917,47.4372222 73.3829083,47.6088889 C72.983325,47.792 72.5609083,47.8835556 72.1156583,47.8835556 C71.6704083,47.8835556 71.236575,47.792 70.8027417,47.6088889 L70.8027417,47.6088889 Z M51.371575,103 C48.5174083,103 46.0856583,101.992889 44.0877417,99.9786667 C42.0784083,97.9758889 41.0737417,95.5382222 41.0737417,92.6771111 C41.0737417,92.4024444 41.2107417,91.258 41.473325,89.2208889 C41.747325,87.1837778 42.5921583,84.7575556 44.0192417,81.9422222 C44.6814083,80.6947778 45.5604917,79.3328889 46.6222417,77.8565556 C47.6954083,76.3802222 49.0197417,74.9038889 50.6066583,73.4275556 C52.193575,71.9512222 54.077325,70.5435556 56.2579083,69.2045556 C58.4384917,67.8655556 60.9844083,66.6524444 63.8842417,65.5766667 C64.7747417,65.2676667 65.653825,65.3134444 66.5214917,65.714 C67.400575,66.1145556 67.982825,66.7668889 68.3024917,67.6595556 C68.6107417,68.5522222 68.565075,69.422 68.1654917,70.2803333 C67.7659083,71.1272222 67.1151583,71.7108889 66.2246583,72.0198889 C61.8064083,73.6335556 58.3699917,75.5791111 55.892575,77.8908889 C53.4151583,80.1912222 51.5999083,82.4 50.4354083,84.5286667 C49.282325,86.6458889 48.5744917,88.4884444 48.3347417,90.0563333 C48.083575,91.6242222 47.9694083,92.494 47.9694083,92.6771111 C47.9694083,93.6155556 48.3004917,94.4166667 48.9626583,95.0918889 C49.6362417,95.7556667 50.4354083,96.0875556 51.371575,96.0875556 L78.805825,96.0875556 C79.7419917,96.0875556 80.5411583,96.4308889 81.2147417,97.0946667 C81.8769083,97.7698889 82.2194083,98.571 82.2194083,99.5094444 C82.2194083,100.493667 81.8769083,101.329111 81.2147417,101.992889 C80.5411583,102.668111 79.7419917,103 78.805825,103 L51.371575,103 Z M28.937825,28.4966667 C27.259575,29.2176667 25.7982417,30.2018889 24.553825,31.4493333 C23.2979917,32.6967778 22.3161583,34.1616667 21.608325,35.844 C20.889075,37.5148889 20.5351583,39.3002222 20.5351583,41.1771111 C20.5351583,43.054 20.889075,44.8278889 21.608325,46.4987778 C22.3161583,48.1811111 23.2979917,49.646 24.553825,50.8934444 C25.7982417,52.1523333 27.259575,53.1365556 28.937825,53.8461111 C30.6046583,54.5671111 32.3742417,54.9218889 34.246575,54.9218889 C36.1189083,54.9218889 37.8999083,54.5671111 39.5667417,53.8461111 C41.2449917,53.1365556 42.706325,52.1523333 43.9507417,50.8934444 C45.1951583,49.646 46.1769917,48.1811111 46.8962417,46.4987778 C47.604075,44.8278889 47.9694083,43.054 47.9694083,41.1771111 C47.9694083,39.3002222 47.604075,37.5148889 46.8962417,35.844 C46.1769917,34.1616667 45.1951583,32.6967778 43.9507417,31.4493333 C42.706325,30.2018889 41.2449917,29.2176667 39.5667417,28.4966667 C37.8999083,27.7871111 36.1189083,27.4208889 34.246575,27.4208889 C32.3742417,27.4208889 30.6046583,27.7871111 28.937825,28.4966667 L28.937825,28.4966667 Z M26.2549083,60.152 C23.7774917,59.0762222 21.608325,57.5998889 19.7359917,55.723 C17.8636583,53.8461111 16.3909083,51.6716667 15.3177417,49.1882222 C14.244575,46.7047778 13.7194083,44.0382222 13.7194083,41.1771111 C13.7194083,38.316 14.244575,35.638 15.3177417,33.1545556 C16.3909083,30.6825556 17.8636583,28.4966667 19.7359917,26.6197778 C21.608325,24.7428889 23.7774917,23.2665556 26.2549083,22.1907778 C28.732325,21.1264444 31.3924083,20.5885556 34.246575,20.5885556 C37.1007417,20.5885556 39.7722417,21.1264444 42.2496583,22.1907778 C44.7156583,23.2665556 46.8962417,24.7428889 48.768575,26.6197778 C50.6409083,28.4966667 52.1136583,30.6825556 53.186825,33.1545556 C54.248575,35.638 54.7851583,38.316 54.7851583,41.1771111 C54.7851583,44.0382222 54.248575,46.7047778 53.186825,49.1882222 C52.1136583,51.6716667 50.6409083,53.8461111 48.768575,55.723 C46.8962417,57.5998889 44.7156583,59.0762222 42.2496583,60.152 C39.7722417,61.2277778 37.1007417,61.7542222 34.246575,61.7542222 C31.3924083,61.7542222 28.732325,61.2277778 26.2549083,60.152 L26.2549083,60.152 Z M10.305825,103 C7.45165833,103 5.01990833,101.992889 3.010575,99.9786667 C1.00124167,97.9758889 -0.003425,95.5382222 -0.003425,92.6771111 C-0.003425,92.5397778 0.202075,91.2007778 0.601658333,88.6486667 C1.00124167,86.0965556 2.31415833,83.327 4.551825,80.34 C5.84190833,78.589 7.37174167,77.0325556 9.12990833,75.6706667 C10.888075,74.3087778 12.8631583,73.1414444 15.0551583,72.1572222 C17.635325,70.9898889 20.546575,70.1201111 23.7774917,69.5364444 C27.019825,68.9527778 30.5019083,68.6666667 34.246575,68.6666667 L36.0846583,68.6666667 C36.6897417,68.6666667 37.2834083,68.6895556 37.8656583,68.7353333 C38.801825,68.7811111 39.5781583,69.1587778 40.206075,69.8683333 C40.8339917,70.5893333 41.1194083,71.4133333 41.0737417,72.3517778 C41.028075,73.2902222 40.6627417,74.0798889 39.966325,74.6978889 C39.281325,75.3273333 38.4479083,75.6134444 37.466075,75.5791111 C36.9751583,75.5791111 36.4499917,75.5676667 35.890575,75.5447778 C35.3311583,75.5218889 34.7831583,75.5104444 34.246575,75.5104444 C27.5564083,75.5104444 22.3732417,76.3687778 18.697075,78.0854444 C15.0209083,79.8135556 12.292325,81.7133333 10.5341583,83.7847778 C8.77599167,85.8676667 7.71424167,87.8246667 7.360325,89.6557778 C7.00640833,91.4868889 6.82374167,92.494 6.82374167,92.6771111 C6.86940833,93.6155556 7.21190833,94.4166667 7.86265833,95.0918889 C8.50199167,95.7556667 9.32399167,96.0875556 10.305825,96.0875556 L30.8444083,96.0875556 C31.780575,96.0875556 32.5797417,96.4308889 33.2419083,97.0946667 C33.9154917,97.7698889 34.246575,98.571 34.246575,99.5094444 C34.246575,100.493667 33.9154917,101.329111 33.2419083,101.992889 C32.5797417,102.668111 31.780575,103 30.8444083,103 L10.305825,103 Z" id="Fill-1"></path>
        </g>
    </g>
</svg>