<?xml version="1.0" encoding="UTF-8" standalone="no"?>
<svg width="93px" height="93px" viewBox="0 0 93 93" version="1.1" xmlns="http://www.w3.org/2000/svg" xmlns:xlink="http://www.w3.org/1999/xlink">
    <!-- Generator: Sketch 3.8.3 (29802) - http://www.bohemiancoding.com/sketch -->
    <title>Page 1</title>
    <desc>Created with Sketch.</desc>
    <defs>
        <polygon id="path-1" points="46.4988375 93 0 93 0 0 46.4988375 0 92.997675 0 92.997675 93 46.4988375 93"></polygon>
    </defs>
    <g id="Page-1" stroke="none" stroke-width="1" fill="none" fill-rule="evenodd">
        <g id="Formulare-1" transform="translate(-114.000000, -120.000000)">
            <g id="Page-1" transform="translate(114.000000, 120.000000)">
                <mask id="mask-2" fill="white">
                    <use xlink:href="#path-1"></use>
                </mask>
                <g id="Clip-2"></g>
                <path d="M74.382175,69.75 L74.382175,62.806 C74.382175,62.16275 74.157425,61.62025 73.700175,61.17075 C73.250675,60.7135 72.700425,60.48875 72.064925,60.48875 C71.429425,60.48875 70.886925,60.7135 70.429675,61.17075 C69.980175,61.62025 69.747675,62.16275 69.747675,62.806 L69.747675,69.75 L62.757175,69.75 C62.121675,69.75 61.579175,69.97475 61.121925,70.432 C60.664675,70.8815 60.439925,71.44725 60.439925,72.11375 C60.439925,72.74925 60.664675,73.29175 61.121925,73.749 C61.579175,74.1985 62.121675,74.431 62.757175,74.431 L69.747675,74.431 L69.747675,81.375 C69.747675,82.0415 69.980175,82.5995 70.429675,83.05675 C70.886925,83.50625 71.429425,83.73875 72.064925,83.73875 C72.700425,83.73875 73.250675,83.50625 73.700175,83.05675 C74.157425,82.5995 74.382175,82.0415 74.382175,81.375 L74.382175,74.431 L81.372675,74.431 C82.008175,74.431 82.558425,74.1985 83.007925,73.749 C83.465175,73.29175 83.689925,72.74925 83.689925,72.11375 C83.689925,71.44725 83.465175,70.8815 83.007925,70.432 C82.558425,69.97475 82.008175,69.75 81.372675,69.75 L74.382175,69.75 Z M65.756425,57.102 C63.787925,57.96225 62.059675,59.1325 60.579425,60.59725 C59.091425,62.06975 57.928925,63.7825 57.084175,65.751 C56.231675,67.7195 55.813175,69.843 55.813175,72.11375 C55.813175,74.3535 56.231675,76.45375 57.084175,78.42225 C57.928925,80.39075 59.091425,82.119 60.579425,83.59925 C62.059675,85.08725 63.787925,86.24975 65.756425,87.0945 C67.724925,87.947 69.825175,88.3655 72.064925,88.3655 C74.304675,88.3655 76.420425,87.947 78.404425,87.0945 C80.380675,86.24975 82.108925,85.08725 83.581425,83.59925 C85.046175,82.119 86.208675,80.39075 87.076675,78.42225 C87.936925,76.45375 88.370925,74.3535 88.370925,72.11375 C88.370925,69.843 87.936925,67.7195 87.076675,65.751 C86.208675,63.7825 85.046175,62.06975 83.581425,60.59725 C82.108925,59.1325 80.380675,57.96225 78.404425,57.102 C76.420425,56.24175 74.304675,55.80775 72.064925,55.80775 C69.825175,55.80775 67.724925,56.24175 65.756425,57.102 L65.756425,57.102 Z M63.935175,91.36475 C61.393175,90.272 59.176675,88.784 57.285675,86.893 C55.394675,85.002 53.891175,82.7855 52.790675,80.2435 C51.682425,77.69375 51.132175,74.989 51.132175,72.11375 C51.132175,69.2075 51.682425,66.4795 52.790675,63.9375 C53.891175,61.3955 55.394675,59.179 57.285675,57.288 C59.176675,55.38925 61.393175,53.90125 63.935175,52.8085 C66.477175,51.7235 69.189675,51.181 72.064925,51.181 C74.940175,51.181 77.652675,51.7235 80.194675,52.8085 C82.736675,53.90125 84.953175,55.38925 86.844175,57.288 C88.742925,59.179 90.238675,61.3955 91.339175,63.9375 C92.447425,66.4795 92.997675,69.2075 92.997675,72.11375 C92.997675,74.989 92.447425,77.69375 91.339175,80.2435 C90.238675,82.7855 88.742925,85.002 86.844175,86.893 C84.953175,88.784 82.736675,90.272 80.194675,91.36475 C77.652675,92.4575 74.940175,93 72.064925,93 C69.189675,93 66.477175,92.4575 63.935175,91.36475 L63.935175,91.36475 Z M36.058425,6.3085 C33.516425,7.40125 31.292175,8.88925 29.401175,10.788 C27.510175,12.679 26.014425,14.8955 24.906175,17.4375 C23.805675,19.9795 23.247675,22.7075 23.247675,25.61375 C23.247675,28.489 23.805675,31.19375 24.906175,33.7435 C26.014425,36.2855 27.510175,38.502 29.401175,40.393 C31.292175,42.284 33.516425,43.772 36.058425,44.86475 C38.600425,45.9575 41.305175,46.5 44.188175,46.5 C47.063425,46.5 49.768175,45.9575 52.310175,44.86475 C54.852175,43.772 57.076425,42.284 58.967425,40.393 C60.858425,38.502 62.354175,36.2855 63.462425,33.7435 C64.562925,31.19375 65.120925,28.489 65.120925,25.61375 C65.120925,22.7075 64.562925,19.9795 63.462425,17.4375 C62.354175,14.8955 60.858425,12.679 58.967425,10.788 C57.076425,8.88925 54.852175,7.40125 52.310175,6.3085 C49.768175,5.2235 47.063425,4.681 44.188175,4.681 C41.305175,4.681 38.600425,5.2235 36.058425,6.3085 L36.058425,6.3085 Z M34.213925,49.15825 C31.113925,47.80975 28.401425,45.98075 26.091925,43.6635 C23.774675,41.34625 21.945675,38.63375 20.620425,35.53375 C19.287425,32.43375 18.620925,29.1245 18.620925,25.61375 C18.620925,22.072 19.287425,18.74725 20.620425,15.64725 C21.945675,12.5395 23.774675,9.83475 26.091925,7.5175 C28.401425,5.20025 31.113925,3.37125 34.213925,2.02275 C37.321675,0.67425 40.638675,0 44.188175,0 C47.698925,0 51.000425,0.67425 54.108175,2.02275 C57.208175,3.37125 59.920675,5.20025 62.237925,7.5175 C64.547425,9.83475 66.384175,12.5395 67.732675,15.64725 C69.073425,18.74725 69.747675,22.072 69.747675,25.61375 C69.747675,29.1245 69.073425,32.43375 67.732675,35.53375 C66.384175,38.63375 64.547425,41.34625 62.237925,43.6635 C59.920675,45.98075 57.208175,47.80975 54.108175,49.15825 C51.000425,50.50675 47.698925,51.181 44.188175,51.181 C40.638675,51.181 37.321675,50.50675 34.213925,49.15825 L34.213925,49.15825 Z M6.995925,93 C5.058425,93 3.407675,92.318 2.043675,90.954 C0.679675,89.59775 -0.002325,87.9625 -0.002325,86.056 C-0.002325,85.963 0.028675,85.45925 0.090675,84.5525 C0.152675,83.64575 0.361925,82.48325 0.726175,81.05725 C1.090425,79.63125 1.656175,78.01925 2.431175,76.22125 C3.198425,74.42325 4.283425,72.57875 5.678425,70.70325 C6.523175,69.6105 7.429925,68.57975 8.398675,67.5955 C9.367425,66.61125 10.405925,65.689 11.514175,64.821 C12.614675,63.96075 13.800425,63.15475 15.055925,62.4185 C16.311425,61.6745 17.636675,61.00025 19.023925,60.39575 C20.721175,59.63625 22.526925,58.96975 24.433425,58.39625 C26.339925,57.82275 28.347175,57.34225 30.447425,56.97025 C32.555425,56.5905 34.748675,56.30375 37.034925,56.10225 C39.321175,55.9085 41.700425,55.80775 44.188175,55.80775 C45.001925,55.80775 45.807925,55.82325 46.613925,55.85425 C47.419925,55.88525 48.194925,55.91625 48.954425,55.94725 C49.620925,56.00925 50.163425,56.2805 50.589675,56.761 C51.008175,57.24925 51.194175,57.80725 51.132175,58.44275 C51.101175,59.07825 50.845425,59.60525 50.357175,60.0315 C49.876675,60.45775 49.318675,60.6515 48.683175,60.6205 C47.954675,60.5585 47.210675,60.5275 46.451175,60.512 C45.699425,60.4965 44.939925,60.48875 44.188175,60.48875 C40.127175,60.48875 36.345175,60.76 32.834425,61.3025 C29.323675,61.845 26.107425,62.65875 23.201175,63.736 C20.294925,64.8055 17.706425,66.14625 15.420175,67.7505 C13.133925,69.35475 11.188675,71.19925 9.584425,73.29175 C8.367675,74.865 7.429925,76.40725 6.763425,77.92625 C6.096925,79.4375 5.608675,80.79375 5.290925,81.98725 C4.973175,83.18075 4.787175,84.1495 4.725175,84.8935 C4.663175,85.6375 4.632175,86.025 4.632175,86.056 C4.632175,86.6915 4.856925,87.234 5.314175,87.6835 C5.763675,88.14075 6.329425,88.3655 6.995925,88.3655 L53.495925,88.3655 C54.131425,88.3655 54.673925,88.598 55.131175,89.0475 C55.580675,89.50475 55.813175,90.04725 55.813175,90.68275 C55.813175,91.31825 55.580675,91.8685 55.131175,92.318 C54.673925,92.77525 54.131425,93 53.495925,93 L6.995925,93 Z" id="Fill-1" fill="#3D9CF3" mask="url(#mask-2)"></path>
            </g>
        </g>
    </g>
</svg>