<?xml version="1.0" encoding="UTF-8" standalone="no"?>
<svg width="120px" height="107px" viewBox="0 0 120 107" version="1.1" xmlns="http://www.w3.org/2000/svg" xmlns:xlink="http://www.w3.org/1999/xlink">
    <!-- Generator: Sketch 3.8.3 (29802) - http://www.bohemiancoding.com/sketch -->
    <title>Page 1</title>
    <desc>Created with Sketch.</desc>
    <defs>
        <polygon id="path-1" points="119.778586 53.4568008 119.778586 106.90941 0 106.90941 0 53.4568008 0 0.00419203269 119.778586 0.00419203269 119.778586 53.4568008"></polygon>
    </defs>
    <g id="GS_mobile_facelift_Retina_final_02_aza" stroke="none" stroke-width="1" fill="none" fill-rule="evenodd">
        <g id="Page-1">
            <mask id="mask-2" fill="white">
                <use xlink:href="#path-1"></use>
            </mask>
            <g id="Clip-2"></g>
            <path d="M59.0909091,106.817185 C58.8492929,106.754304 58.5971717,106.659984 58.3555556,106.544703 C58.1454545,106.418942 57.0109091,105.737736 54.9309091,104.511567 C52.8614141,103.285397 50.2246465,101.566664 47.0311111,99.3553667 C43.8270707,97.1440695 40.2553535,94.4716486 36.3159596,91.3381042 C32.3765657,88.2150398 28.4371717,84.7251726 24.4977778,80.8685026 C23.8779798,80.2606578 23.5733333,79.516572 23.5733333,78.6362451 C23.5733333,77.7559183 23.8779798,77.0013524 24.4977778,76.3935077 C25.1175758,75.7751828 25.8529293,75.4712605 26.7143434,75.4712605 C27.5757576,75.4712605 28.3111111,75.7751828 28.9309091,76.3935077 C32.0509091,79.4641716 35.2024242,82.3042737 38.3749495,84.9242942 C41.5579798,87.5443146 44.5519192,89.8708927 47.3672727,91.8935485 C50.1721212,93.9266844 52.6828283,95.6349377 54.8783838,97.0183085 C57.0739394,98.4121593 58.7442424,99.4601675 59.8892929,100.151853 C61.0448485,99.4601675 62.7151515,98.4016793 64.9107071,96.9973483 C67.1062626,95.5825373 69.5959596,93.8638039 72.390303,91.830668 C75.1741414,89.8080123 78.1680808,87.4919142 81.3721212,84.8928539 C84.5761616,82.2937937 87.7171717,79.4641716 90.7951515,76.3935077 C91.4044444,75.7751828 92.150303,75.4712605 93.0327273,75.4712605 C93.9151515,75.4712605 94.6715152,75.7751828 95.2808081,76.3935077 C95.9006061,77.0013524 96.2052525,77.7559183 96.2052525,78.6362451 C96.2052525,79.516572 95.879596,80.2606578 95.2177778,80.8685026 C91.320404,84.7251726 87.3915152,88.2150398 83.4311111,91.3381042 C79.4707071,94.4716486 75.8989899,97.1440695 72.6949495,99.3553667 C69.4909091,101.566664 66.8541414,103.285397 64.7846465,104.511567 C62.7151515,105.737736 61.5911111,106.418942 61.4335354,106.544703 C61.1814141,106.659984 60.9292929,106.754304 60.6561616,106.817185 C60.3935354,106.880065 60.1414141,106.911506 59.8892929,106.911506 C59.6056566,106.911506 59.3325253,106.880065 59.0909091,106.817185 L59.0909091,106.817185 Z M66.2343434,81.7278693 L66.1713131,81.7278693 C65.5515152,81.7278693 64.7531313,81.444907 63.7656566,80.8685026 C62.7886869,80.3025781 62.0008081,78.9925679 61.4335354,76.9384719 L53.7963636,49.6797794 L48.6909091,70.3150603 C48.1971717,72.3167559 47.4723232,73.6372462 46.5058586,74.2765312 C45.5393939,74.9053361 44.7305051,75.2616588 44.0686869,75.3454995 C43.4173737,75.4293401 42.5559596,75.2616588 41.4844444,74.8529356 C40.4234343,74.4442125 39.4149495,73.3228437 38.4694949,71.4783493 L34.6561616,63.8069295 C34.5721212,63.6392482 34.4880808,63.4925271 34.4040404,63.3667661 C34.3305051,63.2514852 34.2464646,63.1466844 34.1624242,63.0628437 L34.1624242,63.1571645 C34.1624242,63.1781246 34.1414141,63.1886047 34.0993939,63.1886047 C32.9543434,64.9073381 31.2315152,66.3431093 28.9309091,67.4854382 C26.630303,68.6277671 24.329697,69.2041716 22.039596,69.2041716 L15.7575758,69.2041716 C14.8961616,69.2041716 14.1608081,68.9002492 13.5410101,68.2819244 C12.9212121,67.6740797 12.6165657,66.9090337 12.6165657,66.0077467 C12.6165657,65.14838 12.9212121,64.4147743 13.5410101,63.8069295 C14.1608081,63.1886047 14.8961616,62.8846823 15.7575758,62.8846823 L22.039596,62.8846823 C23.3947475,62.8846823 24.7393939,62.5283596 26.0945455,61.8366742 C27.449697,61.1449888 28.3951515,60.400903 28.9309091,59.6253769 C29.6242424,58.5983289 30.4646465,57.8332829 31.4521212,57.3197589 C32.439596,56.816715 33.4690909,56.5756731 34.530101,56.6175935 C35.7171717,56.7014341 36.820202,57.1311175 37.8286869,57.9066435 C38.8266667,58.6821696 39.6565657,59.7301777 40.3183838,61.0401879 L43.0917172,66.6260715 L48.9955556,42.6790848 C49.4892929,40.6669091 50.1826263,39.3568989 51.0860606,38.7176139 C51.9894949,38.0783289 52.829899,37.7639265 53.6177778,37.7639265 C54.3531313,37.7639265 55.1830303,38.0573687 56.1074747,38.6547334 C57.0319192,39.2520981 57.7567677,40.5516282 58.2925253,42.5533238 L66.4129293,71.3525884 L73.8610101,48.6317712 C74.4808081,46.6719959 75.289697,45.403906 76.2981818,44.8275015 C77.2961616,44.251097 78.1260606,43.9681348 78.7878788,43.9681348 C79.4391919,43.9262145 80.3006061,44.1462962 81.3406061,44.6074198 C82.3911111,45.0790235 83.3260606,46.2842329 84.1454545,48.2020878 L88.6941414,59.0070521 C89.1038384,60.0341001 89.9127273,60.9353871 91.099798,61.7109132 C92.2868687,62.4969193 93.4424242,62.8846823 94.5454545,62.8846823 L104.02101,62.8846823 C104.882424,62.8846823 105.628283,63.1886047 106.237576,63.8069295 C106.857374,64.4147743 107.16202,65.14838 107.16202,66.0077467 C107.16202,66.9090337 106.857374,67.6740797 106.237576,68.2819244 C105.628283,68.9002492 104.882424,69.2041716 104.02101,69.2041716 L94.5454545,69.2041716 C92.2028283,69.2041716 89.9127273,68.4600858 87.6541414,66.9614341 C85.3955556,65.4732625 83.819798,63.6392482 82.9163636,61.4698713 L79.1555556,52.6246823 L71.1507071,77.1271134 C70.4993939,79.128809 69.68,80.3968989 68.6925253,80.931383 C67.7050505,81.4658672 66.9066667,81.7278693 66.2973737,81.7278693 L66.2343434,81.7278693 Z M6.39757576,56.1250296 C5.87232323,55.8001471 5.47313131,55.3495036 5.23151515,54.7730991 C4.37010101,52.970525 3.61373737,51.1469908 2.95191919,49.3129765 C2.30060606,47.4684821 1.75434343,45.6344678 1.32363636,43.8109336 C0.892929293,41.9873994 0.567272727,40.1848253 0.336161616,38.3822513 C0.115555556,36.5796772 0,34.7980633 0,33.0374096 C0,28.4890541 0.871919192,24.2131808 2.61575758,20.1993095 C4.35959596,16.1959183 6.73373737,12.695571 9.72767677,9.69826762 C12.7216162,6.71144433 16.219798,4.35342594 20.2222222,2.61373238 C24.2246465,0.874038815 28.5212121,0.00419203269 33.1119192,0.00419203269 C34.6351515,0.00419203269 36.1793939,0.140433095 37.7656566,0.433875383 C39.3414141,0.716837589 40.9171717,1.13604086 42.4719192,1.69148519 C44.0266667,2.23644944 45.5814141,2.91765475 47.1151515,3.71414096 C48.6593939,4.51062717 50.1406061,5.44335444 51.579798,6.51232278 C53.2606061,7.73849234 54.8048485,9.0799428 56.2020202,10.5261941 C57.5886869,11.9829254 58.8282828,13.4920572 59.8892929,15.0431093 C60.9187879,13.4920572 62.1373737,11.9829254 63.5555556,10.5261941 C64.9737374,9.0799428 66.5179798,7.73849234 68.1987879,6.51232278 C69.6379798,5.44335444 71.1191919,4.51062717 72.6319192,3.71414096 C74.1551515,2.91765475 75.6888889,2.23644944 77.2541414,1.69148519 C78.8088889,1.13604086 80.3741414,0.716837589 81.960404,0.433875383 C83.5361616,0.140433095 85.1119192,0.00419203269 86.6666667,0.00419203269 C91.2258586,0.00419203269 95.5119192,0.874038815 99.5353535,2.61373238 C103.548283,4.35342594 107.05697,6.71144433 110.061414,9.69826762 C113.055354,12.695571 115.41899,16.1959183 117.162828,20.1993095 C118.906667,24.2131808 119.778586,28.4890541 119.778586,33.0374096 C119.778586,34.7980633 119.673535,36.5796772 119.442424,38.3822513 C119.221818,40.1848253 118.885657,41.9873994 118.454949,43.8109336 C118.024242,45.6344678 117.488485,47.4684821 116.826667,49.3129765 C116.175354,51.1469908 115.408485,52.970525 114.547071,54.7730991 C114.179394,55.5905455 113.580606,56.1459898 112.761212,56.428952 C111.941818,56.7223943 111.143434,56.680474 110.366061,56.3136711 C109.588687,55.9468682 109.042424,55.3495036 108.737778,54.5320572 C108.422626,53.7146108 108.454141,52.9076445 108.821818,52.1321185 C109.609697,50.4972257 110.28202,48.8728131 110.859798,47.2484004 C111.427071,45.6344678 111.910303,44.0414954 112.29899,42.4590031 C112.698182,40.8869908 112.981818,39.3149785 113.160404,37.7324862 C113.349495,36.160474 113.44404,34.5884617 113.44404,33.0374096 C113.44404,29.3484208 112.740202,25.8795138 111.353535,22.6306885 C109.956364,19.371383 108.033939,16.541761 105.596768,14.1208621 C103.149091,11.7104433 100.312727,9.80306844 97.0666667,8.40921757 C93.8311111,7.02584678 90.3644444,6.32368131 86.6666667,6.32368131 C83.9983838,6.32368131 81.3826263,6.81624515 78.8193939,7.80137283 C76.2561616,8.78650051 73.8925253,10.0755506 71.7389899,11.668523 C69.5854545,13.2614954 67.7260606,15.0640695 66.1713131,17.0762451 C64.6060606,19.0779408 63.5030303,21.0586762 62.8412121,23.0289316 C62.6416162,23.6367763 62.2634343,24.1503003 61.7066667,24.5590235 C61.149899,24.9677467 60.5511111,25.1773483 59.8892929,25.1773483 C59.1959596,25.1773483 58.5656566,24.9677467 58.0088889,24.5590235 C57.4626263,24.1503003 57.0844444,23.6367763 56.8743434,23.0289316 C56.2230303,21.0586762 55.1094949,19.0779408 53.5547475,17.0762451 C51.9894949,15.0640695 50.1406061,13.2614954 48.0080808,11.668523 C45.8755556,10.0755506 43.5329293,8.78650051 40.9591919,7.80137283 C38.3959596,6.81624515 35.780202,6.32368131 33.1119192,6.32368131 C29.4246465,6.32368131 25.9474747,7.02584678 22.680404,8.40921757 C19.4238384,9.80306844 16.5769697,11.7104433 14.1608081,14.1208621 C11.7341414,16.541761 9.82222222,19.371383 8.4040404,22.6306885 C6.98585859,25.8795138 6.2820202,29.3484208 6.2820202,33.0374096 C6.2820202,34.5884617 6.37656566,36.160474 6.58666667,37.7324862 C6.78626263,39.3149785 7.09090909,40.8869908 7.47959596,42.4590031 C7.86828283,44.0414954 8.35151515,45.6344678 8.92929293,47.2484004 C9.49656566,48.8728131 10.1583838,50.4972257 10.8937374,52.1321185 C11.2614141,52.9076445 11.3034343,53.7146108 11.019798,54.5320572 C10.7256566,55.3495036 10.200404,55.9468682 9.41252525,56.3136711 C9.17090909,56.3870317 8.93979798,56.4603922 8.70868687,56.5232727 C8.48808081,56.5861532 8.26747475,56.6175935 8.06787879,56.6175935 C7.49010101,56.6175935 6.93333333,56.4499122 6.39757576,56.1250296 L6.39757576,56.1250296 Z" id="Fill-1" fill="#009BF2" mask="url(#mask-2)"></path>
        </g>
    </g>
</svg>