<?xml version="1.0" encoding="UTF-8" standalone="no"?>
<svg width="25px" height="25px" viewBox="0 0 25 25" version="1.1" xmlns="http://www.w3.org/2000/svg" xmlns:xlink="http://www.w3.org/1999/xlink">
    <!-- Generator: Sketch 3.8.3 (29802) - http://www.bohemiancoding.com/sketch -->
    <title>Group</title>
    <desc>Created with Sketch.</desc>
    <defs>
        <polygon id="path-1" points="0 9.53096029 14.8006731 9.53096029 14.8006731 0.000225 0 0.000225"></polygon>
    </defs>
    <g id="GS_mobile_facelift_Retina_final_02_aza" stroke="none" stroke-width="1" fill="none" fill-rule="evenodd">
        <g id="Unfallversicherung" transform="translate(-282.000000, -13.000000)">
            <g id="Group" transform="translate(283.000000, 14.000000)">
                <circle id="Oval-5" stroke="#FFFFFF" cx="11.5" cy="11.5" r="11.5"></circle>
                <g id="Page-1" transform="translate(4.000000, 7.000000)">
                    <mask id="mask-2" fill="white">
                        <use xlink:href="#path-1"></use>
                    </mask>
                    <g id="Clip-2"></g>
                    <path d="M13.6298077,0.791033824 L1.17086538,0.791033824 C1.15658654,0.791033824 1.14360577,0.792357353 1.13322115,0.795004412 C1.12283654,0.797651471 1.11245192,0.798975 1.10336538,0.798975 L6.96677885,4.78544559 C7.07841346,4.86221029 7.22120192,4.90059265 7.39644231,4.90059265 C7.57168269,4.90059265 7.71706731,4.86221029 7.83389423,4.78544559 L13.6986058,0.798975 C13.6882212,0.798975 13.6765385,0.797651471 13.6635577,0.795004412 C13.651875,0.792357353 13.6401923,0.791033824 13.6298077,0.791033824 L13.6298077,0.791033824 Z M13.6298077,8.73221029 C13.73625,8.73221029 13.8271154,8.69382794 13.9037019,8.61573971 C13.9802885,8.538975 14.0179327,8.44500441 14.0179327,8.336475 L14.0179327,1.53485735 L8.25966346,5.44456324 C8.14283654,5.52662206 8.00913462,5.58882794 7.85725962,5.62985735 C7.70538462,5.67221029 7.55221154,5.69206324 7.40033654,5.69206324 C7.24326923,5.69206324 7.09009615,5.67221029 6.94081731,5.62985735 C6.79024038,5.58882794 6.65524038,5.52662206 6.53322115,5.44456324 L0.77625,1.53485735 L0.77625,8.336475 C0.77625,8.44500441 0.813894231,8.538975 0.890480769,8.61573971 C0.965769231,8.69382794 1.05923077,8.73221029 1.17086538,8.73221029 L13.6298077,8.73221029 Z M13.6298077,-0.000436764706 C13.9543269,-0.000436764706 14.2308173,0.116033824 14.4592788,0.348975 C14.6864423,0.581916176 14.8006731,0.861180882 14.8006731,1.18676912 L14.8006731,8.336475 C14.8006731,8.66735735 14.6864423,8.94926912 14.4592788,9.18221029 C14.2308173,9.41515147 13.9543269,9.53162206 13.6298077,9.53162206 L1.17086538,9.53162206 C0.846346154,9.53162206 0.569855769,9.41515147 0.342692308,9.18221029 C0.114230769,8.94926912 0,8.66735735 0,8.336475 L0,1.18676912 C0,0.861180882 0.114230769,0.581916176 0.342692308,0.348975 C0.569855769,0.116033824 0.846346154,-0.000436764706 1.17086538,-0.000436764706 L13.6298077,-0.000436764706 Z" id="Fill-1" fill="#FFFFFF" mask="url(#mask-2)"></path>
                </g>
            </g>
        </g>
    </g>
</svg>