<?xml version="1.0" encoding="UTF-8" standalone="no"?>
<svg width="21px" height="21px" viewBox="0 0 21 21" version="1.1" xmlns="http://www.w3.org/2000/svg" xmlns:xlink="http://www.w3.org/1999/xlink">
    <!-- Generator: Sketch 3.7 (28169) - http://www.bohemiancoding.com/sketch -->
    <title>callback_button</title>
    <desc>Created with Sketch.</desc>
    <defs></defs>
    <g id="Page-1" stroke="none" stroke-width="1" fill="none" fill-rule="evenodd">
        <g id="callback_button" transform="translate(-290.000000, -15.000000)" stroke="#FFFFFF">
            <g transform="translate(291.000000, 16.000000)">
                <circle id="Oval-1" cx="9.5" cy="9.5" r="9.5"></circle>
                <path d="M12.0513238,14.9490017 C11.8006727,14.9150391 11.546441,14.8639323 11.2886285,14.7958984 C11.030816,14.7278646 10.7712674,14.6427951 10.5097656,14.5407986 C10.2484809,14.4386936 9.98339844,14.3196615 9.71495226,14.1835938 C9.46777344,14.0582682 9.22254774,13.9194878 8.97905816,13.7673611 C8.73556858,13.6151259 8.49565972,13.4512804 8.2593316,13.2759332 C8.02300347,13.1003689 7.79025608,12.9142795 7.56108941,12.7173394 C7.33192274,12.5202908 7.10991753,12.3161892 6.89507378,12.1050347 C6.68381076,11.890191 6.4797092,11.6681858 6.2827691,11.4389106 C6.08582899,11.2098524 5.90049913,10.977105 5.72677951,10.7406684 C5.5531684,10.5043403 5.39029948,10.2635634 5.23806424,10.0183377 C5.0859375,9.77300347 4.94715712,9.52864583 4.8218316,9.28515625 C4.68576389,9.01660156 4.56662326,8.75065104 4.46462674,8.4875217 C4.36263021,8.22428385 4.27756076,7.96386719 4.20952691,7.70605469 C4.14149306,7.44824219 4.08962674,7.19401042 4.05371094,6.94335938 C4.01790365,6.69270833 4,6.44563802 4,6.20214844 C4,6.04459635 4.03222656,5.88964844 4.09667969,5.7375217 C4.16113281,5.58528646 4.23817274,5.44476997 4.32769097,5.31586372 C4.4172092,5.18695747 4.5094401,5.07150608 4.60427517,4.96940104 C4.69921875,4.86740451 4.77886285,4.78776042 4.84331597,4.73046875 C5.07996962,4.5031467 5.20214844,4.43305122 5.14941406,4.47254774 C5.03483073,4.55848524 5.3812934,4.30870226 5.50130208,4.23893229 C5.62120226,4.16916233 5.74121094,4.11187066 5.86111111,4.06705729 C5.98111979,4.02235243 6.09299045,4 6.1968316,4 C6.29709201,4 6.40983073,4.03483073 6.53526476,4.1047092 C6.66048177,4.17447917 6.80197483,4.2827691 6.95952691,4.4296875 C7.07411024,4.53700087 7.19585503,4.66232639 7.32476128,4.80566406 C7.45366753,4.94878472 7.5844184,5.10644531 7.71690538,5.27832031 C7.7562934,5.32834201 7.82790799,5.42415365 7.93174913,5.5656467 C8.03559028,5.70703125 8.14203559,5.8655599 8.25130208,6.04090712 C8.36046007,6.21647135 8.45713976,6.39366319 8.54134115,6.57269965 C8.62543403,6.75173611 8.66753472,6.90386285 8.66753472,7.02929688 C8.66753472,7.23339844 8.56998698,7.4124349 8.37478299,7.56640625 C8.1796875,7.7203776 7.95855035,7.87434896 7.71148003,8.02832031 C7.61838108,8.08561198 7.52528212,8.1437717 7.43218316,8.20290799 C7.3390842,8.26193576 7.25672743,8.32009549 7.18511285,8.37749566 C7.10991753,8.43825955 7.06065538,8.48480903 7.0374349,8.51703559 C7.0141059,8.54937066 7.00249566,8.56901042 7.00249566,8.57617188 C7.13140191,8.90201823 7.32118056,9.23860677 7.5718316,9.5859375 C7.82248264,9.93326823 8.10449219,10.2635634 8.41775174,10.5769314 C8.73111979,10.890191 9.06141493,11.1722005 9.40874566,11.4228516 C9.75607639,11.6735026 10.0926649,11.8651259 10.4185113,11.9975043 C10.4256727,11.9940321 10.445421,11.9814453 10.4776476,11.9599609 C10.5097656,11.9384766 10.5564236,11.890191 10.617296,11.8148872 C10.6745877,11.7433811 10.7327474,11.6609158 10.7918837,11.5678168 C10.8509115,11.4747179 10.9109158,11.3798828 10.9717882,11.2832031 C11.1221788,11.0361328 11.2743056,10.8149957 11.4282769,10.6199002 C11.5822483,10.4246962 11.7631293,10.3271484 11.9708116,10.3271484 C12.0961372,10.3271484 12.2482639,10.3691406 12.4273003,10.453342 C12.6063368,10.5375434 12.7827691,10.6341146 12.9563802,10.7433811 C13.1300998,10.8526476 13.2876519,10.9590929 13.429145,11.0630425 C13.5705295,11.1668837 13.6679687,11.2383898 13.7218967,11.2778863 C13.8900825,11.4103733 14.0467665,11.5410156 14.1917318,11.6699219 C14.3368056,11.7988281 14.4629991,11.922309 14.570421,12.0404731 C14.7136502,12.1980252 14.8203125,12.3386502 14.889974,12.4621311 C14.9599609,12.5857205 14.9946832,12.6994358 14.9946832,12.8032769 C14.9946832,12.9071181 14.9724392,13.0189887 14.9277344,13.1388889 C14.8828125,13.2588976 14.8255208,13.3787977 14.7558594,13.4988064 C14.6858724,13.6187066 14.6080729,13.7360026 14.5221354,13.8505859 C14.4361979,13.9651693 14.351888,14.0672743 14.2696398,14.1567925 C14.2124566,14.2211372 14.1328125,14.3008898 14.030599,14.3957248 C13.9287109,14.4906684 13.8121745,14.5837674 13.6815321,14.6751302 C13.5507812,14.7663845 13.4095052,14.843316 13.25727,14.906033 C13.1049262,14.96875 12.9501953,15 12.7925347,15 C12.5490451,15 12.3019748,14.9829644 12.0513238,14.9490017 L12.0513238,14.9490017 Z" id="Page-1"></path>
            </g>
        </g>
    </g>
</svg>