<?xml version="1.0" encoding="UTF-8" standalone="no"?>
<svg width="54px" height="71px" viewBox="0 0 54 71" version="1.1" xmlns="http://www.w3.org/2000/svg" xmlns:xlink="http://www.w3.org/1999/xlink">
    <!-- Generator: Sketch 3.8.3 (29802) - http://www.bohemiancoding.com/sketch -->
    <title>Page 1</title>
    <desc>Created with Sketch.</desc>
    <defs></defs>
    <g id="GS_mobile_facelift_Retina_final_02_aza" stroke="none" stroke-width="1" fill="none" fill-rule="evenodd">
        <g id="Tarif-Multicheck" transform="translate(-67.000000, -314.000000)">
            <g id="Page-1" transform="translate(68.000000, 315.000000)">
                <path d="M26.409168,1.62554095 C31.8573498,1.62554095 36.2931074,6.06506623 36.2931074,11.5252962 C36.2931074,16.9738199 31.858813,21.407492 26.409168,21.407492 C20.9570468,21.407492 16.524103,16.9738199 16.524103,11.5252962 C16.524103,6.06652953 20.9570468,1.62554095 26.409168,1.62554095 M26.409168,22.980647 C32.7266052,22.980647 37.8623368,17.8407661 37.8623368,11.5252962 C37.8623368,5.20250995 32.7266052,0.0563256117 26.409168,0.0563256117 C20.0930814,0.0563256117 14.9545359,5.20250995 14.9545359,11.5252962 C14.9548736,17.8403158 20.0930814,22.980647 26.409168,22.980647" id="Fill-1" fill="#3D9CF3"></path>
                <path d="M26.409168,1.62554095 C31.8573498,1.62554095 36.2931074,6.06506623 36.2931074,11.5252962 C36.2931074,16.9738199 31.858813,21.407492 26.409168,21.407492 C20.9570468,21.407492 16.524103,16.9738199 16.524103,11.5252962 C16.524103,6.06652953 20.9570468,1.62554095 26.409168,1.62554095 L26.409168,1.62554095 Z M26.409168,22.980647 C32.7266052,22.980647 37.8623368,17.8407661 37.8623368,11.5252962 C37.8623368,5.20250995 32.7266052,0.0563256117 26.409168,0.0563256117 C20.0930814,0.0563256117 14.9545359,5.20250995 14.9545359,11.5252962 C14.9548736,17.8403158 20.0930814,22.980647 26.409168,22.980647 L26.409168,22.980647 Z" id="Stroke-3" stroke="#3D9CF3"></path>
                <path d="M23.8891152,50.3520015 L26.6988035,50.3520015 C28.519929,50.3520015 30.0021541,51.8343196 30.0021541,53.6555594 C30.0021541,55.4806263 28.519929,56.9629444 26.6988035,56.9629444 L25.2112883,56.966884 C25.6018511,55.1382152 24.5816606,52.1003016 23.8891152,50.3520015 L23.8891152,50.3520015 Z M50.360942,63.6549313 C50.360942,65.7052331 48.6936779,67.373052 46.6469939,67.373052 C44.5967082,67.373052 42.9305697,65.7055708 42.9305697,63.6158726 L42.9217905,62.8324468 L42.9217905,34.8927372 L41.1259896,34.8927372 L41.1397212,66.8047307 L13.0180762,66.7845822 L13.022916,58.5322723 L23.4070459,58.5322723 L26.6991411,58.5322723 C29.3867082,58.5322723 31.5720589,56.3432951 31.5720589,53.6540961 C31.5720589,50.9650096 29.3870459,48.7809852 26.6991411,48.7809852 L23.323981,48.7809852 L17.4281714,26.6217421 L36.5926476,26.6217421 C37.1293056,26.6178024 49.4512797,26.5851597 50.3606043,37.3678449 L50.3606043,63.6549313 L50.360942,63.6549313 Z M7.05428398,56.9632821 L7.57045714,28.2176344 C8.66493333,27.8411173 11.5956173,26.9669672 15.8135827,26.6611385 L22.0021455,49.8813832 C23.1948814,52.6222478 24.1232277,56.0944223 23.6030026,56.8894419 C23.5766649,56.9260243 23.5538165,56.9636197 23.4067082,56.9636197 C23.4067082,56.9632821 7.05428398,56.9632821 7.05428398,56.9632821 L7.05428398,56.9632821 Z M5.48505455,57.0236148 L4.81119307,57.0274419 C3.85650909,57.0274419 3.10723636,56.7515545 2.57935758,56.2112608 C1.61195498,55.219822 1.62456104,53.6267437 1.62602424,53.5764289 L1.66125368,35.8626768 C1.68657835,35.6170684 2.1750632,31.7376475 5.98231861,29.0866067 L5.48505455,57.0236148 Z M51.9288208,37.2999705 C50.9061541,25.1594599 37.0033576,24.9982723 36.5838684,25.0514011 L15.1913835,25.0514011 C9.79486407,25.0514011 6.01788571,27.1359215 6.01788571,27.1359215 C-0.0930147186,30.8462755 0.106206061,35.6525251 0.0959636364,35.78107 L0.0646735931,53.4581271 C0.0279809524,53.710039 0.0597212121,55.6998954 1.28115844,57.1181662 C2.12891602,58.099362 3.31523636,58.5969949 4.81254372,58.5969949 L11.4523359,58.5969949 L11.4473835,68.3517715 L42.7126649,68.3782233 L42.7126649,67.1590732 C43.6811931,68.2472021 45.0802407,68.9437307 46.6484571,68.9437307 C49.5614701,68.9437307 51.9315221,66.5734175 51.9315221,63.6173359 L51.9288208,37.2999705 Z" id="Fill-5" fill="#3D9CF3"></path>
                <path d="M23.8891152,50.3520015 L26.6988035,50.3520015 C28.519929,50.3520015 30.0021541,51.8343196 30.0021541,53.6555594 C30.0021541,55.4806263 28.519929,56.9629444 26.6988035,56.9629444 L25.2112883,56.966884 C25.6018511,55.1382152 24.5816606,52.1003016 23.8891152,50.3520015 L23.8891152,50.3520015 Z M50.360942,63.6549313 C50.360942,65.7052331 48.6936779,67.373052 46.6469939,67.373052 C44.5967082,67.373052 42.9305697,65.7055708 42.9305697,63.6158726 L42.9217905,62.8324468 L42.9217905,34.8927372 L41.1259896,34.8927372 L41.1397212,66.8047307 L13.0180762,66.7845822 L13.022916,58.5322723 L23.4070459,58.5322723 L26.6991411,58.5322723 C29.3867082,58.5322723 31.5720589,56.3432951 31.5720589,53.6540961 C31.5720589,50.9650096 29.3870459,48.7809852 26.6991411,48.7809852 L23.323981,48.7809852 L17.4281714,26.6217421 L36.5926476,26.6217421 C37.1293056,26.6178024 49.4512797,26.5851597 50.3606043,37.3678449 L50.3606043,63.6549313 L50.360942,63.6549313 L50.360942,63.6549313 Z M7.05428398,56.9632821 L7.57045714,28.2176344 C8.66493333,27.8411173 11.5956173,26.9669672 15.8135827,26.6611385 L22.0021455,49.8813832 C23.1948814,52.6222478 24.1232277,56.0944223 23.6030026,56.8894419 C23.5766649,56.9260243 23.5538165,56.9636197 23.4067082,56.9636197 C23.4067082,56.9632821 7.05428398,56.9632821 7.05428398,56.9632821 L7.05428398,56.9632821 Z M5.48505455,57.0236148 L4.81119307,57.0274419 C3.85650909,57.0274419 3.10723636,56.7515545 2.57935758,56.2112608 C1.61195498,55.219822 1.62456104,53.6267437 1.62602424,53.5764289 L1.66125368,35.8626768 C1.68657835,35.6170684 2.1750632,31.7376475 5.98231861,29.0866067 L5.48505455,57.0236148 L5.48505455,57.0236148 Z M51.9288208,37.2999705 C50.9061541,25.1594599 37.0033576,24.9982723 36.5838684,25.0514011 L15.1913835,25.0514011 C9.79486407,25.0514011 6.01788571,27.1359215 6.01788571,27.1359215 C-0.0930147186,30.8462755 0.106206061,35.6525251 0.0959636364,35.78107 L0.0646735931,53.4581271 C0.0279809524,53.710039 0.0597212121,55.6998954 1.28115844,57.1181662 C2.12891602,58.099362 3.31523636,58.5969949 4.81254372,58.5969949 L11.4523359,58.5969949 L11.4473835,68.3517715 L42.7126649,68.3782233 L42.7126649,67.1590732 C43.6811931,68.2472021 45.0802407,68.9437307 46.6484571,68.9437307 C49.5614701,68.9437307 51.9315221,66.5734175 51.9315221,63.6173359 L51.9288208,37.2999705 L51.9288208,37.2999705 Z" id="Stroke-7" stroke="#3D9CF3"></path>
            </g>
        </g>
    </g>
</svg>