<?xml version="1.0" encoding="UTF-8" standalone="no"?>
<svg width="63px" height="66px" viewBox="0 0 63 66" version="1.1" xmlns="http://www.w3.org/2000/svg" xmlns:xlink="http://www.w3.org/1999/xlink">
    <!-- Generator: Sketch 3.8.3 (29802) - http://www.bohemiancoding.com/sketch -->
    <title>Page 1</title>
    <desc>Created with Sketch.</desc>
    <defs>
        <polygon id="path-1" points="0.00165 66 62.711 66 62.711 0.00275 0.00165 0.00275 0.00165 66"></polygon>
    </defs>
    <g id="GS_mobile_facelift_Retina_final_02_aza" stroke="none" stroke-width="1" fill="none" fill-rule="evenodd">
        <g id="Tarif-Multicheck" transform="translate(-63.000000, -332.000000)">
            <g id="Page-1" transform="translate(63.000000, 332.000000)">
                <mask id="mask-2" fill="white">
                    <use xlink:href="#path-1"></use>
                </mask>
                <g id="Clip-2"></g>
                <path d="M27.44115,41.13725 C27.23765,41.06025 27.05065,40.93925 26.87465,40.76875 L20.26915,34.19075 C19.95015,33.87175 19.78515,33.47575 19.78515,33.01375 C19.78515,32.55175 19.95015,32.16125 20.26915,31.84225 C20.59365,31.51775 20.98415,31.35825 21.44615,31.35825 C21.90815,31.35825 22.29865,31.51775 22.62315,31.84225 L28.03515,37.28725 L43.37465,21.94775 C43.69915,21.62325 44.08965,21.46375 44.55165,21.46375 C45.01365,21.46375 45.40965,21.62325 45.72865,21.94775 C46.05315,22.26675 46.21265,22.65725 46.21265,23.10825 C46.21265,23.55925 46.05315,23.94425 45.72865,24.26875 L29.22865,40.76875 C29.05815,40.93925 28.87115,41.06025 28.66765,41.13725 C28.46415,41.21425 28.24965,41.25275 28.03515,41.25275 C27.84265,41.25275 27.64465,41.21425 27.44115,41.13725 M4.49515,23.89475 C5.19365,27.23875 6.05715,30.31875 7.09115,33.14575 C8.11965,35.97275 9.25265,38.53575 10.49015,40.84575 C11.72765,43.15575 12.94315,45.17975 14.14765,46.92325 C15.61065,49.06825 17.11765,51.01525 18.67415,52.75325 C20.23065,54.49675 21.76515,56.02575 23.26665,57.34575 C24.77365,58.67125 26.21465,59.77125 27.60065,60.65125 C28.98665,61.53125 30.24065,62.18575 31.35715,62.61475 C32.47365,62.18575 33.72765,61.53125 35.11365,60.65125 C36.49415,59.77125 37.94065,58.67125 39.44765,57.34575 C40.94915,56.02575 42.47815,54.49675 44.04015,52.75325 C45.59665,51.01525 47.09265,49.06825 48.53365,46.92325 C49.73815,45.17975 50.95915,43.15575 52.20765,40.84575 C53.45065,38.53575 54.59465,35.97275 55.62315,33.14575 C56.65715,30.31875 57.51515,27.23875 58.20265,23.89475 C58.89015,20.55625 59.28615,16.97025 59.39615,13.14775 C58.03765,13.06525 56.66265,12.89475 55.27115,12.64725 C53.87415,12.39975 52.50465,12.10275 51.15715,11.74525 C49.81515,11.39325 48.51715,11.00825 47.26315,10.60125 C46.00365,10.19425 44.83765,9.79825 43.76515,9.40775 C42.60465,8.95675 41.44415,8.48925 40.28365,8.01075 C39.12315,7.52675 38.00665,7.03725 36.93415,6.54225 C35.85615,6.04725 34.84965,5.55225 33.90365,5.05725 C32.95765,4.56775 32.11065,4.08375 31.35715,3.61075 C30.60365,4.08375 29.75115,4.56775 28.79415,5.05725 C27.83715,5.55225 26.83065,6.04725 25.76365,6.54225 C24.70215,7.03725 23.59115,7.52675 22.43065,8.01075 C21.27015,8.48925 20.09865,8.95675 18.91615,9.40775 C17.86565,9.79825 16.71065,10.19425 15.45115,10.60125 C14.19715,11.00825 12.88815,11.39325 11.53515,11.74525 C10.18215,12.10275 8.81265,12.39975 7.42665,12.64725 C6.04065,12.89475 4.67115,13.06525 3.31815,13.14775 C3.40615,16.97025 3.79665,20.55625 4.49515,23.89475 M31.09865,65.98625 C31.01065,65.97525 30.92815,65.95875 30.84015,65.93675 C29.31665,65.41975 27.71615,64.62775 26.03865,63.56625 C24.36115,62.50475 22.68365,61.22875 20.99515,59.74925 C19.30665,58.26425 17.65115,56.59775 16.01765,54.73875 C14.38415,52.87975 12.84965,50.89425 11.40865,48.79325 C10.12165,46.87925 8.79615,44.66275 7.44315,42.13825 C6.09015,39.61375 4.86365,36.78675 3.75265,33.66275 C2.64715,30.53325 1.74515,27.12875 1.04665,23.44375 C0.34815,19.75875 0.00165,15.80425 0.00165,11.56925 C0.00165,11.11825 0.16115,10.73325 0.48565,10.40875 C0.80465,10.08425 1.19515,9.92475 1.64615,9.92475 C3.96165,9.92475 6.54115,9.57825 9.37915,8.87975 C12.21165,8.18125 14.98365,7.33425 17.69515,6.33325 C20.40115,5.33225 22.89265,4.28175 25.16965,3.17625 C27.44665,2.06525 29.19565,1.10825 30.42215,0.28875 C30.70265,0.09625 31.00515,0.00275 31.34065,0.00275 C31.67615,0.00275 31.97865,0.09625 32.25915,0.28875 C33.48565,1.10825 35.24015,2.06525 37.52815,3.17625 C39.81615,4.28175 42.31315,5.33225 45.01915,6.33325 C47.72515,7.33425 50.49165,8.18125 53.31865,8.87975 C56.14565,9.57825 58.71965,9.92475 61.03515,9.92475 C61.50815,9.92475 61.90965,10.08425 62.22865,10.40875 C62.55315,10.73325 62.71265,11.11825 62.71265,11.56925 C62.71265,15.80425 62.36065,19.75875 61.65115,23.44375 C60.94165,27.12875 60.03965,30.53325 58.94515,33.66275 C57.84515,36.78675 56.62415,39.61375 55.27115,42.13825 C53.91265,44.66275 52.58165,46.87925 51.27265,48.79325 C49.85365,50.89425 48.33015,52.87975 46.69665,54.73875 C45.06315,56.59775 43.40215,58.26425 41.71915,59.74925 C40.03065,61.22875 38.34765,62.50475 36.67565,63.56625 C34.99815,64.62775 33.39765,65.41975 31.87415,65.93675 C31.78615,65.95875 31.69815,65.97525 31.61565,65.98625 C31.52765,65.99725 31.44515,66.00275 31.35715,66.00275 C31.26915,66.00275 31.18665,65.99725 31.09865,65.98625" id="Fill-1" fill="#3D9CF3" mask="url(#mask-2)"></path>
            </g>
        </g>
    </g>
</svg>