<?xml version="1.0" encoding="UTF-8" standalone="no"?>
<svg width="33px" height="41px" viewBox="0 0 33 41" version="1.1" xmlns="http://www.w3.org/2000/svg" xmlns:xlink="http://www.w3.org/1999/xlink">
    <!-- Generator: Sketch 3.8.3 (29802) - http://www.bohemiancoding.com/sketch -->
    <title>Page 1</title>
    <desc>Created with Sketch.</desc>
    <defs>
        <polygon id="path-1" points="32.6332 20.3120556 32.6332 0.540376068 0 0.540376068 0 20.3120556 0 40.083735 32.6332 40.083735"></polygon>
    </defs>
    <g id="GS_mobile_facelift_Retina_final_02_aza" stroke="none" stroke-width="1" fill="none" fill-rule="evenodd">
        <g id="Page-1">
            <g id="Group-3" transform="translate(0.000000, 0.375889)">
                <mask id="mask-2" fill="white">
                    <use xlink:href="#path-1"></use>
                </mask>
                <g id="Clip-2"></g>
                <path d="M30.1818,10.9488974 L22.4332,3.04057265 L22.4332,9.91134188 C22.4332,10.1958889 22.5318,10.442265 22.7324,10.6435299 C22.9296,10.848265 23.1676,10.9488974 23.4498,10.9488974 L30.1818,10.9488974 Z M30.6,36.9745385 L30.6,13.0240085 L23.4498,13.0240085 C22.61,13.0240085 21.8926,12.718641 21.2976,12.107906 C20.6992,11.4971709 20.4,10.7649829 20.4,9.91134188 L20.4,2.61375214 L3.0498,2.61375214 C2.7676,2.61375214 2.5296,2.71438462 2.3324,2.91911966 C2.1318,3.12038462 2.0332,3.3632906 2.0332,3.64783761 L2.0332,36.9745385 C2.0332,37.2590855 2.1318,37.5019915 2.3324,37.7067265 C2.5296,37.9114615 2.7676,38.012094 3.0498,38.012094 L29.5834,38.012094 C29.8622,38.012094 30.1036,37.9114615 30.3008,37.7067265 C30.5014,37.5019915 30.6,37.2590855 30.6,36.9745385 L30.6,36.9745385 Z M32.334,10.2167094 C32.4258,10.3104017 32.5006,10.4249145 32.5516,10.5533077 C32.606,10.6817009 32.6332,10.8135641 32.6332,10.9488974 L32.6332,36.9745385 C32.6332,37.8281795 32.334,38.5603675 31.7356,39.1711026 C31.1372,39.7818376 30.4198,40.083735 29.5834,40.083735 L3.0498,40.083735 C2.21,40.083735 1.4926,39.7818376 0.8976,39.1711026 C0.2992,38.5603675 0,37.8281795 0,36.9745385 L0,3.64783761 C0,2.79419658 0.2992,2.06200855 0.8976,1.45474359 C1.4926,0.844008547 2.21,0.538641026 3.0498,0.538641026 L22.4332,0.538641026 C22.5658,0.538641026 22.695,0.566401709 22.8208,0.618452991 C22.9466,0.673974359 23.0554,0.750316239 23.1506,0.844008547 L32.334,10.2167094 Z" id="Fill-1" fill="#3D9CF3" mask="url(#mask-2)"></path>
            </g>
            <path d="M5.69942,34.1905675 C5.51922,34.1905675 5.36282,34.1211658 5.23022,33.9893026 C5.10102,33.8574393 5.03302,33.6943453 5.03302,33.5104308 C5.03302,33.3230462 5.10102,33.1634222 5.23022,33.031559 C5.36282,32.8962256 5.51922,32.830294 5.69942,32.830294 L25.81382,32.830294 C25.99742,32.830294 26.15382,32.8962256 26.28642,33.031559 C26.41562,33.1634222 26.48022,33.3230462 26.48022,33.5104308 C26.48022,33.6943453 26.41562,33.8574393 26.28642,33.9893026 C26.15382,34.1211658 25.99742,34.1905675 25.81382,34.1905675 L5.69942,34.1905675 Z M5.69942,30.0958667 C5.51922,30.0958667 5.36282,30.029935 5.23022,29.8946017 C5.10102,29.7627385 5.03302,29.6031145 5.03302,29.4157299 C5.03302,29.2283453 5.10102,29.0687214 5.23022,28.9368581 C5.36282,28.8015248 5.51922,28.7355932 5.69942,28.7355932 L20.44522,28.7355932 C20.63902,28.7355932 20.79882,28.8015248 20.92802,28.9368581 C21.06062,29.0687214 21.12522,29.2283453 21.12522,29.4157299 C21.12522,29.6031145 21.06062,29.7627385 20.92802,29.8946017 C20.79882,30.029935 20.63902,30.0958667 20.44522,30.0958667 L5.69942,30.0958667 Z M5.69942,26.0011658 C5.51922,26.0011658 5.36282,25.9352342 5.23022,25.8033709 C5.10102,25.6680376 5.03302,25.5118838 5.03302,25.3244991 C5.03302,25.1267043 5.10102,24.9601402 5.23022,24.8282769 C5.36282,24.6964137 5.51922,24.6304821 5.69942,24.6304821 L25.81382,24.6304821 C25.99742,24.6304821 26.15382,24.6964137 26.28642,24.8282769 C26.41562,24.9601402 26.48022,25.1267043 26.48022,25.3244991 C26.48022,25.5118838 26.41562,25.6680376 26.28642,25.8033709 C26.15382,25.9352342 25.99742,26.0011658 25.81382,26.0011658 L5.69942,26.0011658 Z M5.69942,21.906465 C5.51922,21.906465 5.36282,21.8405333 5.23022,21.7086701 C5.10102,21.5733368 5.03302,21.4102427 5.03302,21.2159179 C5.03302,21.0285333 5.10102,20.8689094 5.23022,20.7370462 C5.36282,20.5982427 5.51922,20.5323111 5.69942,20.5323111 L20.44522,20.5323111 C20.63902,20.5323111 20.79882,20.5982427 20.92802,20.7370462 C21.06062,20.8689094 21.12522,21.0285333 21.12522,21.2159179 C21.12522,21.4102427 21.06062,21.5733368 20.92802,21.7086701 C20.79882,21.8405333 20.63902,21.906465 20.44522,21.906465 L5.69942,21.906465 Z M5.69942,17.8013538 C5.51922,17.8013538 5.36282,17.7319521 5.23022,17.6000889 C5.10102,17.4682256 5.03302,17.3086017 5.03302,17.1212171 C5.03302,16.9338325 5.10102,16.7742085 5.23022,16.6388752 C5.36282,16.507012 5.51922,16.4410803 5.69942,16.4410803 L25.81382,16.4410803 C25.99742,16.4410803 26.15382,16.507012 26.28642,16.6388752 C26.41562,16.7742085 26.48022,16.9338325 26.48022,17.1212171 C26.48022,17.3086017 26.41562,17.4682256 26.28642,17.6000889 C26.15382,17.7319521 25.99742,17.8013538 25.81382,17.8013538 L5.69942,17.8013538 Z" id="Fill-4" fill="#3D9CF3"></path>
        </g>
    </g>
</svg>