<?xml version="1.0" encoding="UTF-8" standalone="no"?>
<svg width="24px" height="67px" viewBox="0 0 24 67" version="1.1" xmlns="http://www.w3.org/2000/svg" xmlns:xlink="http://www.w3.org/1999/xlink">
    <!-- Generator: Sketch 3.8.3 (29802) - http://www.bohemiancoding.com/sketch -->
    <title>Page 1</title>
    <desc>Created with Sketch.</desc>
    <defs></defs>
    <g id="GS_mobile_facelift_Retina_final_02_aza" stroke="none" stroke-width="1" fill="none" fill-rule="evenodd">
        <g id="Tarif-Multicheck" transform="translate(-81.000000, -315.000000)" fill="#3D9CF3">
            <g id="Page-1" transform="translate(81.000000, 315.000000)">
                <path d="M9.98490811,15.62775 C9.08598919,15.62775 8.26847568,16.1976879 7.95171892,17.0451503 L0.137772973,37.9233137 C-0.0981189189,38.5523693 -0.0187675676,39.2209461 0.282097297,39.7682222 C0.313124324,39.8565703 0.334745946,39.9450278 0.377340541,40.0334853 L4.77344865,49.2439052 C5.13571892,50.0030196 5.19193514,51.3598791 4.89323243,52.1482239 L0.462421622,63.824616 C0.199827027,64.5172778 0.256151351,65.2201209 0.617664865,65.7527271 C0.978313514,66.2854428 1.6060973,66.5901176 2.33907027,66.5901176 L4.61474595,66.5901176 C5.94447568,66.5901176 7.36004324,65.6052614 7.83701622,64.3484641 L12.2664216,52.6720719 C12.7020973,51.522781 12.6704216,49.7341438 12.1934486,48.6023693 L8.80458378,40.5550343 L13.4465297,29.8325163 L17.6978811,34.3497614 C16.4265297,35.0679314 15.5636108,36.4430735 15.5636108,38.0197631 C15.5636108,38.4238431 15.8868541,38.7504134 16.2850162,38.7504134 C16.6833946,38.7504134 17.0066378,38.4238431 17.0066378,38.0197631 C17.0066378,37.0479346 17.5123676,36.1976258 18.2684757,35.7108905 L18.4336649,36.1047892 C18.8356108,37.0641373 19.9286919,37.7866863 20.9763676,37.7866863 C21.0362595,37.7866863 21.0968,37.7837304 21.1566919,37.7793513 L22.2533405,37.6924265 C22.2988541,37.6888137 22.3392865,37.6741438 22.3832865,37.6683415 C22.3984216,37.7844967 22.4186378,37.8998856 22.4186378,38.0205294 L22.4186378,66.2693497 C22.4186378,66.6734297 22.7418811,67 23.1401514,67 C23.5384216,67 23.8616649,66.6734297 23.8616649,66.2693497 L23.8616649,38.0182304 C23.8616649,37.6018889 23.7996108,37.1999984 23.6870703,36.8192369 C23.9482595,36.3517696 23.9748541,35.7730735 23.7477189,35.2184624 L17.3738811,19.6688791 C16.9899892,18.7329592 15.9936649,17.7582843 15.0563676,17.4024837 L12.6783135,16.5008301 L12.6775568,16.5008301 L10.741773,15.766567 C10.4986378,15.6744967 10.2439351,15.62775 9.98490811,15.62775 M10.227827,18.3773775 L11.7675027,18.9613284 L12.2082595,19.128281 L12.2084757,19.128281 L14.1456649,19.8627631 C14.4104216,19.9632631 14.8692324,20.4121193 14.9775568,20.6761781 L20.0424216,33.0325327 L19.9008,32.8820016 L19.459827,31.8309118 L19.1183135,32.0507418 L15.3246919,28.0197941 L12.6353946,25.1622222 L11.0702054,28.7775948 L6.42825946,39.5001127 L5.97777297,40.5405833 L6.41788108,41.585652 L9.80707027,49.6337533 C10.0199351,50.1387712 10.0389622,51.2164641 9.84436757,51.7299118 L5.41507027,63.4059755 C5.32425946,63.645183 4.86793514,63.9626667 4.61474595,63.9626667 L3.18966486,63.9626667 L7.31561081,53.0893987 C7.87323243,51.6178072 7.78663784,49.5197876 7.10955676,48.1004167 L2.76134054,38.9904967 C2.75020541,38.9563399 2.73874595,38.922183 2.72674595,38.8879167 L2.65420541,38.6815523 L2.63907027,38.6538546 L10.227827,18.3773775" id="Fill-1"></path>
                <path d="M16.2850486,0 C13.2424541,0 10.4812649,1.9391683 9.41348108,4.82520425 C8.72591351,6.68314052 8.79445405,8.70189869 9.60612973,10.5080523 C10.4185622,12.3142059 11.8759676,13.6921944 13.711427,14.3885784 C14.5405081,14.7034346 15.4055892,14.8619575 16.2836432,14.8619575 C19.3269946,14.8619575 22.0881838,12.9228987 23.1553189,10.0368627 C24.5738054,6.20023693 22.6459135,1.90917157 18.8587784,0.473488562 C18.0290486,0.159289216 17.1632108,0 16.2850486,0 M16.2850486,2.62745098 C16.8517514,2.62745098 17.4119676,2.73068791 17.9491568,2.93409641 C19.131427,3.38240523 20.0719676,4.27333007 20.5974811,5.44287418 C21.1231027,6.61274673 21.1685081,7.91705719 20.7254811,9.11550327 C20.0356432,10.9811029 18.2506703,12.2345065 16.2836432,12.2345065 C15.7161838,12.2345065 15.157373,12.1314886 14.6215892,11.9280801 C13.435427,11.4780196 12.4927243,10.5869853 11.9676432,9.4197402 C11.4429946,8.25216667 11.3986703,6.94796569 11.8431027,5.74711111 C12.5335892,3.88107353 14.3186703,2.62745098 16.2850486,2.62745098" id="Fill-3"></path>
            </g>
        </g>
    </g>
</svg>