<?xml version="1.0" encoding="UTF-8" standalone="no"?>
<svg width="21px" height="21px" viewBox="0 0 21 21" version="1.1" xmlns="http://www.w3.org/2000/svg" xmlns:xlink="http://www.w3.org/1999/xlink">
    <!-- Generator: Sketch 3.8.3 (29802) - http://www.bohemiancoding.com/sketch -->
    <title>Group 4</title>
    <desc>Created with Sketch.</desc>
    <defs></defs>
    <g id="GS_mobile_facelift_Retina_final_02_aza" stroke="none" stroke-width="1" fill="none" fill-rule="evenodd">
        <g id="Chat-Phone-Button" transform="translate(-226.000000, -13.000000)">
            <g id="Group-4" transform="translate(227.000000, 14.000000)">
                <circle id="Oval-5" stroke="#FFFFFF" cx="9.5" cy="9.5" r="9.5"></circle>
                <g id="Page-1" transform="translate(4.000000, 3.000000)">
                    <path d="M5.0049,3.3291 L3.3289,5.0051 L4.6999,5.0051 C4.7859,5.0051 4.8589,4.9751 4.9169,4.9171 C4.9759,4.8581 5.0049,4.7861 5.0049,4.7001 L5.0049,3.3291 Z M9.8039,11.3041 L9.8039,3.5051 C9.8039,3.4191 9.7749,3.3471 9.7159,3.2881 C9.6569,3.2291 9.5869,3.2001 9.5049,3.2001 L5.6029,3.2001 L5.6029,4.7001 C5.6029,4.9501 5.5149,5.1631 5.3389,5.3391 C5.1629,5.5151 4.9499,5.6021 4.6999,5.6021 L3.1999,5.6021 L3.1999,11.3041 C3.1999,11.3861 3.2299,11.4561 3.2879,11.5151 C3.3469,11.5731 3.4189,11.6021 3.5049,11.6021 L9.5049,11.6021 C9.5869,11.6021 9.6569,11.5731 9.7159,11.5151 C9.7749,11.4561 9.8039,11.3861 9.8039,11.3041 L9.8039,11.3041 Z M2.6029,0.9271 L0.9269,2.6021 L2.3039,2.6021 C2.3859,2.6021 2.4559,2.5731 2.5149,2.5151 C2.5729,2.4561 2.6029,2.3861 2.6029,2.3041 L2.6029,0.9271 Z M1.1029,9.2001 L2.6029,9.2001 L2.6029,5.0051 C2.6029,4.9621 2.6099,4.9231 2.6259,4.8881 C2.6419,4.8521 2.6629,4.8191 2.6909,4.7881 L4.7879,2.6901 C4.8189,2.6631 4.8529,2.6421 4.8879,2.6261 C4.9229,2.6101 4.9619,2.6021 5.0049,2.6021 L7.4009,2.6021 L7.4009,1.1021 C7.4009,1.0201 7.3719,0.9501 7.3139,0.8911 C7.2549,0.8331 7.1849,0.8041 7.1029,0.8041 L3.1999,0.8041 L3.1999,2.3041 C3.1999,2.5501 3.1119,2.7611 2.9369,2.9361 C2.7609,3.1121 2.5499,3.2001 2.3039,3.2001 L0.8039,3.2001 L0.8039,8.9011 C0.8039,8.9831 0.8329,9.0541 0.8919,9.1121 C0.9499,9.1711 1.0209,9.2001 1.1029,9.2001 L1.1029,9.2001 Z M9.5049,2.6021 C9.7509,2.6021 9.9619,2.6901 10.1379,2.8661 C10.3139,3.0421 10.4009,3.2551 10.4009,3.5051 L10.4009,11.3041 C10.4009,11.5501 10.3139,11.7611 10.1379,11.9361 C9.9619,12.1121 9.7509,12.2001 9.5049,12.2001 L3.5049,12.2001 C3.2549,12.2001 3.0419,12.1121 2.8659,11.9361 C2.6909,11.7611 2.6029,11.5501 2.6029,11.3041 L2.6029,9.8041 L1.1029,9.8041 C0.8529,9.8041 0.6399,9.7161 0.4639,9.5401 C0.2879,9.3641 0.1999,9.1511 0.1999,8.9011 L0.1999,2.6021 C0.1999,2.5631 0.2079,2.5251 0.2239,2.4881 C0.2389,2.4511 0.2609,2.4191 0.2879,2.3921 L2.3919,0.2881 C2.4189,0.2611 2.4509,0.2391 2.4879,0.2241 C2.5259,0.2081 2.5639,0.2001 2.6029,0.2001 L7.1029,0.2001 C7.3529,0.2001 7.5659,0.2881 7.7409,0.4641 C7.9169,0.6401 8.0049,0.8521 8.0049,1.1021 L8.0049,2.6021 L9.5049,2.6021 Z" id="Fill-1" fill="#FFFFFF"></path>
                    <path d="M5.0049,3.3291 L3.3289,5.0051 L4.6999,5.0051 C4.7859,5.0051 4.8589,4.9751 4.9169,4.9171 C4.9759,4.8581 5.0049,4.7861 5.0049,4.7001 L5.0049,3.3291 L5.0049,3.3291 Z M9.8039,11.3041 L9.8039,3.5051 C9.8039,3.4191 9.7749,3.3471 9.7159,3.2881 C9.6569,3.2291 9.5869,3.2001 9.5049,3.2001 L5.6029,3.2001 L5.6029,4.7001 C5.6029,4.9501 5.5149,5.1631 5.3389,5.3391 C5.1629,5.5151 4.9499,5.6021 4.6999,5.6021 L3.1999,5.6021 L3.1999,11.3041 C3.1999,11.3861 3.2299,11.4561 3.2879,11.5151 C3.3469,11.5731 3.4189,11.6021 3.5049,11.6021 L9.5049,11.6021 C9.5869,11.6021 9.6569,11.5731 9.7159,11.5151 C9.7749,11.4561 9.8039,11.3861 9.8039,11.3041 L9.8039,11.3041 Z M2.6029,0.9271 L0.9269,2.6021 L2.3039,2.6021 C2.3859,2.6021 2.4559,2.5731 2.5149,2.5151 C2.5729,2.4561 2.6029,2.3861 2.6029,2.3041 L2.6029,0.9271 L2.6029,0.9271 Z M1.1029,9.2001 L2.6029,9.2001 L2.6029,5.0051 C2.6029,4.9621 2.6099,4.9231 2.6259,4.8881 C2.6419,4.8521 2.6629,4.8191 2.6909,4.7881 L4.7879,2.6901 C4.8189,2.6631 4.8529,2.6421 4.8879,2.6261 C4.9229,2.6101 4.9619,2.6021 5.0049,2.6021 L7.4009,2.6021 L7.4009,1.1021 C7.4009,1.0201 7.3719,0.9501 7.3139,0.8911 C7.2549,0.8331 7.1849,0.8041 7.1029,0.8041 L3.1999,0.8041 L3.1999,2.3041 C3.1999,2.5501 3.1119,2.7611 2.9369,2.9361 C2.7609,3.1121 2.5499,3.2001 2.3039,3.2001 L0.8039,3.2001 L0.8039,8.9011 C0.8039,8.9831 0.8329,9.0541 0.8919,9.1121 C0.9499,9.1711 1.0209,9.2001 1.1029,9.2001 L1.1029,9.2001 Z M9.5049,2.6021 C9.7509,2.6021 9.9619,2.6901 10.1379,2.8661 C10.3139,3.0421 10.4009,3.2551 10.4009,3.5051 L10.4009,11.3041 C10.4009,11.5501 10.3139,11.7611 10.1379,11.9361 C9.9619,12.1121 9.7509,12.2001 9.5049,12.2001 L3.5049,12.2001 C3.2549,12.2001 3.0419,12.1121 2.8659,11.9361 C2.6909,11.7611 2.6029,11.5501 2.6029,11.3041 L2.6029,9.8041 L1.1029,9.8041 C0.8529,9.8041 0.6399,9.7161 0.4639,9.5401 C0.2879,9.3641 0.1999,9.1511 0.1999,8.9011 L0.1999,2.6021 C0.1999,2.5631 0.2079,2.5251 0.2239,2.4881 C0.2389,2.4511 0.2609,2.4191 0.2879,2.3921 L2.3919,0.2881 C2.4189,0.2611 2.4509,0.2391 2.4879,0.2241 C2.5259,0.2081 2.5639,0.2001 2.6029,0.2001 L7.1029,0.2001 C7.3529,0.2001 7.5659,0.2881 7.7409,0.4641 C7.9169,0.6401 8.0049,0.8521 8.0049,1.1021 L8.0049,2.6021 L9.5049,2.6021 L9.5049,2.6021 Z" id="Stroke-3" stroke="#FFFFFF" stroke-width="0.4"></path>
                </g>
            </g>
        </g>
    </g>
</svg>