<?xml version="1.0" encoding="UTF-8" standalone="no"?>
<svg width="86px" height="47px" viewBox="0 0 86 47" version="1.1" xmlns="http://www.w3.org/2000/svg" xmlns:xlink="http://www.w3.org/1999/xlink">
    <!-- Generator: Sketch 3.6.1 (26313) - http://www.bohemiancoding.com/sketch -->
    <title>Group</title>
    <desc>Created with Sketch.</desc>
    <defs>
        <path d="M48.623,19.8548 C49.745,20.6168 50.586,21.5638 51.146,22.6958 C51.707,23.8278 51.988,25.1448 51.988,26.6468 L51.988,34.7718 C51.988,35.8298 51.68,36.7768 51.067,37.6128 C50.453,38.4488 49.681,39.0358 48.75,39.3738 L48.75,42.8968 C48.75,43.7858 48.433,44.5468 47.799,45.1818 C47.164,45.8168 46.39,46.1338 45.481,46.1338 L42.244,46.1338 C41.355,46.1338 40.594,45.8168 39.959,45.1818 C39.324,44.5468 39.007,43.7858 39.007,42.8968 L39.007,39.6598 L12.981,39.6598 L12.981,42.8968 C12.981,43.7858 12.664,44.5468 12.029,45.1818 C11.394,45.8168 10.633,46.1338 9.744,46.1338 L6.507,46.1338 C5.597,46.1338 4.824,45.8168 4.189,45.1818 C3.555,44.5468 3.238,43.7858 3.238,42.8968 L3.238,39.3738 C2.306,39.0358 1.534,38.4488 0.921,37.6128 C0.306,36.7768 0,35.8298 0,34.7718 L0,26.6468 C0,25.1448 0.28,23.8278 0.842,22.6958 C1.402,21.5638 2.243,20.6168 3.365,19.8548 C3.471,19.1988 3.635,18.2728 3.856,17.0778 C4.079,15.8828 4.333,14.6178 4.618,13.2848 C4.904,11.9518 5.222,10.6618 5.57,9.4128 C5.92,8.1648 6.285,7.1698 6.666,6.4298 C7.152,5.4348 8.03,4.5618 9.3,3.8108 C10.569,3.0598 12.209,2.4308 14.219,1.9228 C15.045,1.7108 15.917,1.5258 16.838,1.3678 C17.758,1.2078 18.715,1.0768 19.71,0.9708 C20.704,0.8648 21.73,0.7858 22.789,0.7328 C23.847,0.6798 24.915,0.6528 25.994,0.6528 C27.073,0.6528 28.141,0.6798 29.199,0.7328 C30.258,0.7858 31.283,0.8648 32.278,0.9708 C33.272,1.0768 34.23,1.2078 35.15,1.3678 C36.071,1.5258 36.943,1.7108 37.769,1.9228 C39.779,2.4308 41.419,3.0598 42.688,3.8108 C43.958,4.5618 44.836,5.4348 45.322,6.4298 C45.703,7.1698 46.068,8.1648 46.418,9.4128 C46.766,10.6618 47.084,11.9518 47.37,13.2848 C47.655,14.6178 47.909,15.8828 48.132,17.0778 C48.353,18.2728 48.517,19.1988 48.623,19.8548 Z M42.244,42.8968 L45.481,42.8968 L45.481,39.6598 L42.244,39.6598 L42.244,42.8968 Z M9.586,7.8578 C9.352,8.3448 9.114,8.9898 8.871,9.7938 C8.628,10.5978 8.389,11.4758 8.157,12.4278 C7.924,13.3798 7.707,14.3638 7.507,15.3798 C7.305,16.3948 7.12,17.3368 6.951,18.2038 C7.12,18.1618 7.284,18.1198 7.443,18.0778 C7.601,18.0358 7.765,17.9928 7.935,17.9508 C8.676,17.7818 9.469,17.6328 10.315,17.5058 C11.161,17.3788 12.05,17.2788 12.981,17.2038 C13.912,17.1308 14.886,17.0728 15.901,17.0298 C16.917,16.9878 17.974,16.9558 19.075,16.9348 L13.711,13.3798 C13.351,13.1258 13.124,12.7768 13.029,12.3328 C12.933,11.8888 13.014,11.4868 13.267,11.1268 C13.521,10.7458 13.864,10.5138 14.299,10.4288 C14.732,10.3438 15.139,10.4288 15.52,10.6828 L24.851,16.9028 L25.423,16.9028 L25.994,16.9028 C27.601,16.9028 29.162,16.9088 30.676,16.9188 C32.188,16.9298 33.632,16.9558 35.008,16.9978 L29.93,13.3488 C29.569,13.0738 29.352,12.7188 29.279,12.2858 C29.205,11.8518 29.295,11.4438 29.549,11.0628 C29.803,10.7038 30.152,10.4868 30.596,10.4118 C31.041,10.3388 31.442,10.4388 31.803,10.7138 L41.228,17.4428 C41.736,17.5058 42.222,17.5798 42.688,17.6648 C43.153,17.7498 43.609,17.8448 44.053,17.9508 C44.222,17.9928 44.387,18.0358 44.545,18.0778 C44.704,18.1198 44.867,18.1618 45.037,18.2038 C44.867,17.3368 44.682,16.3948 44.481,15.3798 C44.28,14.3638 44.063,13.3798 43.831,12.4278 C43.597,11.4758 43.36,10.5978 43.117,9.7938 C42.873,8.9898 42.636,8.3448 42.402,7.8578 C42.17,7.3918 41.625,6.9208 40.768,6.4458 C39.911,5.9688 38.779,5.5408 37.372,5.1598 C35.965,4.7788 34.304,4.4728 32.389,4.2398 C30.474,4.0068 28.343,3.8908 25.994,3.8908 C23.645,3.8908 21.514,4.0068 19.598,4.2398 C17.683,4.4728 16.022,4.7788 14.616,5.1598 C13.209,5.5408 12.077,5.9688 11.22,6.4458 C10.363,6.9208 9.818,7.3918 9.586,7.8578 Z M6.507,42.8968 L9.744,42.8968 L9.744,39.6598 L6.507,39.6598 L6.507,42.8968 Z M48.75,34.7718 L48.75,26.6468 C48.75,25.1448 48.322,23.9648 47.465,23.1078 C46.608,22.2508 45.217,21.5898 43.291,21.1238 C42.275,20.8698 41.133,20.6798 39.863,20.5528 C38.594,20.4258 37.229,20.3308 35.769,20.2668 C34.309,20.2038 32.76,20.1668 31.12,20.1568 C29.479,20.1458 27.771,20.1408 25.994,20.1408 C24.217,20.1408 22.508,20.1458 20.868,20.1568 C19.228,20.1668 17.679,20.2038 16.219,20.2668 C14.759,20.3308 13.394,20.4258 12.125,20.5528 C10.855,20.6798 9.713,20.8698 8.697,21.1238 C6.771,21.5898 5.38,22.2508 4.523,23.1078 C3.666,23.9648 3.238,25.1448 3.238,26.6468 L3.238,34.7718 C3.238,35.2158 3.396,35.5968 3.714,35.9138 C4.031,36.2318 4.412,36.3908 4.856,36.3908 L47.132,36.3908 C47.576,36.3908 47.957,36.2318 48.274,35.9138 C48.592,35.5968 48.75,35.2158 48.75,34.7718 Z M40.625,33.1528 C41.959,33.1528 43.101,32.6768 44.053,31.7248 C45.006,30.7728 45.481,29.6198 45.481,28.2658 C45.481,26.9328 45.006,25.7898 44.053,24.8378 C43.101,23.8858 41.959,23.4098 40.625,23.4098 C39.271,23.4098 38.118,23.8858 37.166,24.8378 C36.214,25.7898 35.738,26.9328 35.738,28.2658 C35.738,29.6198 36.214,30.7728 37.166,31.7248 C38.118,32.6768 39.271,33.1528 40.625,33.1528 Z M40.625,26.6468 C41.07,26.6468 41.451,26.8058 41.767,27.1228 C42.086,27.4398 42.244,27.8208 42.244,28.2658 C42.244,28.7098 42.086,29.0908 41.767,29.4078 C41.451,29.7248 41.07,29.8838 40.625,29.8838 C40.181,29.8838 39.801,29.7248 39.482,29.4078 C39.166,29.0908 39.007,28.7098 39.007,28.2658 C39.007,27.8208 39.166,27.4398 39.482,27.1228 C39.801,26.8058 40.181,26.6468 40.625,26.6468 Z M11.363,33.1528 C12.717,33.1528 13.87,32.6768 14.822,31.7248 C15.774,30.7728 16.25,29.6198 16.25,28.2658 C16.25,26.9328 15.774,25.7898 14.822,24.8378 C13.87,23.8858 12.717,23.4098 11.363,23.4098 C10.029,23.4098 8.887,23.8858 7.935,24.8378 C6.982,25.7898 6.507,26.9328 6.507,28.2658 C6.507,29.6198 6.982,30.7728 7.935,31.7248 C8.887,32.6768 10.029,33.1528 11.363,33.1528 Z M11.363,26.6468 C11.806,26.6468 12.187,26.8058 12.506,27.1228 C12.822,27.4398 12.981,27.8208 12.981,28.2658 C12.981,28.7098 12.822,29.0908 12.506,29.4078 C12.187,29.7248 11.806,29.8838 11.363,29.8838 C10.918,29.8838 10.537,29.7248 10.221,29.4078 C9.902,29.0908 9.744,28.7098 9.744,28.2658 C9.744,27.8208 9.902,27.4398 10.221,27.1228 C10.537,26.8058 10.918,26.6468 11.363,26.6468 Z" id="path-1"></path>
        <path id="path-3" d="M38.9996,27.96 L0,27.96 L0,0.0002 L38.9996,0.0002 L38.9996,27.96 L38.9996,27.96 Z"></path>
    </defs>
    <g id="Page-1" stroke="none" stroke-width="1" fill="none" fill-rule="evenodd">
        <g id="Group">
            <g id="Oval-1">
                <mask id="mask-2" fill="white">
                    <use xlink:href="#path-1"></use>
                </mask>
                <use id="Mask" fill="#3D9CF3" xlink:href="#path-1"></use>
                <circle fill="#FFFFFF" mask="url(#mask-2)" cx="57" cy="28" r="11"></circle>
            </g>
            <g id="Page-1" transform="translate(47.000000, 8.000000)">
                <mask id="mask-4" fill="white">
                    <use xlink:href="#path-3"></use>
                </mask>
                <g id="Clip-2"></g>
                <path d="M12.1876,27.2952 C13.2536,26.8522 14.1836,26.2522 14.9776,25.4932 C15.7716,24.7352 16.3996,23.8462 16.8626,22.8272 C17.3266,21.8072 17.5576,20.7212 17.5576,19.5682 C17.5576,18.4152 17.3266,17.3292 16.8626,16.3092 C16.3996,15.2902 15.7716,14.4022 14.9776,13.6432 C14.1836,12.8852 13.2536,12.2842 12.1876,11.8412 C11.1206,11.3982 9.9856,11.1772 8.7786,11.1772 C7.5736,11.1772 6.4366,11.3982 5.3696,11.8412 C4.3036,12.2842 3.3736,12.8852 2.5796,13.6432 C1.7866,14.4022 1.1586,15.2902 0.6956,16.3092 C0.2326,17.3292 -0.0004,18.4152 -0.0004,19.5682 C-0.0004,20.7212 0.2326,21.8072 0.6956,22.8272 C1.1586,23.8462 1.7866,24.7352 2.5796,25.4932 C3.3736,26.2522 4.3036,26.8522 5.3696,27.2952 C6.4366,27.7382 7.5736,27.9602 8.7786,27.9602 C9.9856,27.9602 11.1206,27.7382 12.1876,27.2952 Z M11.4256,13.5522 C12.2506,13.8982 12.9746,14.3652 13.5966,14.9542 C14.2196,15.5422 14.7076,16.2342 15.0636,17.0292 C15.4186,17.8242 15.5966,18.6702 15.5966,19.5682 C15.5966,20.4662 15.4186,21.3092 15.0636,22.0982 C14.7076,22.8872 14.2196,23.5792 13.5966,24.1732 C12.9746,24.7682 12.2506,25.2352 11.4256,25.5752 C10.6006,25.9152 9.7186,26.0852 8.7786,26.0852 C7.8396,26.0852 6.9536,25.9152 6.1216,25.5752 C5.2906,25.2352 4.5676,24.7682 3.9516,24.1732 C3.3356,23.5792 2.8466,22.8872 2.4856,22.0982 C2.1226,21.3092 1.9426,20.4662 1.9426,19.5682 C1.9426,18.6702 2.1226,17.8242 2.4856,17.0292 C2.8466,16.2342 3.3356,15.5422 3.9516,14.9542 C4.5676,14.3652 5.2906,13.8982 6.1216,13.5522 C6.9536,13.2062 7.8396,13.0332 8.7786,13.0332 C9.7186,13.0332 10.6006,13.2062 11.4256,13.5522 Z M7.8076,18.6402 L7.8076,15.8372 C7.8076,15.5822 7.9036,15.3632 8.0926,15.1822 C8.2846,14.9992 8.5126,14.9082 8.7786,14.9082 C9.0456,14.9082 9.2746,14.9992 9.4636,15.1822 C9.6556,15.3632 9.7496,15.5822 9.7496,15.8372 L9.7496,18.6402 L12.6826,18.6402 C12.9496,18.6402 13.1776,18.7312 13.3686,18.9132 C13.5586,19.0952 13.6536,19.3132 13.6536,19.5682 C13.6536,19.8232 13.5586,20.0412 13.3686,20.2232 C13.1776,20.4052 12.9496,20.4962 12.6826,20.4962 L9.7496,20.4962 L9.7496,23.3002 C9.7496,23.5552 9.6556,23.7732 9.4636,23.9552 C9.2746,24.1372 9.0456,24.2282 8.7786,24.2282 C8.5126,24.2282 8.2846,24.1372 8.0926,23.9552 C7.9036,23.7732 7.8076,23.5552 7.8076,23.3002 L7.8076,20.4962 L4.8746,20.4962 C4.6086,20.4962 4.3796,20.4052 4.1896,20.2232 C3.9986,20.0412 3.9036,19.8232 3.9036,19.5682 C3.9036,19.3132 3.9986,19.0952 4.1896,18.9132 C4.3796,18.7312 4.6086,18.6402 4.8746,18.6402 L7.8076,18.6402 Z M18.8426,12.9242 C18.9636,12.8762 19.0686,12.8092 19.1576,12.7232 C19.5256,12.3722 19.8526,11.9932 20.1376,11.5862 C20.4236,11.1802 20.6646,10.7522 20.8616,10.3032 C21.0586,9.8542 21.2036,9.3902 21.2996,8.9112 C21.3946,8.4312 21.4426,7.9422 21.4426,7.4452 C21.4426,6.4262 21.2396,5.4612 20.8326,4.5512 C20.4266,3.6402 19.8706,2.8482 19.1666,2.1762 C18.4616,1.5022 17.6336,0.9712 16.6816,0.5822 C15.7296,0.1952 14.7196,0.0002 13.6536,0.0002 C12.5756,0.0002 11.5626,0.1952 10.6166,0.5822 C9.6706,0.9712 8.8456,1.5022 8.1406,2.1762 C7.4366,2.8482 6.8776,3.6402 6.4646,4.5512 C6.0526,5.4612 5.8466,6.4262 5.8466,7.4452 C5.8466,7.6272 5.8526,7.8072 5.8656,7.9822 C5.8776,8.1582 5.8976,8.3372 5.9226,8.5192 C5.9596,8.7742 6.0876,8.9772 6.3036,9.1292 C6.5196,9.2812 6.7606,9.3382 7.0266,9.3022 C7.2936,9.2652 7.5096,9.1442 7.6746,8.9372 C7.8396,8.7322 7.9036,8.5012 7.8646,8.2462 C7.8396,8.1132 7.8236,7.9792 7.8176,7.8462 C7.8116,7.7122 7.8076,7.5782 7.8076,7.4452 C7.8076,6.6812 7.9596,5.9592 8.2646,5.2792 C8.5696,4.5992 8.9856,4.0052 9.5116,3.4952 C10.0386,2.9852 10.6586,2.5852 11.3686,2.2942 C12.0796,2.0032 12.8416,1.8572 13.6536,1.8572 C14.4536,1.8572 15.2096,2.0032 15.9196,2.2942 C16.6306,2.5852 17.2526,2.9852 17.7866,3.4952 C18.3196,4.0052 18.7386,4.5992 19.0426,5.2792 C19.3476,5.9592 19.4996,6.6812 19.4996,7.4452 C19.4996,8.1972 19.3546,8.9142 19.0616,9.5932 C18.7706,10.2732 18.3446,10.8732 17.7866,11.3952 C17.5956,11.5772 17.5006,11.7992 17.5006,12.0592 C17.5006,12.3212 17.5956,12.5422 17.7866,12.7232 C17.8876,12.8092 17.9956,12.8762 18.1106,12.9242 C18.2236,12.9732 18.3446,12.9972 18.4716,12.9972 C18.5986,12.9972 18.7226,12.9732 18.8426,12.9242 Z M24.3746,27.9602 C25.1886,27.9602 25.8796,27.6872 26.4506,27.1402 C27.0226,26.5952 27.3076,25.9332 27.3076,25.1562 C27.3076,25.0842 27.2696,24.7712 27.1936,24.2192 C27.1176,23.6672 26.8756,23.0092 26.4696,22.2442 C26.2796,21.9042 26.0326,21.5342 25.7276,21.1342 C25.4226,20.7332 25.0446,20.3322 24.5936,19.9322 C24.1436,19.5322 23.6076,19.1492 22.9856,18.7852 C22.3636,18.4212 21.6396,18.0942 20.8136,17.8032 C20.5606,17.7182 20.3096,17.7292 20.0616,17.8392 C19.8146,17.9482 19.6466,18.1242 19.5576,18.3672 C19.4686,18.6092 19.4816,18.8462 19.5946,19.0772 C19.7096,19.3072 19.8936,19.4652 20.1476,19.5502 C21.4046,19.9872 22.3846,20.5182 23.0896,21.1432 C23.7936,21.7672 24.3116,22.3692 24.6416,22.9452 C24.9716,23.5212 25.1716,24.0222 25.2416,24.4472 C25.3116,24.8712 25.3466,25.1082 25.3466,25.1562 C25.3466,25.4112 25.2506,25.6302 25.0606,25.8122 C24.8696,25.9942 24.6416,26.0852 24.3746,26.0852 L16.5676,26.0852 C16.3006,26.0852 16.0726,26.1762 15.8816,26.3582 C15.6916,26.5402 15.5966,26.7592 15.5966,27.0132 C15.5966,27.2802 15.6916,27.5042 15.8816,27.6872 C16.0726,27.8692 16.3006,27.9602 16.5676,27.9602 L24.3746,27.9602 Z M31.5256,16.3282 C32.2306,16.0372 32.8486,15.6362 33.3816,15.1262 C33.9146,14.6172 34.3346,14.0252 34.6396,13.3522 C34.9446,12.6792 35.0966,11.9532 35.0966,11.1772 C35.0966,10.4002 34.9446,9.6752 34.6396,9.0012 C34.3346,8.3282 33.9146,7.7362 33.3816,7.2262 C32.8486,6.7172 32.2306,6.3162 31.5256,6.0252 C30.8216,5.7342 30.0636,5.5892 29.2496,5.5892 C28.4376,5.5892 27.6786,5.7342 26.9746,6.0252 C26.2696,6.3162 25.6516,6.7172 25.1186,7.2262 C24.5846,7.7362 24.1646,8.3282 23.8606,9.0012 C23.5556,9.6752 23.4036,10.4002 23.4036,11.1772 C23.4036,11.9532 23.5556,12.6792 23.8606,13.3522 C24.1646,14.0252 24.5846,14.6172 25.1186,15.1262 C25.6516,15.6362 26.2696,16.0372 26.9746,16.3282 C27.6786,16.6192 28.4376,16.7652 29.2496,16.7652 C30.0636,16.7652 30.8216,16.6192 31.5256,16.3282 Z M30.7636,7.7362 C31.2406,7.9312 31.6566,8.1972 32.0106,8.5372 C32.3676,8.8772 32.6466,9.2742 32.8486,9.7292 C33.0526,10.1852 33.1536,10.6672 33.1536,11.1772 C33.1536,11.6862 33.0526,12.1692 32.8486,12.6242 C32.6466,13.0782 32.3676,13.4762 32.0106,13.8162 C31.6566,14.1562 31.2406,14.4232 30.7636,14.6172 C30.2876,14.8112 29.7836,14.9082 29.2496,14.9082 C28.7166,14.9082 28.2116,14.8112 27.7366,14.6172 C27.2596,14.4232 26.8446,14.1562 26.4896,13.8162 C26.1336,13.4762 25.8546,13.0782 25.6516,12.6242 C25.4486,12.1692 25.3466,11.6862 25.3466,11.1772 C25.3466,10.6672 25.4486,10.1852 25.6516,9.7292 C25.8546,9.2742 26.1336,8.8772 26.4896,8.5372 C26.8446,8.1972 27.2596,7.9312 27.7366,7.7362 C28.2116,7.5422 28.7166,7.4452 29.2496,7.4452 C29.7836,7.4452 30.2876,7.5422 30.7636,7.7362 Z M36.0676,27.9602 C36.8796,27.9602 37.5716,27.6872 38.1436,27.1402 C38.7136,26.5952 38.9996,25.9332 38.9996,25.1562 C38.9996,25.1202 38.9426,24.7562 38.8286,24.0642 C38.7136,23.3722 38.3396,22.6202 37.7046,21.8072 C37.3366,21.3342 36.9026,20.9122 36.4006,20.5422 C35.8996,20.1722 35.3376,19.8532 34.7156,19.5862 C33.9796,19.2712 33.1506,19.0342 32.2306,18.8762 C31.3106,18.7192 30.3166,18.6402 29.2496,18.6402 L28.7266,18.6402 C28.5546,18.6402 28.3876,18.6462 28.2216,18.6582 C27.9546,18.6702 27.7336,18.7732 27.5556,18.9672 C27.3776,19.1622 27.2946,19.3862 27.3076,19.6412 C27.3216,19.8952 27.4256,20.1082 27.6216,20.2782 C27.8186,20.4482 28.0566,20.5272 28.3356,20.5152 C28.4756,20.5152 28.6246,20.5122 28.7836,20.5052 C28.9426,20.4992 29.0976,20.4962 29.2496,20.4962 C31.1546,20.4962 32.6296,20.7302 33.6776,21.1972 C34.7246,21.6642 35.4996,22.1802 36.0006,22.7452 C36.5016,23.3082 36.8036,23.8402 36.9056,24.3372 C37.0066,24.8352 37.0576,25.1082 37.0576,25.1562 C37.0446,25.4112 36.9476,25.6302 36.7626,25.8122 C36.5786,25.9942 36.3466,26.0852 36.0676,26.0852 L30.2216,26.0852 C29.9536,26.0852 29.7256,26.1762 29.5366,26.3582 C29.3446,26.5402 29.2496,26.7592 29.2496,27.0132 C29.2496,27.2802 29.3446,27.5042 29.5366,27.6872 C29.7256,27.8692 29.9536,27.9602 30.2216,27.9602 L36.0676,27.9602 Z" id="Fill-1" fill="#3D9CF3" mask="url(#mask-4)"></path>
            </g>
        </g>
    </g>
</svg>