<?xml version="1.0" encoding="UTF-8" standalone="no"?>
<svg width="92px" height="86px" viewBox="0 0 92 86" version="1.1" xmlns="http://www.w3.org/2000/svg" xmlns:xlink="http://www.w3.org/1999/xlink">
    <!-- Generator: Sketch 3.6.1 (26313) - http://www.bohemiancoding.com/sketch -->
    <title>Page 1</title>
    <desc>Created with Sketch.</desc>
    <defs>
        <path id="path-1" d="M0.6697,50 L52.8787,50 L52.8787,0.6545 L0.6697,0.6545 L0.6697,50 L0.6697,50 Z"></path>
        <path id="path-3" d="M92.006,51.5460398 L92.006,0.6462 L0.000387207438,0.6462 L0.000387207438,51.5460398 L92.006,51.5460398 L92.006,51.5460398 Z"></path>
    </defs>
    <g id="Page-1" stroke="none" stroke-width="1" fill="none" fill-rule="evenodd">
        <g transform="translate(0.000000, -1.000000)">
            <g id="Group-3" transform="translate(20.000000, 36.353500)">
                <mask id="mask-2" fill="white">
                    <use xlink:href="#path-1"></use>
                </mask>
                <g id="Clip-2"></g>
                <path d="M39.9287,7.7715 C39.9287,6.9835 39.7807,6.2445 39.4837,5.5535 C39.1877,4.8635 38.7817,4.2615 38.2677,3.7485 C37.7537,3.2325 37.1487,2.8245 36.4537,2.5235 C35.7587,2.2225 35.0227,2.0725 34.2437,2.0725 C33.8357,2.0725 33.4347,2.1145 33.0417,2.1975 C32.6477,2.2805 32.2647,2.4065 31.8947,2.5725 L30.2547,4.2125 C31.2827,4.2495 32.2467,4.4705 33.1457,4.8795 C34.0437,5.2875 34.8317,5.8295 35.5087,6.5055 C36.1847,7.1815 36.7247,7.9705 37.1277,8.8695 C37.5317,9.7665 37.7507,10.7265 37.7877,11.7475 L39.4287,10.1065 C39.5957,9.7455 39.7207,9.3675 39.8037,8.9735 C39.8867,8.5785 39.9287,8.1775 39.9287,7.7715 L39.9287,7.7715 Z M23.8877,19.1265 C24.1567,19.4515 24.3977,19.7955 24.6117,20.1625 C24.8247,20.5285 25.0097,20.9085 25.1667,21.3015 C25.3247,21.6955 25.4477,22.1055 25.5357,22.5325 C25.6237,22.9585 25.6767,23.3985 25.6957,23.8525 L36.2597,13.2895 C36.2957,13.0845 36.3237,12.8785 36.3427,12.6705 C36.3607,12.4625 36.3707,12.2505 36.3707,12.0385 C36.3707,11.2885 36.2477,10.5725 36.0017,9.8905 C35.7567,9.2095 35.4107,8.5955 34.9667,8.0495 L23.8877,19.1265 Z M28.7257,5.7545 L18.1617,16.3195 C18.6067,16.3275 19.0417,16.3785 19.4687,16.4725 C19.8947,16.5635 20.3067,16.6875 20.7057,16.8405 C21.1037,16.9935 21.4857,17.1775 21.8527,17.3965 C22.2187,17.6135 22.5587,17.8575 22.8737,18.1255 L33.9657,7.0345 C33.4187,6.5975 32.8047,6.2565 32.1237,6.0055 C31.4427,5.7545 30.7267,5.6305 29.9767,5.6305 C29.7627,5.6305 29.5527,5.6415 29.3447,5.6665 C29.1357,5.6875 28.9287,5.7185 28.7257,5.7545 L28.7257,5.7545 Z M16.4517,22.0035 C16.9437,22.0035 17.4047,22.0955 17.8347,22.2825 C18.2657,22.4665 18.6417,22.7205 18.9607,23.0465 C19.2807,23.3715 19.5357,23.7495 19.7257,24.1795 C19.9157,24.6105 20.0107,25.0665 20.0107,25.5485 L24.2217,24.9515 C24.2407,24.8115 24.2547,24.6745 24.2637,24.5415 C24.2727,24.4065 24.2777,24.2705 24.2777,24.1305 C24.2777,23.2495 24.1087,22.4205 23.7707,21.6425 C23.4317,20.8645 22.9727,20.1855 22.3937,19.6075 C21.8147,19.0265 21.1367,18.5705 20.3587,18.2375 C19.5797,17.9045 18.7507,17.7375 17.8697,17.7375 C17.7407,17.7375 17.6057,17.7385 17.4667,17.7445 C17.3277,17.7495 17.1937,17.7585 17.0637,17.7785 L16.4517,22.0035 Z M16.2577,23.4365 L15.8687,26.1465 L18.5787,25.7575 L18.5787,25.6525 L18.5787,25.5625 C18.5787,24.9685 18.3707,24.4635 17.9527,24.0475 C17.5367,23.6305 17.0357,23.4215 16.4517,23.4215 C16.4147,23.4215 16.3807,23.4235 16.3477,23.4295 C16.3157,23.4335 16.2857,23.4365 16.2577,23.4365 L16.2577,23.4365 Z M41.3607,7.7715 C41.3607,8.3075 41.3027,8.8325 41.1867,9.3415 C41.0707,9.8505 40.8967,10.3465 40.6657,10.8295 C40.6467,10.8655 40.6257,10.9005 40.6027,10.9335 C40.5797,10.9645 40.5537,10.9955 40.5267,11.0235 L40.5127,11.0375 L25.4867,26.0635 C25.4407,26.1185 25.3827,26.1615 25.3137,26.1955 C25.2437,26.2265 25.1667,26.2485 25.0837,26.2575 L15.1317,27.6895 L15.0757,27.6895 L15.0207,27.6895 C14.9277,27.6895 14.8367,27.6715 14.7497,27.6405 C14.6617,27.6065 14.5847,27.5535 14.5197,27.4805 C14.4457,27.4055 14.3897,27.3155 14.3537,27.2095 C14.3167,27.1025 14.3067,26.9945 14.3247,26.8825 L15.7427,16.9175 C15.7527,16.8415 15.7757,16.7715 15.8127,16.7025 C15.8497,16.6315 15.8967,16.5705 15.9517,16.5135 L30.9767,1.4895 C31.0047,1.4605 31.0347,1.4335 31.0677,1.4125 C31.0997,1.3875 31.1347,1.3675 31.1717,1.3495 C31.6537,1.1175 32.1517,0.9445 32.6657,0.8285 C33.1807,0.7105 33.7067,0.6545 34.2437,0.6545 C35.2257,0.6545 36.1477,0.8395 37.0097,1.2095 C37.8717,1.5805 38.6237,2.0875 39.2677,2.7325 C39.9117,3.3755 40.4217,4.1305 40.7977,4.9985 C41.1727,5.8645 41.3607,6.7895 41.3607,7.7715 L41.3607,7.7715 Z M3.4057,1.9215 L3.4057,45.8945 C3.4057,46.2715 3.5397,46.5925 3.8087,46.8615 C4.0767,47.1295 4.4077,47.2625 4.8017,47.2625 L48.7467,47.2625 C49.1227,47.2625 49.4447,47.1295 49.7127,46.8615 C49.9807,46.5925 50.1157,46.2715 50.1157,45.8945 L50.1157,18.4225 C50.1157,18.0465 50.2487,17.7255 50.5177,17.4575 C50.7857,17.1875 51.1077,17.0535 51.4837,17.0535 C51.8767,17.0535 52.2077,17.1875 52.4767,17.4575 C52.7447,17.7255 52.8787,18.0465 52.8787,18.4225 L52.8787,45.8945 C52.8787,47.0225 52.4767,47.9885 51.6717,48.7925 C50.8667,49.5975 49.8907,50.0005 48.7467,50.0005 L4.8017,50.0005 C3.6557,50.0005 2.6817,49.5975 1.8767,48.7925 C1.0717,47.9885 0.6697,47.0225 0.6697,45.8945 L0.6697,1.9215 L3.4057,1.9215 Z" id="Fill-1" fill="#3D9CF3" mask="url(#mask-2)"></path>
            </g>
            <g id="Group-6" transform="translate(0.000000, 0.353500)">
                <mask id="mask-4" fill="white">
                    <use xlink:href="#path-3"></use>
                </mask>
                <g id="Clip-5"></g>
                <path d="M1.4854,51.4082 C1.2154,51.3182 0.9754,51.1682 0.7664,50.9592 C0.2874,50.5392 0.0324,50.0082 0.0034,49.3632 C-0.0266,48.7202 0.1674,48.1742 0.5874,47.7242 L41.1964,2.8032 C41.8254,2.1132 42.5504,1.5822 43.3754,1.2072 C44.1984,0.8342 45.0744,0.6462 46.0034,0.6462 C46.9304,0.6462 47.8064,0.8342 48.6314,1.2072 C49.4544,1.5822 50.1804,2.1132 50.8094,2.8032 L91.4194,47.7242 C91.8384,48.1742 92.0324,48.7202 92.0034,49.3632 C91.9724,50.0082 91.7174,50.5392 91.2394,50.9592 C90.7594,51.3792 90.2064,51.5722 89.5774,51.5432 C88.9484,51.5132 88.4234,51.2582 88.0054,50.7792 L47.3954,5.9022 C47.1854,5.6932 46.9684,5.5352 46.7444,5.4292 C46.5194,5.3262 46.2724,5.2732 46.0034,5.2732 C45.7334,5.2732 45.4864,5.3262 45.2614,5.4292 C45.0374,5.5352 44.8194,5.6932 44.6104,5.9022 L4.0014,50.7792 C3.7914,51.0492 3.5364,51.2442 3.2374,51.3632 C2.9374,51.4822 2.6234,51.5432 2.2944,51.5432 C2.0244,51.5432 1.7554,51.4982 1.4854,51.4082" id="Fill-4" fill="#3D9CF3" mask="url(#mask-4)"></path>
            </g>
        </g>
    </g>
</svg>