<?xml version="1.0" standalone="no"?><!DOCTYPE svg PUBLIC "-//W3C//DTD SVG 1.1//EN" "http://www.w3.org/Graphics/SVG/1.1/DTD/svg11.dtd"><svg width="100%" height="100%" viewBox="0 0 65 62" version="1.1" xmlns="http://www.w3.org/2000/svg" xmlns:xlink="http://www.w3.org/1999/xlink" xml:space="preserve" style="fill-rule:evenodd;clip-rule:evenodd;stroke-linejoin:round;stroke-miterlimit:1.41421;"><path id="Fill-1" d="M36.606,57.02c-0.392,0 -0.72,-0.134 -0.986,-0.4c-0.267,-0.267 -0.4,-0.587 -0.4,-0.959l0,-9.545l-5.439,0l0,9.545c0,0.372 -0.134,0.692 -0.4,0.959c-0.266,0.266 -0.595,0.4 -0.986,0.4l-10.904,0c-1.138,0 -2.106,-0.4 -2.906,-1.201c-0.8,-0.799 -1.2,-1.758 -1.2,-2.878l0,-21.835c0,-0.389 0.134,-0.719 0.4,-0.986c0.267,-0.266 0.587,-0.4 0.96,-0.4c0.391,0 0.72,0.134 0.986,0.4c0.267,0.267 0.4,0.597 0.4,0.986l0,21.835c0,0.373 0.134,0.693 0.4,0.959c0.266,0.267 0.586,0.401 0.96,0.401l9.544,0l0,-9.545c0,-0.39 0.134,-0.719 0.4,-0.986c0.266,-0.266 0.586,-0.4 0.96,-0.4l8.211,0c0.373,0 0.693,0.134 0.96,0.4c0.266,0.267 0.4,0.596 0.4,0.986l0,9.545l9.544,0c0.373,0 0.693,-0.134 0.96,-0.401c0.266,-0.266 0.4,-0.586 0.4,-0.959l0,-21.835c0,-0.389 0.132,-0.719 0.399,-0.986c0.267,-0.266 0.595,-0.4 0.986,-0.4c0.373,0 0.693,0.134 0.961,0.4c0.266,0.267 0.399,0.597 0.399,0.986l0,21.835c0,1.12 -0.399,2.079 -1.2,2.878c-0.8,0.801 -1.768,1.201 -2.905,1.201l-10.904,0ZM6.081,35.105c-0.16,-0.053 -0.302,-0.142 -0.427,-0.266c-0.284,-0.249 -0.436,-0.564 -0.453,-0.947c-0.018,-0.381 0.098,-0.706 0.347,-0.972l24.099,-26.66c0.374,-0.409 0.804,-0.724 1.294,-0.947c0.488,-0.221 1.008,-0.333 1.559,-0.333c0.551,0 1.071,0.112 1.56,0.333c0.489,0.223 0.92,0.538 1.293,0.947l8.078,8.957l0,-3.225c0,-0.178 0.031,-0.351 0.093,-0.52c0.062,-0.169 0.155,-0.316 0.28,-0.44c0.142,-0.142 0.297,-0.244 0.467,-0.306c0.168,-0.063 0.341,-0.094 0.52,-0.094l5.464,0c0.373,0 0.693,0.134 0.961,0.4c0.266,0.267 0.399,0.587 0.399,0.96l0,12.263l7.838,8.665c0.249,0.266 0.364,0.591 0.346,0.972c-0.017,0.383 -0.169,0.698 -0.452,0.947c-0.285,0.25 -0.614,0.364 -0.987,0.347c-0.373,-0.018 -0.685,-0.169 -0.933,-0.454l-8.185,-9.037c-0.124,-0.124 -0.217,-0.267 -0.279,-0.427c-0.063,-0.16 -0.093,-0.328 -0.093,-0.506l0,-11.41l-2.72,0l0.027,5.412c0,0.284 -0.076,0.546 -0.227,0.786c-0.151,0.24 -0.36,0.404 -0.627,0.493c-0.266,0.107 -0.537,0.129 -0.813,0.067c-0.275,-0.063 -0.511,-0.201 -0.706,-0.414l-10.477,-11.596c-0.125,-0.125 -0.253,-0.218 -0.387,-0.28c-0.133,-0.062 -0.28,-0.095 -0.44,-0.095c-0.16,0 -0.307,0.033 -0.439,0.095c-0.134,0.062 -0.263,0.155 -0.388,0.28l-24.099,26.632c-0.125,0.16 -0.276,0.276 -0.454,0.347c-0.177,0.071 -0.365,0.107 -0.559,0.107c-0.16,0 -0.32,-0.027 -0.48,-0.081Z" style="fill:#3d9cf3;"/></svg>