<?xml version="1.0" standalone="no"?><!DOCTYPE svg PUBLIC "-//W3C//DTD SVG 1.1//EN" "http://www.w3.org/Graphics/SVG/1.1/DTD/svg11.dtd"><svg width="100%" height="100%" viewBox="0 0 49 49" version="1.1" xmlns="http://www.w3.org/2000/svg" xmlns:xlink="http://www.w3.org/1999/xlink" xml:space="preserve" style="fill-rule:evenodd;clip-rule:evenodd;stroke-linejoin:round;stroke-miterlimit:1.41421;"><path id="Fill-1" d="M37.909,28.831c0.519,0.52 0.78,1.149 0.78,1.888l0,0.884l-5.319,0l0,-0.884c0,-0.739 0.26,-1.368 0.779,-1.888c0.52,-0.519 1.149,-0.779 1.889,-0.779c0.727,0 1.351,0.26 1.871,0.779ZM40.213,40.213c-0.174,0.173 -0.387,0.26 -0.641,0.26l-7.086,0c-0.242,0 -0.45,-0.087 -0.624,-0.26c-0.173,-0.173 -0.259,-0.381 -0.259,-0.624l0,-5.318c0,-0.254 0.086,-0.468 0.259,-0.641c0.174,-0.173 0.382,-0.26 0.624,-0.26l7.086,0c0.254,0 0.467,0.087 0.641,0.26c0.173,0.173 0.26,0.387 0.26,0.641l0,5.318c0,0.243 -0.087,0.451 -0.26,0.624ZM40.473,30.719c0,-0.612 -0.119,-1.186 -0.355,-1.723c-0.238,-0.538 -0.555,-1.007 -0.953,-1.412c-0.399,-0.404 -0.867,-0.722 -1.404,-0.953c-0.537,-0.231 -1.112,-0.347 -1.723,-0.347c-0.613,0 -1.19,0.116 -1.733,0.347c-0.543,0.231 -1.013,0.549 -1.412,0.953c-0.398,0.405 -0.713,0.874 -0.944,1.412c-0.231,0.537 -0.346,1.111 -0.346,1.723l0,1.04c-0.52,0.185 -0.947,0.506 -1.282,0.961c-0.336,0.457 -0.502,0.974 -0.502,1.551l0,5.318c0,0.728 0.259,1.352 0.779,1.872c0.52,0.519 1.149,0.779 1.888,0.779l7.086,0c0.738,0 1.368,-0.26 1.889,-0.779c0.519,-0.52 0.779,-1.144 0.779,-1.872l0,-5.318c0,-0.577 -0.168,-1.094 -0.502,-1.551c-0.336,-0.455 -0.757,-0.776 -1.265,-0.961l0,-1.04ZM20.515,9.168c-0.97,0.416 -1.816,0.985 -2.538,1.707c-0.722,0.722 -1.294,1.568 -1.715,2.538c-0.422,0.97 -0.632,2.01 -0.632,3.118c0,1.097 0.21,2.131 0.632,3.101c0.421,0.97 0.993,1.817 1.715,2.538c0.722,0.722 1.568,1.291 2.538,1.707c0.97,0.416 2.004,0.623 3.101,0.623c1.097,0 2.131,-0.207 3.101,-0.623c0.97,-0.416 1.816,-0.985 2.538,-1.707c0.722,-0.721 1.294,-1.568 1.715,-2.538c0.422,-0.97 0.633,-2.004 0.633,-3.101c0,-1.108 -0.211,-2.148 -0.633,-3.118c-0.421,-0.97 -0.993,-1.816 -1.715,-2.538c-0.722,-0.722 -1.568,-1.291 -2.538,-1.707c-0.97,-0.416 -2.004,-0.624 -3.101,-0.624c-1.097,0 -2.131,0.208 -3.101,0.624ZM19.814,25.514c-1.184,-0.514 -2.218,-1.213 -3.102,-2.096c-0.883,-0.884 -1.579,-1.917 -2.087,-3.102c-0.509,-1.183 -0.762,-2.445 -0.762,-3.785c0,-1.351 0.253,-2.619 0.762,-3.803c0.508,-1.183 1.204,-2.217 2.087,-3.101c0.884,-0.883 1.918,-1.582 3.102,-2.096c1.183,-0.513 2.451,-0.771 3.802,-0.771c1.34,0 2.602,0.258 3.786,0.771c1.183,0.514 2.217,1.213 3.101,2.096c0.883,0.884 1.582,1.918 2.096,3.101c0.514,1.184 0.771,2.452 0.771,3.803c0,1.34 -0.257,2.602 -0.771,3.785c-0.514,1.185 -1.213,2.218 -2.096,3.102c-0.884,0.883 -1.918,1.582 -3.101,2.096c-1.184,0.514 -2.446,0.77 -3.786,0.77c-1.351,0 -2.619,-0.256 -3.802,-0.77ZM9.428,42.24c-0.74,0 -1.369,-0.26 -1.889,-0.779c-0.519,-0.52 -0.779,-1.144 -0.779,-1.872c0,-0.034 0.011,-0.224 0.034,-0.571c0.023,-0.347 0.104,-0.791 0.243,-1.334c0.138,-0.543 0.355,-1.158 0.65,-1.845c0.294,-0.687 0.707,-1.389 1.238,-2.105c0.323,-0.416 0.67,-0.811 1.04,-1.187c0.369,-0.375 0.765,-0.727 1.186,-1.056c0.422,-0.329 0.872,-0.636 1.352,-0.919c0.479,-0.283 0.985,-0.539 1.516,-0.771c0.646,-0.288 1.334,-0.542 2.061,-0.762c0.728,-0.219 1.493,-0.401 2.296,-0.546c0.803,-0.144 1.64,-0.253 2.512,-0.329c0.871,-0.075 1.781,-0.112 2.728,-0.112c0.982,0 1.926,0.04 2.833,0.121c0.906,0.081 1.776,0.203 2.607,0.364c0.231,0.034 0.416,0.156 0.555,0.364c0.138,0.208 0.184,0.427 0.138,0.658c-0.046,0.242 -0.17,0.433 -0.372,0.571c-0.203,0.139 -0.425,0.185 -0.667,0.139c-0.762,-0.15 -1.571,-0.26 -2.426,-0.329c-0.854,-0.069 -1.744,-0.104 -2.668,-0.104c-1.559,0 -3.014,0.104 -4.366,0.312c-1.35,0.208 -2.584,0.523 -3.698,0.944c-1.115,0.422 -2.108,0.942 -2.98,1.559c-0.872,0.618 -1.614,1.331 -2.226,2.14c-0.451,0.601 -0.797,1.187 -1.039,1.759c-0.244,0.571 -0.423,1.082 -0.538,1.532c-0.115,0.451 -0.185,0.812 -0.208,1.083c-0.023,0.272 -0.034,0.413 -0.034,0.424c0,0.243 0.087,0.451 0.259,0.624c0.174,0.173 0.387,0.26 0.642,0.26l17.74,0c0.242,0 0.45,0.087 0.623,0.26c0.173,0.174 0.26,0.381 0.26,0.624c0,0.242 -0.087,0.45 -0.26,0.623c-0.173,0.174 -0.381,0.26 -0.623,0.26l-17.74,0Z" style="fill:#3d9cf3;"/></svg>