<?xml version="1.0" standalone="no"?>
<!DOCTYPE svg PUBLIC "-//W3C//DTD SVG 1.1//EN" "http://www.w3.org/Graphics/SVG/1.1/DTD/svg11.dtd">
<svg width="100%" height="100%" viewBox="0 0 74 82" version="1.1" xmlns="http://www.w3.org/2000/svg" xmlns:xlink="http://www.w3.org/1999/xlink" xml:space="preserve" style="fill-rule:evenodd;clip-rule:evenodd;stroke-miterlimit:1.41421;">
    <g id="Page-1" transform="matrix(1,0,0,1,0,-17.0885)">
        <path id="Fill-1" d="M27.838,33.347C19.916,33.039 16.396,32.459 16.396,32.459C15.428,32.461 14.643,33.241 14.646,34.201L14.648,35.234C14.65,36.195 15.437,36.97 16.405,36.968C16.405,36.968 18.567,37.538 26.459,37.848C26.627,36.235 27.108,34.716 27.838,33.347" style="fill:rgb(61,156,243);stroke-width:1.46px;stroke:white;"/>
        <path id="Fill-3" d="M58.83,34.091C58.826,33.131 58.041,32.355 57.071,32.357C57.071,32.357 53.531,32.952 45.612,33.296C46.349,34.661 46.836,36.179 47.012,37.789C54.897,37.444 57.082,36.866 57.082,36.866C58.05,36.864 58.834,36.085 58.832,35.124L58.83,34.091Z" style="fill:rgb(61,156,243);stroke-width:1.46px;stroke:white;"/>
        <path id="Fill-5" d="M36.754,45.256C33.349,45.264 30.581,42.534 30.572,39.159C30.565,35.784 33.32,33.042 36.724,33.034C40.128,33.025 42.895,35.755 42.903,39.131C42.912,42.506 40.158,45.249 36.754,45.256M36.716,29.112C31.124,29.125 26.602,33.627 26.615,39.169C26.628,44.71 31.171,49.193 36.762,49.18C42.353,49.167 46.876,44.664 46.864,39.123C46.85,33.58 42.307,29.099 36.716,29.112" style="fill:rgb(61,156,243);stroke-width:1.46px;stroke:white;"/>
        <g id="Fill-7">
            <path d="M62.735,24.777C62.735,28.152 59.975,30.887 56.57,30.887C53.165,30.887 50.405,28.152 50.405,24.777C50.405,21.402 53.165,18.666 56.57,18.666C59.975,18.666 62.735,21.402 62.735,24.777Z" style="fill:rgb(61,156,243);"/>
            <path d="M56.673,16.845L56.775,16.847L56.979,16.855L57.08,16.861L57.182,16.868L57.282,16.876L57.383,16.886L57.483,16.896L57.583,16.908L57.683,16.921L57.881,16.951L57.979,16.968L58.077,16.986L58.175,17.005L58.369,17.047L58.465,17.07L58.561,17.094L58.657,17.119L58.752,17.145L58.846,17.172L58.94,17.2L59.034,17.23L59.127,17.26L59.219,17.292L59.311,17.325L59.403,17.359L59.494,17.394L59.584,17.43L59.674,17.467L59.764,17.505L59.852,17.544L59.941,17.584L60.028,17.625L60.115,17.667L60.287,17.755L60.372,17.8L60.457,17.846L60.541,17.893L60.624,17.941L60.707,17.991L60.789,18.041L60.87,18.092L60.951,18.144L61.031,18.196L61.11,18.25L61.189,18.305L61.266,18.36L61.344,18.417L61.42,18.474L61.496,18.533L61.571,18.592L61.645,18.652L61.719,18.713L61.791,18.774L61.935,18.9L62.075,19.03L62.144,19.096L62.212,19.162L62.346,19.298L62.411,19.367L62.476,19.437L62.604,19.579L62.666,19.652L62.727,19.724L62.788,19.798L62.848,19.873L62.907,19.948L62.965,20.024L63.022,20.1L63.078,20.178L63.188,20.334L63.294,20.494L63.396,20.656L63.445,20.738L63.494,20.821L63.542,20.905L63.589,20.989L63.634,21.073L63.679,21.159L63.723,21.245L63.766,21.331L63.807,21.418L63.848,21.506L63.888,21.594L63.926,21.683L63.964,21.773L64.036,21.953L64.07,22.045L64.103,22.136L64.135,22.229L64.166,22.321L64.196,22.414L64.225,22.508L64.253,22.602L64.279,22.697L64.304,22.792L64.329,22.888L64.352,22.984L64.373,23.08L64.394,23.177L64.413,23.274L64.432,23.372L64.449,23.47L64.465,23.569L64.493,23.767L64.505,23.867L64.516,23.966L64.525,24.067L64.534,24.167L64.541,24.268L64.546,24.369L64.551,24.471L64.554,24.573L64.556,24.675L64.557,24.777L64.556,24.879L64.554,24.981L64.551,25.083L64.546,25.184L64.541,25.286L64.534,25.386L64.525,25.487L64.516,25.587L64.505,25.687L64.493,25.787L64.479,25.886L64.465,25.985L64.449,26.083L64.432,26.182L64.413,26.279L64.394,26.377L64.373,26.474L64.352,26.57L64.329,26.666L64.304,26.762L64.279,26.857L64.253,26.951L64.225,27.046L64.196,27.139L64.166,27.233L64.135,27.325L64.103,27.417L64.07,27.509L64.036,27.6L64,27.691L63.964,27.781L63.926,27.87L63.888,27.959L63.848,28.048L63.807,28.135L63.766,28.222L63.723,28.309L63.679,28.395L63.634,28.48L63.589,28.565L63.542,28.649L63.494,28.732L63.445,28.815L63.396,28.897L63.345,28.979L63.294,29.06L63.241,29.14L63.188,29.219L63.133,29.298L63.078,29.376L63.022,29.453L62.965,29.53L62.907,29.606L62.848,29.681L62.788,29.756L62.727,29.829L62.666,29.902L62.604,29.974L62.54,30.046L62.476,30.116L62.411,30.186L62.346,30.256L62.279,30.324L62.212,30.391L62.144,30.458L62.075,30.524L62.005,30.589L61.935,30.653L61.863,30.717L61.791,30.779L61.719,30.841L61.645,30.902L61.571,30.962L61.496,31.021L61.42,31.079L61.344,31.137L61.266,31.193L61.189,31.249L61.11,31.304L61.031,31.357L60.951,31.41L60.87,31.462L60.789,31.513L60.707,31.563L60.624,31.612L60.541,31.66L60.457,31.707L60.372,31.754L60.287,31.799L60.201,31.843L60.115,31.886L60.028,31.928L59.941,31.97L59.852,32.01L59.764,32.049L59.674,32.087L59.584,32.124L59.494,32.16L59.403,32.195L59.311,32.229L59.219,32.262L59.127,32.293L59.034,32.324L58.94,32.353L58.846,32.382L58.752,32.409L58.657,32.435L58.561,32.46L58.465,32.484L58.369,32.507L58.272,32.528L58.175,32.548L58.077,32.568L57.979,32.586L57.881,32.602L57.782,32.618L57.683,32.632L57.583,32.645L57.483,32.657L57.383,32.668L57.282,32.678L57.182,32.686L57.08,32.693L56.979,32.699L56.877,32.703L56.775,32.706L56.673,32.708L56.57,32.709L56.468,32.708L56.365,32.706L56.263,32.703L56.162,32.699L56.06,32.693L55.959,32.686L55.858,32.678L55.758,32.668L55.657,32.657L55.557,32.645L55.458,32.632L55.359,32.618L55.26,32.602L55.161,32.586L55.063,32.568L54.966,32.548L54.869,32.528L54.772,32.507L54.675,32.484L54.579,32.46L54.484,32.435L54.389,32.409L54.294,32.382L54.2,32.353L54.107,32.324L54.014,32.293L53.921,32.262L53.829,32.229L53.738,32.195L53.647,32.16L53.556,32.124L53.466,32.087L53.377,32.049L53.288,32.01L53.2,31.97L53.112,31.928L53.025,31.886L52.939,31.843L52.853,31.799L52.768,31.754L52.684,31.707L52.6,31.66L52.516,31.612L52.434,31.563L52.352,31.513L52.27,31.462L52.19,31.41L52.11,31.357L52.031,31.304L51.952,31.249L51.874,31.193L51.797,31.137L51.72,31.079L51.645,31.021L51.57,30.962L51.495,30.902L51.422,30.841L51.349,30.779L51.277,30.717L51.206,30.653L51.135,30.589L51.066,30.524L50.997,30.458L50.929,30.391L50.861,30.324L50.795,30.255L50.729,30.186L50.664,30.116L50.6,30.046L50.537,29.974L50.475,29.902L50.413,29.829L50.353,29.755L50.293,29.681L50.234,29.606L50.176,29.53L50.119,29.453L50.063,29.376L50.007,29.298L49.953,29.219L49.9,29.14L49.847,29.06L49.795,28.979L49.745,28.897L49.695,28.815L49.646,28.732L49.599,28.649L49.552,28.565L49.506,28.48L49.461,28.395L49.418,28.309L49.375,28.222L49.333,28.135L49.293,28.048L49.253,27.959L49.214,27.87L49.177,27.781L49.14,27.691L49.105,27.6L49.071,27.509L49.037,27.417L49.005,27.325L48.974,27.232L48.945,27.139L48.916,27.046L48.888,26.951L48.862,26.857L48.836,26.762L48.812,26.666L48.789,26.57L48.767,26.474L48.747,26.377L48.727,26.279L48.709,26.182L48.692,26.083L48.676,25.985L48.661,25.886L48.648,25.787L48.636,25.687L48.625,25.587L48.615,25.487L48.607,25.386L48.6,25.286L48.594,25.184L48.59,25.083L48.586,24.981L48.584,24.879L48.584,24.777L48.584,24.675L48.586,24.573L48.59,24.471L48.594,24.369L48.6,24.268L48.607,24.167L48.615,24.067L48.625,23.966L48.636,23.867L48.648,23.767L48.661,23.668L48.676,23.569L48.692,23.47L48.709,23.372L48.727,23.274L48.747,23.177L48.767,23.08L48.789,22.984L48.812,22.888L48.836,22.792L48.862,22.697L48.888,22.602L48.916,22.508L48.945,22.414L48.974,22.321L49.005,22.229L49.037,22.136L49.071,22.045L49.105,21.954L49.14,21.863L49.177,21.773L49.214,21.683L49.253,21.595L49.293,21.506L49.333,21.418L49.375,21.331L49.418,21.245L49.461,21.159L49.506,21.074L49.552,20.989L49.599,20.905L49.646,20.821L49.695,20.738L49.745,20.656L49.795,20.575L49.847,20.494L49.9,20.414L49.953,20.335L50.007,20.256L50.063,20.178L50.119,20.1L50.176,20.024L50.234,19.948L50.293,19.873L50.353,19.798L50.413,19.724L50.475,19.652L50.537,19.579L50.6,19.508L50.664,19.437L50.729,19.367L50.795,19.298L50.861,19.23L50.929,19.162L50.997,19.096L51.066,19.03L51.135,18.965L51.206,18.9L51.277,18.837L51.349,18.774L51.422,18.713L51.495,18.652L51.57,18.592L51.645,18.533L51.72,18.474L51.797,18.417L51.874,18.36L51.952,18.305L52.031,18.25L52.11,18.196L52.19,18.144L52.27,18.092L52.352,18.041L52.434,17.991L52.516,17.941L52.6,17.893L52.684,17.846L52.768,17.8L52.853,17.755L52.939,17.711L53.025,17.667L53.112,17.625L53.2,17.584L53.288,17.544L53.377,17.505L53.466,17.467L53.556,17.43L53.647,17.394L53.738,17.359L53.829,17.325L53.921,17.292L54.014,17.26L54.107,17.23L54.2,17.2L54.294,17.172L54.389,17.145L54.484,17.119L54.579,17.094L54.675,17.07L54.772,17.047L54.869,17.026L54.966,17.005L55.063,16.986L55.161,16.968L55.26,16.951L55.359,16.936L55.458,16.921L55.557,16.908L55.657,16.896L55.758,16.886L55.858,16.876L55.959,16.868L56.06,16.861L56.162,16.855L56.263,16.851L56.365,16.847L56.468,16.845L56.673,16.845ZM56.513,20.488L56.457,20.489L56.401,20.491L56.344,20.493L56.289,20.497L56.233,20.5L56.177,20.505L56.122,20.51L56.067,20.516L56.013,20.523L55.958,20.53L55.904,20.538L55.85,20.546L55.796,20.555L55.743,20.565L55.69,20.576L55.637,20.587L55.584,20.598L55.532,20.611L55.48,20.624L55.428,20.637L55.376,20.651L55.325,20.666L55.274,20.682L55.223,20.698L55.172,20.714L55.122,20.731L55.072,20.749L55.022,20.768L54.973,20.787L54.924,20.806L54.875,20.826L54.826,20.847L54.778,20.868L54.73,20.89L54.682,20.912L54.635,20.935L54.588,20.959L54.541,20.983L54.495,21.008L54.449,21.033L54.403,21.058L54.358,21.085L54.313,21.111L54.269,21.138L54.224,21.166L54.18,21.195L54.137,21.223L54.094,21.253L54.051,21.282L54.008,21.313L53.966,21.343L53.925,21.375L53.883,21.407L53.842,21.439L53.802,21.471L53.762,21.505L53.722,21.538L53.683,21.572L53.644,21.607L53.606,21.642L53.568,21.677L53.53,21.713L53.493,21.75L53.456,21.786L53.42,21.824L53.385,21.861L53.349,21.899L53.314,21.938L53.28,21.977L53.246,22.016L53.213,22.055L53.18,22.095L53.147,22.136L53.115,22.177L53.084,22.218L53.053,22.259L53.023,22.301L52.993,22.344L52.963,22.386L52.934,22.429L52.906,22.473L52.878,22.516L52.851,22.56L52.824,22.605L52.798,22.649L52.772,22.694L52.747,22.74L52.722,22.785L52.698,22.831L52.674,22.877L52.651,22.924L52.629,22.971L52.607,23.018L52.586,23.065L52.565,23.113L52.545,23.161L52.525,23.21L52.506,23.258L52.488,23.307L52.47,23.356L52.453,23.405L52.436,23.455L52.42,23.505L52.405,23.555L52.39,23.606L52.376,23.656L52.362,23.707L52.349,23.759L52.337,23.81L52.325,23.862L52.314,23.914L52.304,23.966L52.294,24.018L52.285,24.071L52.276,24.124L52.269,24.177L52.261,24.23L52.255,24.284L52.249,24.338L52.244,24.392L52.239,24.446L52.235,24.501L52.232,24.555L52.23,24.61L52.228,24.666L52.227,24.721L52.227,24.833L52.228,24.888L52.232,24.998L52.235,25.053L52.239,25.108L52.249,25.216L52.255,25.27L52.261,25.323L52.269,25.377L52.276,25.43L52.294,25.536L52.314,25.64L52.325,25.692L52.337,25.744L52.349,25.795L52.362,25.846L52.39,25.948L52.405,25.998L52.42,26.049L52.436,26.099L52.453,26.148L52.47,26.198L52.506,26.296L52.525,26.344L52.565,26.44L52.607,26.536L52.651,26.63L52.674,26.676L52.698,26.723L52.722,26.768L52.747,26.814L52.772,26.859L52.824,26.949L52.878,27.037L52.906,27.081L52.934,27.124L52.963,27.167L52.993,27.21L53.053,27.294L53.084,27.336L53.115,27.377L53.147,27.418L53.246,27.538L53.314,27.616L53.349,27.654L53.385,27.692L53.42,27.73L53.456,27.767L53.493,27.804L53.53,27.84L53.606,27.912L53.644,27.947L53.722,28.015L53.762,28.049L53.842,28.115L53.883,28.147L53.925,28.179L53.966,28.21L54.008,28.241L54.094,28.301L54.18,28.359L54.224,28.387L54.269,28.415L54.313,28.442L54.358,28.469L54.403,28.495L54.449,28.521L54.541,28.571L54.588,28.595L54.682,28.641L54.73,28.664L54.778,28.685L54.826,28.707L54.875,28.727L54.924,28.748L55.022,28.786L55.122,28.822L55.172,28.839L55.223,28.856L55.325,28.888L55.376,28.902L55.428,28.917L55.532,28.943L55.584,28.955L55.637,28.967L55.743,28.989L55.796,28.998L55.85,29.008L55.958,29.024L56.013,29.031L56.067,29.038L56.122,29.044L56.177,29.049L56.289,29.057L56.344,29.06L56.401,29.063L56.457,29.065L56.513,29.066L56.627,29.066L56.684,29.065L56.74,29.063L56.796,29.06L56.852,29.057L56.908,29.053L56.963,29.049L57.018,29.044L57.073,29.038L57.128,29.031L57.182,29.024L57.236,29.016L57.29,29.008L57.344,28.998L57.398,28.989L57.451,28.978L57.504,28.967L57.556,28.955L57.609,28.943L57.661,28.93L57.713,28.917L57.765,28.902L57.816,28.888L57.867,28.872L57.918,28.856L57.968,28.839L58.019,28.822L58.069,28.804L58.118,28.786L58.168,28.767L58.217,28.748L58.266,28.727L58.314,28.707L58.363,28.685L58.411,28.664L58.458,28.641L58.505,28.618L58.552,28.595L58.599,28.571L58.645,28.546L58.691,28.521L58.737,28.495L58.782,28.469L58.827,28.442L58.872,28.415L58.916,28.387L58.96,28.359L59.004,28.33L59.047,28.301L59.09,28.271L59.132,28.241L59.174,28.21L59.216,28.179L59.257,28.147L59.298,28.115L59.339,28.082L59.379,28.049L59.418,28.015L59.458,27.981L59.496,27.947L59.535,27.912L59.573,27.876L59.61,27.84L59.648,27.804L59.684,27.767L59.72,27.73L59.756,27.692L59.791,27.654L59.826,27.616L59.861,27.577L59.894,27.538L59.928,27.498L59.961,27.458L59.993,27.418L60.025,27.377L60.057,27.336L60.088,27.294L60.118,27.252L60.148,27.21L60.177,27.167L60.206,27.124L60.235,27.081L60.263,27.037L60.29,26.993L60.317,26.949L60.343,26.904L60.369,26.859L60.394,26.814L60.419,26.768L60.443,26.722L60.466,26.676L60.489,26.63L60.512,26.583L60.534,26.536L60.555,26.488L60.576,26.44L60.596,26.392L60.615,26.344L60.634,26.295L60.653,26.247L60.671,26.198L60.688,26.148L60.704,26.098L60.72,26.049L60.736,25.998L60.751,25.948L60.765,25.897L60.778,25.846L60.791,25.795L60.804,25.744L60.815,25.692L60.826,25.64L60.837,25.588L60.847,25.535L60.856,25.483L60.864,25.43L60.872,25.377L60.879,25.323L60.886,25.27L60.892,25.216L60.897,25.162L60.901,25.108L60.905,25.053L60.908,24.998L60.911,24.943L60.913,24.888L60.914,24.833L60.914,24.777L60.914,24.721L60.913,24.666L60.911,24.61L60.908,24.555L60.905,24.501L60.901,24.446L60.897,24.392L60.892,24.338L60.886,24.284L60.879,24.23L60.872,24.177L60.864,24.124L60.856,24.071L60.847,24.018L60.837,23.966L60.826,23.914L60.815,23.862L60.804,23.81L60.791,23.759L60.778,23.707L60.765,23.656L60.751,23.606L60.736,23.555L60.72,23.505L60.704,23.455L60.688,23.406L60.671,23.356L60.653,23.307L60.634,23.258L60.615,23.21L60.596,23.161L60.576,23.113L60.555,23.066L60.534,23.018L60.512,22.971L60.489,22.924L60.466,22.877L60.443,22.831L60.419,22.785L60.394,22.74L60.369,22.694L60.343,22.649L60.317,22.605L60.29,22.56L60.263,22.516L60.235,22.473L60.206,22.429L60.177,22.386L60.148,22.344L60.118,22.301L60.088,22.259L60.057,22.218L60.025,22.177L59.993,22.136L59.961,22.095L59.928,22.055L59.894,22.016L59.861,21.977L59.826,21.938L59.791,21.899L59.756,21.861L59.72,21.824L59.684,21.786L59.647,21.75L59.61,21.713L59.573,21.677L59.535,21.642L59.496,21.607L59.458,21.572L59.418,21.538L59.379,21.505L59.339,21.471L59.298,21.439L59.257,21.407L59.216,21.375L59.174,21.344L59.132,21.313L59.09,21.282L59.047,21.253L59.004,21.223L58.96,21.195L58.916,21.166L58.872,21.139L58.827,21.111L58.782,21.085L58.737,21.058L58.691,21.033L58.645,21.008L58.599,20.983L58.552,20.959L58.505,20.935L58.458,20.912L58.411,20.89L58.363,20.868L58.314,20.847L58.266,20.826L58.217,20.806L58.168,20.787L58.118,20.768L58.069,20.749L58.019,20.731L57.968,20.714L57.918,20.698L57.867,20.682L57.816,20.666L57.765,20.651L57.713,20.637L57.661,20.624L57.609,20.611L57.556,20.598L57.504,20.587L57.451,20.576L57.398,20.565L57.344,20.555L57.29,20.546L57.236,20.538L57.182,20.53L57.128,20.523L57.073,20.516L57.018,20.51L56.963,20.505L56.908,20.5L56.852,20.497L56.796,20.493L56.74,20.491L56.684,20.489L56.627,20.488L56.57,20.488L56.513,20.488Z" style="fill:white;"/>
        </g>
        <g id="Fill-9">
            <path d="M17.43,19.498C20.835,19.498 23.595,22.234 23.595,25.609C23.595,28.984 20.835,31.719 17.43,31.719C14.025,31.719 11.265,28.984 11.265,25.609C11.265,22.234 14.025,19.498 17.43,19.498" style="fill:rgb(61,156,243);"/>
            <path d="M17.532,17.677L17.635,17.679L17.737,17.682L17.838,17.687L17.94,17.693L18.041,17.7L18.142,17.708L18.242,17.717L18.343,17.728L18.443,17.74L18.542,17.753L18.74,17.783L18.839,17.8L18.937,17.818L19.034,17.837L19.228,17.879L19.325,17.902L19.421,17.926L19.516,17.951L19.611,17.977L19.706,18.004L19.8,18.032L19.986,18.092L20.079,18.124L20.171,18.157L20.262,18.191L20.353,18.226L20.444,18.262L20.534,18.299L20.623,18.337L20.712,18.376L20.8,18.416L20.888,18.457L20.975,18.499L21.147,18.587L21.232,18.632L21.316,18.678L21.4,18.725L21.484,18.773L21.566,18.822L21.648,18.873L21.73,18.923L21.81,18.975L21.89,19.028L21.969,19.082L22.048,19.137L22.126,19.192L22.28,19.306L22.355,19.364L22.505,19.484L22.651,19.606L22.723,19.669L22.794,19.732L22.865,19.797L22.934,19.862L23.003,19.928L23.071,19.994L23.139,20.062L23.205,20.13L23.271,20.199L23.336,20.269L23.4,20.34L23.463,20.411L23.525,20.483L23.587,20.556L23.647,20.63L23.707,20.705L23.766,20.78L23.824,20.856L23.881,20.932L23.993,21.088L24.047,21.166L24.153,21.326L24.205,21.407L24.255,21.488L24.305,21.57L24.354,21.653L24.448,21.821L24.494,21.905L24.539,21.991L24.625,22.163L24.667,22.25L24.747,22.426L24.786,22.515L24.86,22.695L24.895,22.785L24.929,22.877L24.963,22.968L24.995,23.06L25.026,23.153L25.056,23.246L25.112,23.434L25.139,23.529L25.164,23.624L25.188,23.72L25.211,23.816L25.233,23.912L25.273,24.106L25.291,24.204L25.308,24.302L25.324,24.401L25.339,24.5L25.352,24.599L25.364,24.698L25.375,24.798L25.385,24.899L25.393,24.999L25.4,25.1L25.406,25.201L25.41,25.303L25.414,25.404L25.416,25.506L25.416,25.711L25.414,25.813L25.41,25.915L25.406,26.016L25.4,26.117L25.393,26.218L25.385,26.319L25.375,26.419L25.364,26.519L25.352,26.619L25.339,26.718L25.324,26.817L25.308,26.915L25.291,27.013L25.273,27.111L25.253,27.209L25.233,27.305L25.211,27.402L25.188,27.498L25.164,27.594L25.139,27.689L25.112,27.783L25.084,27.878L25.056,27.971L25.026,28.064L24.995,28.157L24.963,28.249L24.929,28.341L24.895,28.432L24.86,28.523L24.823,28.613L24.786,28.702L24.747,28.791L24.707,28.879L24.667,28.967L24.625,29.054L24.582,29.141L24.539,29.227L24.494,29.312L24.448,29.397L24.401,29.481L24.354,29.564L24.305,29.647L24.255,29.729L24.205,29.811L24.153,29.892L24.1,29.972L24.047,30.051L23.993,30.13L23.937,30.208L23.881,30.285L23.824,30.362L23.766,30.438L23.707,30.513L23.647,30.587L23.587,30.661L23.525,30.734L23.463,30.806L23.4,30.878L23.336,30.948L23.271,31.018L23.205,31.087L23.139,31.156L23.071,31.223L23.003,31.29L22.934,31.356L22.865,31.421L22.794,31.485L22.723,31.549L22.651,31.611L22.578,31.673L22.505,31.734L22.43,31.794L22.355,31.853L22.28,31.911L22.203,31.969L22.126,32.025L22.048,32.081L21.969,32.135L21.89,32.189L21.81,32.242L21.73,32.294L21.648,32.345L21.566,32.395L21.484,32.444L21.4,32.492L21.316,32.539L21.232,32.586L21.147,32.631L21.061,32.675L20.975,32.718L20.888,32.76L20.8,32.802L20.712,32.842L20.623,32.881L20.534,32.919L20.444,32.956L20.353,32.992L20.262,33.027L20.171,33.061L20.079,33.093L19.986,33.125L19.893,33.156L19.8,33.185L19.706,33.214L19.611,33.241L19.516,33.267L19.421,33.292L19.325,33.316L19.228,33.338L19.131,33.36L19.034,33.38L18.937,33.399L18.839,33.417L18.74,33.434L18.641,33.45L18.542,33.464L18.443,33.477L18.343,33.489L18.242,33.5L18.142,33.51L18.041,33.518L17.94,33.525L17.838,33.531L17.737,33.535L17.635,33.538L17.532,33.54L17.43,33.541L17.327,33.54L17.225,33.538L17.123,33.535L17.021,33.531L16.92,33.525L16.818,33.518L16.718,33.51L16.617,33.5L16.517,33.489L16.417,33.477L16.317,33.464L16.218,33.45L16.119,33.434L16.021,33.417L15.923,33.399L15.825,33.38L15.728,33.36L15.631,33.338L15.535,33.316L15.439,33.292L15.343,33.267L15.248,33.241L15.154,33.214L15.06,33.185L14.966,33.156L14.873,33.125L14.781,33.093L14.689,33.061L14.597,33.027L14.506,32.992L14.416,32.956L14.326,32.919L14.236,32.881L14.148,32.842L14.06,32.802L13.972,32.76L13.885,32.718L13.798,32.675L13.713,32.631L13.628,32.586L13.543,32.539L13.459,32.492L13.376,32.444L13.293,32.395L13.211,32.345L13.13,32.294L13.049,32.242L12.969,32.189L12.89,32.135L12.811,32.081L12.734,32.025L12.656,31.969L12.58,31.911L12.504,31.853L12.429,31.794L12.355,31.734L12.281,31.673L12.209,31.611L12.137,31.549L12.065,31.485L11.995,31.421L11.925,31.356L11.856,31.29L11.788,31.223L11.721,31.156L11.654,31.087L11.589,31.018L11.524,30.948L11.46,30.878L11.396,30.806L11.334,30.734L11.273,30.661L11.212,30.587L11.152,30.513L11.093,30.438L11.035,30.362L10.978,30.285L10.922,30.208L10.867,30.13L10.812,30.051L10.759,29.972L10.706,29.892L10.655,29.811L10.604,29.729L10.555,29.647L10.506,29.564L10.458,29.481L10.411,29.397L10.366,29.312L10.321,29.227L10.277,29.141L10.234,29.054L10.193,28.967L10.152,28.879L10.112,28.791L10.074,28.702L10.036,28.613L10,28.523L9.964,28.432L9.93,28.341L9.897,28.249L9.865,28.157L9.834,28.064L9.804,27.971L9.775,27.877L9.747,27.783L9.721,27.689L9.696,27.594L9.671,27.498L9.648,27.402L9.627,27.305L9.606,27.208L9.587,27.111L9.568,27.013L9.551,26.915L9.535,26.817L9.521,26.718L9.507,26.619L9.495,26.519L9.484,26.419L9.475,26.319L9.466,26.218L9.459,26.117L9.454,26.016L9.449,25.915L9.446,25.813L9.444,25.711L9.443,25.609L9.444,25.506L9.446,25.404L9.449,25.303L9.454,25.201L9.459,25.1L9.466,24.999L9.475,24.899L9.484,24.798L9.495,24.698L9.507,24.599L9.521,24.5L9.535,24.401L9.551,24.302L9.568,24.204L9.587,24.106L9.606,24.009L9.627,23.912L9.648,23.816L9.671,23.72L9.696,23.624L9.721,23.529L9.747,23.434L9.775,23.34L9.804,23.246L9.834,23.153L9.865,23.06L9.897,22.968L9.93,22.877L9.964,22.785L10,22.695L10.036,22.605L10.074,22.515L10.112,22.426L10.152,22.338L10.193,22.25L10.234,22.163L10.277,22.077L10.321,21.991L10.366,21.905L10.411,21.821L10.458,21.737L10.506,21.653L10.555,21.57L10.604,21.488L10.655,21.407L10.706,21.326L10.759,21.246L10.812,21.166L10.867,21.088L10.922,21.01L10.978,20.932L11.035,20.856L11.093,20.78L11.152,20.705L11.212,20.63L11.273,20.556L11.334,20.483L11.396,20.411L11.46,20.34L11.524,20.269L11.589,20.199L11.654,20.13L11.721,20.062L11.788,19.994L11.856,19.928L11.925,19.862L11.995,19.797L12.065,19.732L12.137,19.669L12.209,19.606L12.281,19.545L12.355,19.484L12.429,19.424L12.504,19.364L12.58,19.306L12.656,19.249L12.734,19.192L12.811,19.137L12.89,19.082L12.969,19.028L13.049,18.975L13.13,18.923L13.211,18.873L13.293,18.822L13.376,18.773L13.459,18.725L13.543,18.678L13.628,18.632L13.713,18.587L13.799,18.543L13.885,18.499L13.972,18.457L14.06,18.416L14.148,18.376L14.236,18.337L14.326,18.299L14.416,18.262L14.506,18.226L14.597,18.191L14.689,18.157L14.781,18.124L14.873,18.092L14.966,18.062L15.06,18.032L15.154,18.004L15.248,17.977L15.343,17.951L15.439,17.926L15.535,17.902L15.631,17.879L15.728,17.858L15.825,17.837L15.923,17.818L16.021,17.8L16.119,17.783L16.218,17.768L16.317,17.753L16.417,17.74L16.517,17.728L16.617,17.717L16.718,17.708L16.818,17.7L16.92,17.693L17.021,17.687L17.123,17.682L17.225,17.679L17.327,17.677L17.418,17.677L17.43,19.498L17.441,17.677L17.532,17.677ZM17.373,21.32L17.316,21.321L17.26,21.323L17.204,21.325L17.148,21.328L17.092,21.332L17.037,21.337L16.982,21.342L16.927,21.348L16.872,21.354L16.818,21.362L16.764,21.369L16.71,21.378L16.656,21.387L16.602,21.397L16.549,21.407L16.496,21.418L16.444,21.43L16.391,21.443L16.339,21.456L16.287,21.469L16.235,21.483L16.184,21.498L16.133,21.513L16.082,21.53L16.032,21.546L15.981,21.563L15.931,21.581L15.882,21.6L15.832,21.618L15.783,21.638L15.734,21.658L15.686,21.679L15.637,21.7L15.589,21.722L15.542,21.744L15.495,21.767L15.448,21.791L15.401,21.815L15.355,21.839L15.309,21.865L15.263,21.89L15.218,21.916L15.173,21.943L15.128,21.97L15.084,21.998L15.04,22.026L14.996,22.055L14.953,22.085L14.91,22.114L14.868,22.145L14.826,22.175L14.784,22.207L14.743,22.238L14.702,22.271L14.661,22.303L14.621,22.337L14.582,22.37L14.542,22.404L14.504,22.439L14.465,22.474L14.427,22.509L14.39,22.545L14.353,22.582L14.316,22.618L14.28,22.656L14.244,22.693L14.209,22.731L14.174,22.77L14.139,22.808L14.106,22.848L14.072,22.887L14.039,22.927L14.007,22.968L13.975,23.009L13.943,23.05L13.912,23.091L13.882,23.133L13.852,23.176L13.823,23.218L13.794,23.261L13.765,23.304L13.737,23.348L13.71,23.392L13.683,23.437L13.657,23.481L13.631,23.526L13.606,23.572L13.581,23.617L13.557,23.663L13.534,23.709L13.511,23.756L13.488,23.803L13.466,23.85L13.445,23.897L13.424,23.945L13.404,23.993L13.385,24.041L13.366,24.09L13.347,24.139L13.329,24.188L13.312,24.237L13.296,24.287L13.28,24.337L13.264,24.387L13.249,24.438L13.235,24.488L13.222,24.539L13.209,24.59L13.196,24.642L13.185,24.694L13.174,24.746L13.163,24.798L13.153,24.85L13.144,24.903L13.136,24.956L13.128,25.009L13.121,25.062L13.114,25.116L13.108,25.17L13.103,25.224L13.099,25.278L13.095,25.333L13.092,25.387L13.089,25.442L13.087,25.498L13.086,25.553L13.086,25.664L13.087,25.72L13.089,25.775L13.095,25.885L13.099,25.939L13.103,25.994L13.108,26.048L13.114,26.102L13.121,26.155L13.128,26.209L13.144,26.315L13.153,26.367L13.163,26.42L13.196,26.576L13.235,26.729L13.249,26.78L13.264,26.83L13.312,26.98L13.329,27.029L13.347,27.079L13.366,27.127L13.385,27.176L13.404,27.224L13.424,27.272L13.466,27.368L13.488,27.415L13.511,27.462L13.557,27.554L13.581,27.6L13.606,27.646L13.631,27.691L13.683,27.781L13.737,27.869L13.765,27.913L13.852,28.042L13.912,28.126L13.943,28.168L14.007,28.25L14.039,28.29L14.072,28.33L14.106,28.37L14.139,28.409L14.174,28.448L14.244,28.524L14.28,28.562L14.316,28.599L14.353,28.636L14.427,28.708L14.465,28.744L14.504,28.779L14.542,28.813L14.582,28.847L14.621,28.881L14.661,28.914L14.702,28.947L14.784,29.011L14.868,29.073L14.91,29.103L14.953,29.133L14.996,29.162L15.04,29.191L15.128,29.247L15.218,29.301L15.263,29.327L15.309,29.353L15.401,29.403L15.448,29.427L15.589,29.496L15.637,29.517L15.686,29.539L15.734,29.559L15.832,29.599L15.882,29.618L15.931,29.636L15.981,29.654L16.032,29.671L16.082,29.688L16.133,29.704L16.235,29.734L16.339,29.762L16.391,29.775L16.444,29.787L16.496,29.799L16.602,29.821L16.764,29.848L16.818,29.856L16.872,29.863L16.927,29.87L16.982,29.875L17.037,29.881L17.092,29.885L17.148,29.889L17.26,29.895L17.316,29.896L17.373,29.898L17.487,29.898L17.543,29.896L17.599,29.895L17.656,29.892L17.711,29.889L17.767,29.885L17.822,29.881L17.878,29.875L17.933,29.87L17.987,29.863L18.042,29.856L18.096,29.848L18.15,29.839L18.204,29.83L18.257,29.821L18.31,29.81L18.363,29.799L18.416,29.787L18.468,29.775L18.52,29.762L18.572,29.748L18.624,29.734L18.675,29.719L18.726,29.704L18.777,29.688L18.828,29.671L18.878,29.654L18.928,29.636L18.978,29.618L19.027,29.599L19.076,29.579L19.125,29.559L19.174,29.539L19.222,29.517L19.27,29.496L19.318,29.473L19.365,29.45L19.412,29.427L19.459,29.403L19.505,29.378L19.551,29.353L19.597,29.327L19.642,29.301L19.687,29.274L19.732,29.247L19.776,29.219L19.82,29.191L19.863,29.162L19.906,29.133L19.949,29.103L19.992,29.073L20.034,29.042L20.075,29.011L20.117,28.979L20.158,28.947L20.198,28.914L20.238,28.881L20.278,28.847L20.317,28.813L20.356,28.779L20.394,28.744L20.432,28.708L20.47,28.672L20.507,28.636L20.544,28.599L20.58,28.562L20.616,28.524L20.651,28.486L20.686,28.448L20.72,28.409L20.754,28.37L20.787,28.33L20.82,28.29L20.853,28.25L20.885,28.209L20.916,28.168L20.947,28.126L20.978,28.084L21.007,28.042L21.037,27.999L21.066,27.956L21.094,27.913L21.122,27.869L21.149,27.825L21.176,27.781L21.203,27.736L21.228,27.691L21.254,27.646L21.278,27.6L21.302,27.554L21.326,27.508L21.349,27.462L21.371,27.415L21.393,27.368L21.414,27.32L21.435,27.272L21.455,27.224L21.475,27.176L21.494,27.127L21.512,27.079L21.53,27.029L21.547,26.98L21.564,26.93L21.58,26.88L21.595,26.83L21.61,26.78L21.624,26.729L21.638,26.678L21.651,26.627L21.663,26.576L21.675,26.524L21.686,26.472L21.696,26.42L21.706,26.367L21.715,26.315L21.724,26.262L21.732,26.209L21.739,26.155L21.745,26.102L21.751,26.048L21.756,25.994L21.761,25.939L21.765,25.885L21.768,25.83L21.77,25.775L21.772,25.72L21.773,25.664L21.773,25.609L21.773,25.553L21.772,25.498L21.77,25.442L21.768,25.387L21.765,25.333L21.761,25.278L21.756,25.224L21.751,25.17L21.745,25.116L21.739,25.062L21.732,25.009L21.724,24.956L21.715,24.903L21.706,24.85L21.696,24.798L21.686,24.746L21.675,24.694L21.663,24.642L21.651,24.59L21.638,24.539L21.624,24.488L21.61,24.438L21.595,24.387L21.58,24.337L21.564,24.287L21.547,24.237L21.53,24.188L21.512,24.139L21.494,24.09L21.475,24.041L21.455,23.993L21.435,23.945L21.414,23.897L21.393,23.85L21.371,23.803L21.349,23.756L21.326,23.709L21.302,23.663L21.278,23.617L21.254,23.572L21.228,23.526L21.203,23.481L21.176,23.437L21.149,23.392L21.122,23.348L21.094,23.304L21.066,23.261L21.037,23.218L21.007,23.175L20.978,23.133L20.947,23.091L20.916,23.05L20.885,23.009L20.853,22.968L20.82,22.927L20.787,22.887L20.754,22.848L20.72,22.808L20.686,22.77L20.651,22.731L20.616,22.693L20.58,22.656L20.544,22.618L20.507,22.582L20.47,22.545L20.432,22.509L20.394,22.474L20.356,22.439L20.317,22.404L20.278,22.37L20.238,22.337L20.198,22.303L20.158,22.271L20.117,22.238L20.075,22.207L20.034,22.175L19.992,22.145L19.949,22.114L19.906,22.085L19.863,22.055L19.82,22.026L19.776,21.998L19.732,21.97L19.687,21.943L19.642,21.916L19.597,21.89L19.551,21.865L19.505,21.839L19.459,21.815L19.412,21.791L19.365,21.767L19.318,21.744L19.27,21.722L19.222,21.7L19.174,21.679L19.125,21.658L19.076,21.638L19.027,21.618L18.978,21.6L18.928,21.581L18.878,21.563L18.828,21.546L18.777,21.53L18.726,21.513L18.675,21.498L18.624,21.483L18.572,21.469L18.52,21.456L18.468,21.443L18.416,21.43L18.363,21.418L18.31,21.407L18.257,21.397L18.204,21.387L18.15,21.378L18.096,21.369L18.042,21.362L17.987,21.354L17.933,21.348L17.878,21.342L17.823,21.337L17.767,21.332L17.711,21.328L17.656,21.325L17.599,21.323L17.543,21.321L17.487,21.32L17.43,21.32L17.373,21.32Z" style="fill:white;"/>
        </g>
        <g id="Fill-12">
            <path d="M42.915,89.615C42.915,92.221 40.784,94.334 38.155,94.334L35.324,94.334C32.694,94.334 30.562,92.22 30.562,89.615L30.562,63.257C30.562,60.65 32.695,58.538 35.324,58.538L38.155,58.538C40.784,58.538 42.915,60.651 42.915,63.257L42.915,89.615Z" style="fill:rgb(61,156,243);"/>
            <path d="M38.266,54.531L38.378,54.533L38.489,54.537L38.601,54.542L38.712,54.548L38.822,54.556L38.933,54.565L39.043,54.575L39.153,54.587L39.274,54.601L39.48,54.63L39.696,54.665L39.911,54.706L40.124,54.752L40.335,54.803L40.544,54.859L40.751,54.921L40.956,54.987L41.159,55.057L41.359,55.133L41.558,55.213L41.753,55.298L41.946,55.387L42.136,55.481L42.324,55.579L42.509,55.682L42.691,55.789L42.87,55.899L43.046,56.014L43.22,56.133L43.39,56.257L43.557,56.383L43.72,56.514L43.881,56.649L44.038,56.787L44.192,56.929L44.342,57.074L44.489,57.224L44.632,57.376L44.772,57.532L44.908,57.692L45.04,57.854L45.169,58.02L45.293,58.19L45.414,58.362L45.53,58.538L45.643,58.716L45.751,58.898L45.855,59.082L45.955,59.269L46.05,59.46L46.141,59.652L46.227,59.848L46.308,60.046L46.385,60.246L46.457,60.449L46.525,60.654L46.587,60.862L46.644,61.071L46.696,61.283L46.743,61.496L46.782,61.699L46.803,61.819L46.837,62.037L46.851,62.146L46.865,62.256L46.877,62.366L46.887,62.477L46.896,62.587L46.904,62.698L46.911,62.809L46.916,62.921L46.919,63.033L46.921,63.145L46.922,63.244L46.922,89.627L46.921,89.727L46.919,89.839L46.916,89.95L46.911,90.062L46.904,90.173L46.896,90.284L46.887,90.395L46.877,90.505L46.865,90.616L46.851,90.725L46.837,90.835L46.821,90.944L46.803,91.052L46.782,91.173L46.743,91.376L46.696,91.589L46.644,91.801L46.587,92.01L46.525,92.217L46.457,92.423L46.385,92.625L46.309,92.826L46.227,93.024L46.141,93.219L46.05,93.412L45.955,93.602L45.855,93.79L45.751,93.974L45.643,94.156L45.53,94.334L45.414,94.51L45.293,94.682L45.169,94.851L45.04,95.018L44.908,95.18L44.772,95.34L44.632,95.496L44.489,95.648L44.342,95.797L44.192,95.943L44.038,96.085L43.881,96.223L43.72,96.358L43.557,96.489L43.39,96.615L43.219,96.738L43.046,96.858L42.87,96.972L42.691,97.083L42.509,97.19L42.324,97.293L42.136,97.391L41.946,97.485L41.753,97.574L41.557,97.659L41.359,97.739L41.159,97.814L40.956,97.885L40.751,97.951L40.544,98.012L40.335,98.068L40.123,98.119L39.911,98.165L39.696,98.206L39.48,98.242L39.274,98.27L39.152,98.285L39.043,98.296L38.932,98.307L38.822,98.316L38.712,98.323L38.601,98.33L38.489,98.335L38.378,98.338L38.266,98.34L38.167,98.341L35.311,98.341L35.212,98.34L35.1,98.338L34.989,98.335L34.877,98.33L34.766,98.323L34.656,98.316L34.545,98.307L34.435,98.296L34.326,98.285L34.204,98.27L33.998,98.242L33.782,98.206L33.567,98.165L33.354,98.119L33.143,98.068L32.934,98.012L32.727,97.951L32.522,97.885L32.319,97.814L32.119,97.739L31.921,97.659L31.725,97.574L31.532,97.484L31.342,97.391L31.154,97.292L30.969,97.19L30.787,97.083L30.608,96.972L30.431,96.857L30.258,96.738L30.088,96.615L29.921,96.488L29.757,96.358L29.597,96.223L29.44,96.085L29.286,95.943L29.136,95.797L28.989,95.648L28.845,95.496L28.706,95.34L28.57,95.18L28.438,95.017L28.309,94.851L28.185,94.682L28.064,94.51L27.947,94.334L27.835,94.156L27.727,93.974L27.623,93.79L27.523,93.602L27.428,93.412L27.337,93.22L27.251,93.024L27.169,92.826L27.092,92.626L27.02,92.423L26.953,92.218L26.891,92.01L26.833,91.801L26.781,91.589L26.734,91.376L26.695,91.173L26.674,91.052L26.657,90.944L26.641,90.835L26.626,90.725L26.613,90.616L26.601,90.505L26.59,90.395L26.581,90.284L26.573,90.173L26.567,90.062L26.562,89.951L26.558,89.839L26.556,89.727L26.555,89.627L26.555,63.244L26.556,63.145L26.558,63.033L26.562,62.921L26.567,62.809L26.573,62.698L26.581,62.587L26.59,62.476L26.601,62.366L26.613,62.256L26.626,62.146L26.641,62.036L26.657,61.927L26.674,61.819L26.695,61.698L26.735,61.495L26.781,61.282L26.834,61.07L26.891,60.861L26.953,60.653L27.02,60.448L27.092,60.245L27.169,60.045L27.251,59.847L27.337,59.651L27.428,59.458L27.524,59.268L27.623,59.081L27.727,58.896L27.836,58.715L27.948,58.536L28.065,58.361L28.185,58.188L28.31,58.019L28.438,57.853L28.571,57.69L28.707,57.531L28.846,57.375L28.99,57.222L29.137,57.073L29.287,56.928L29.441,56.786L29.598,56.648L29.759,56.513L29.922,56.383L30.089,56.256L30.259,56.133L30.433,56.014L30.609,55.899L30.788,55.788L30.97,55.681L31.155,55.579L31.343,55.481L31.533,55.387L31.726,55.298L31.921,55.213L32.12,55.133L32.32,55.057L32.523,54.986L32.728,54.92L32.935,54.859L33.144,54.803L33.355,54.752L33.568,54.706L33.782,54.665L33.999,54.63L34.204,54.601L34.326,54.587L34.436,54.575L34.546,54.565L34.656,54.556L34.767,54.548L34.878,54.542L34.989,54.537L35.1,54.533L35.212,54.531L38.266,54.531ZM35.336,62.545L35.312,62.545L35.301,62.545L35.291,62.546L35.28,62.546L35.269,62.547L35.259,62.547L35.249,62.548L35.238,62.549L35.23,62.55L35.199,62.554L35.18,62.558L35.161,62.561L35.143,62.565L35.124,62.569L35.107,62.574L35.089,62.579L35.071,62.585L35.054,62.591L35.037,62.598L35.02,62.604L35.003,62.612L34.987,62.619L34.971,62.627L34.954,62.636L34.938,62.645L34.923,62.654L34.907,62.664L34.892,62.674L34.876,62.684L34.862,62.695L34.847,62.706L34.832,62.717L34.818,62.729L34.805,62.741L34.791,62.754L34.778,62.766L34.765,62.779L34.753,62.793L34.741,62.806L34.729,62.82L34.718,62.833L34.707,62.847L34.697,62.862L34.687,62.876L34.677,62.89L34.668,62.905L34.659,62.919L34.651,62.934L34.643,62.949L34.636,62.964L34.629,62.978L34.622,62.993L34.616,63.008L34.61,63.023L34.605,63.039L34.6,63.054L34.595,63.069L34.591,63.085L34.587,63.1L34.584,63.116L34.578,63.143L34.578,63.149L34.576,63.157L34.575,63.166L34.574,63.174L34.573,63.183L34.572,63.192L34.572,63.201L34.571,63.21L34.57,63.219L34.57,63.247L34.569,63.27L34.569,89.602L34.57,89.624L34.57,89.653L34.571,89.662L34.572,89.68L34.576,89.714L34.578,89.728L34.584,89.755L34.587,89.771L34.591,89.787L34.595,89.802L34.6,89.818L34.61,89.848L34.622,89.878L34.643,89.923L34.651,89.938L34.659,89.952L34.677,89.982L34.707,90.024L34.729,90.052L34.741,90.066L34.765,90.092L34.791,90.118L34.804,90.13L34.832,90.154L34.847,90.166L34.861,90.177L34.876,90.188L34.891,90.198L34.907,90.208L34.922,90.218L34.954,90.236L34.97,90.244L34.987,90.252L35.003,90.26L35.037,90.274L35.088,90.292L35.124,90.302L35.142,90.306L35.161,90.31L35.179,90.314L35.199,90.317L35.229,90.321L35.248,90.323L35.269,90.325L35.28,90.325L35.29,90.326L35.312,90.326L35.336,90.327L38.142,90.327L38.166,90.326L38.188,90.326L38.199,90.325L38.209,90.325L38.22,90.324L38.23,90.323L38.24,90.322L38.249,90.321L38.28,90.317L38.299,90.314L38.317,90.31L38.336,90.306L38.354,90.302L38.372,90.297L38.39,90.292L38.407,90.286L38.424,90.28L38.442,90.274L38.458,90.267L38.475,90.26L38.491,90.252L38.508,90.244L38.524,90.236L38.54,90.227L38.555,90.218L38.571,90.208L38.586,90.198L38.602,90.188L38.616,90.177L38.631,90.166L38.645,90.155L38.659,90.143L38.673,90.131L38.686,90.118L38.699,90.106L38.712,90.093L38.724,90.08L38.736,90.066L38.748,90.053L38.759,90.039L38.77,90.025L38.78,90.011L38.79,89.997L38.8,89.982L38.809,89.968L38.818,89.953L38.826,89.939L38.834,89.924L38.841,89.909L38.848,89.894L38.855,89.879L38.861,89.864L38.867,89.849L38.872,89.834L38.877,89.819L38.882,89.803L38.886,89.788L38.89,89.772L38.893,89.756L38.899,89.729L38.9,89.723L38.901,89.715L38.902,89.706L38.903,89.698L38.904,89.689L38.905,89.68L38.906,89.671L38.906,89.662L38.907,89.653L38.907,89.644L38.907,89.634L38.908,89.624L38.908,89.602L38.908,63.27L38.908,63.247L38.907,63.237L38.907,63.228L38.907,63.219L38.906,63.21L38.906,63.201L38.905,63.192L38.904,63.183L38.903,63.174L38.902,63.166L38.901,63.157L38.9,63.149L38.899,63.143L38.893,63.116L38.89,63.1L38.886,63.084L38.882,63.069L38.877,63.053L38.872,63.038L38.867,63.023L38.861,63.008L38.855,62.993L38.848,62.978L38.841,62.963L38.834,62.948L38.826,62.933L38.818,62.919L38.809,62.904L38.8,62.89L38.79,62.875L38.78,62.861L38.77,62.847L38.759,62.833L38.748,62.819L38.736,62.805L38.724,62.792L38.712,62.779L38.699,62.766L38.686,62.753L38.673,62.741L38.659,62.729L38.645,62.717L38.631,62.706L38.616,62.694L38.601,62.684L38.586,62.673L38.571,62.663L38.555,62.654L38.54,62.645L38.523,62.636L38.507,62.627L38.491,62.619L38.475,62.612L38.458,62.604L38.441,62.598L38.424,62.591L38.407,62.585L38.389,62.579L38.372,62.574L38.354,62.569L38.336,62.565L38.317,62.561L38.299,62.558L38.279,62.554L38.249,62.55L38.24,62.549L38.23,62.548L38.219,62.547L38.209,62.547L38.199,62.546L38.188,62.546L38.177,62.545L38.166,62.545L38.142,62.545L35.336,62.545Z" style="fill:white;"/>
        </g>
        <path id="Fill-14" d="M40.464,54.366L40.464,54.122C40.464,52.494 39.133,51.175 37.49,51.175L35.722,51.175C34.08,51.175 32.748,52.494 32.748,54.122L32.748,54.366L40.464,54.366Z" style="fill:rgb(61,156,243);stroke-width:0.73px;stroke:white;"/>
        <path id="Fill-16" d="M41.018,49.26C41.018,48.346 41.767,47.604 42.689,47.604L43.682,47.604C44.602,47.604 45.351,48.345 45.351,49.26L45.351,76.614C45.351,77.526 44.603,78.269 43.682,78.269L42.689,78.269C41.767,78.269 41.018,77.529 41.018,76.614L41.018,49.26Z" style="fill:rgb(61,156,243);stroke-width:0.73px;stroke:white;"/>
        <path id="Fill-18" d="M46.371,66.12L46.764,66.12C49.394,66.12 51.525,64.009 51.525,61.403L51.525,51.669C51.525,49.064 49.395,46.949 46.764,46.949L46.371,46.949L46.371,66.12Z" style="fill:rgb(61,156,243);stroke-width:2.19px;stroke:white;"/>
        <path id="Fill-20" d="M28.127,49.26C28.127,48.346 28.873,47.604 29.796,47.604L30.79,47.604C31.711,47.604 32.459,48.345 32.459,49.26L32.459,76.614C32.459,77.526 31.712,78.269 30.79,78.269L29.796,78.269C28.873,78.269 28.127,77.529 28.127,76.614L28.127,49.26Z" style="fill:rgb(61,156,243);stroke-width:0.73px;stroke:white;"/>
        <path id="Fill-22" d="M27.107,46.949L26.714,46.949C24.084,46.949 21.952,49.06 21.952,51.668L21.952,61.401C21.952,64.007 24.083,66.12 26.714,66.12L27.107,66.12L27.107,46.949Z" style="fill:rgb(61,156,243);stroke-width:2.19px;stroke:white;"/>
    </g>
</svg>
