<?xml version="1.0" encoding="UTF-8" standalone="no"?>
<svg width="130px" height="113px" viewBox="0 0 130 113" version="1.1" xmlns="http://www.w3.org/2000/svg" xmlns:xlink="http://www.w3.org/1999/xlink">
    <!-- Generator: Sketch 3.7.1 (28215) - http://www.bohemiancoding.com/sketch -->
    <title>Group</title>
    <desc>Created with Sketch.</desc>
    <defs>
        <polygon id="path-1" points="0 0.141811885 0 16.9161005 16.9241145 16.9161005 16.9241145 0.141811885 2.50721752e-21 0.141811885"></polygon>
    </defs>
    <g id="Page-1" stroke="none" stroke-width="1" fill="none" fill-rule="evenodd">
        <g id="Motorrad-2" transform="translate(-108.000000, -148.000000)">
            <g id="Group" transform="translate(108.000000, 151.000000)">
                <path d="M66.8333333,52.3333333 C66.3504444,52.3333333 65.9382222,52.5041111 65.5907778,52.8515556 C65.2433333,53.1931111 65.0725556,53.6112222 65.0725556,54.0941111 C65.0725556,54.577 65.2433333,54.9892222 65.5907778,55.3366667 C65.9382222,55.6782222 66.3504444,55.8548889 66.8333333,55.8548889 L72.1451111,55.8548889 L72.1451111,61.1666667 C72.1451111,61.6495556 72.3217778,62.0617778 72.6633333,62.4092222 C73.0107778,62.7566667 73.423,62.9274444 73.9058889,62.9274444 C74.3887778,62.9274444 74.8068889,62.7566667 75.1484444,62.4092222 C75.4958889,62.0617778 75.6666667,61.6495556 75.6666667,61.1666667 L75.6666667,55.8548889 L80.9784444,55.8548889 C81.4613333,55.8548889 81.8794444,55.6782222 82.221,55.3366667 C82.5684444,54.9892222 82.7392222,54.577 82.7392222,54.0941111 C82.7392222,53.6112222 82.5684444,53.1931111 82.221,52.8515556 C81.8794444,52.5041111 81.4613333,52.3333333 80.9784444,52.3333333 L75.6666667,52.3333333 L75.6666667,47.0215556 C75.6666667,46.5386667 75.4958889,46.1205556 75.1484444,45.779 C74.8068889,45.4315556 74.3887778,45.2607778 73.9058889,45.2607778 C73.423,45.2607778 73.0107778,45.4315556 72.6633333,45.779 C72.3217778,46.1205556 72.1451111,46.5386667 72.1451111,47.0215556 L72.1451111,52.3333333 L66.8333333,52.3333333 Z M73.9058889,41.7038889 C72.204,41.7038889 70.6022222,42.0336667 69.0946667,42.6873333 C67.5871111,43.3468889 66.2738889,44.2302222 65.1608889,45.3432222 C64.042,46.4621111 63.1586667,47.7753333 62.505,49.277 C61.8454444,50.7845556 61.5215556,52.3922222 61.5215556,54.0941111 C61.5215556,55.796 61.8454444,57.3918889 62.505,58.8876667 C63.1586667,60.3834444 64.042,61.6966667 65.1608889,62.8214444 C66.2738889,63.9521111 67.5871111,64.8354444 69.0946667,65.4773333 C70.6022222,66.1251111 72.204,66.4431111 73.9058889,66.4431111 C75.6077778,66.4431111 77.2095556,66.1251111 78.7053333,65.4773333 C80.2011111,64.8354444 81.5084444,63.9521111 82.6391111,62.8214444 C83.7638889,61.6966667 84.6472222,60.3834444 85.295,58.8876667 C85.9368889,57.3918889 86.2607778,55.796 86.2607778,54.0941111 C86.2607778,52.3922222 85.9368889,50.7845556 85.295,49.277 C84.6472222,47.7753333 83.7638889,46.4621111 82.6391111,45.3432222 C81.5084444,44.2302222 80.2011111,43.3468889 78.7053333,42.6873333 C77.2095556,42.0336667 75.6077778,41.7038889 73.9058889,41.7038889 L73.9058889,41.7038889 Z M73.9058889,70 C71.7211111,70 69.66,69.5818889 67.7284444,68.7397778 C65.7968889,67.9035556 64.1126667,66.7611111 62.6757778,65.3242222 C61.2388889,63.8873333 60.0964444,62.2031111 59.2602222,60.2715556 C58.4181111,58.34 58,56.2788889 58,54.0941111 C58,51.9093333 58.4181111,49.8482222 59.2602222,47.9166667 C60.0964444,45.9851111 61.2388889,44.3008889 62.6757778,42.864 C64.1126667,41.4212222 65.7968889,40.2846667 67.7284444,39.4484444 C69.66,38.6063333 71.7211111,38.1882222 73.9058889,38.1882222 C76.0906667,38.1882222 78.1517778,38.6063333 80.0833333,39.4484444 C82.0148889,40.2846667 83.6991111,41.4212222 85.136,42.864 C86.5787778,44.3008889 87.7153333,45.9851111 88.5515556,47.9166667 C89.3936667,49.8482222 89.8117778,51.9093333 89.8117778,54.0941111 C89.8117778,56.2788889 89.3936667,58.34 88.5515556,60.2715556 C87.7153333,62.2031111 86.5787778,63.8873333 85.136,65.3242222 C83.6991111,66.7611111 82.0148889,67.9035556 80.0833333,68.7397778 C78.1517778,69.5818889 76.0906667,70 73.9058889,70 L73.9058889,70 Z M91.4724444,41.6391111 C91.2427778,41.6391111 91.019,41.592 90.8128889,41.4977778 C90.6067778,41.4094444 90.4124444,41.2798889 90.2298889,41.1208889 C89.8824444,40.7734444 89.7116667,40.3553333 89.7116667,39.8606667 C89.7116667,39.366 89.8824444,38.9478889 90.2298889,38.6004444 C91.2427778,37.6111111 92.0083333,36.4745556 92.5383333,35.1848889 C93.0683333,33.8952222 93.3333333,32.5407778 93.3333333,31.1097778 C93.3333333,29.6611111 93.0565556,28.2948889 92.503,27.0052222 C91.9553333,25.7155556 91.1956667,24.5907778 90.2298889,23.625 C89.2641111,22.6592222 88.1334444,21.8995556 86.8437778,21.346 C85.56,20.7983333 84.1878889,20.5215556 82.7392222,20.5215556 C81.267,20.5215556 79.889,20.7983333 78.5993333,21.346 C77.3096667,21.8995556 76.1907778,22.6592222 75.2367778,23.625 C74.2827778,24.5907778 73.529,25.7155556 72.9754444,27.0052222 C72.4218889,28.2948889 72.1451111,29.6611111 72.1451111,31.1097778 C72.1451111,31.363 72.151,31.6162222 72.1627778,31.8694444 C72.1745556,32.1226667 72.204,32.3758889 72.2511111,32.6291111 C72.3217778,33.112 72.204,33.5536667 71.9036667,33.9423333 C71.6092222,34.331 71.2146667,34.5606667 70.7317778,34.6313333 C70.2488889,34.702 69.8131111,34.5901111 69.4185556,34.3015556 C69.0298889,34.0188889 68.8002222,33.6302222 68.7295556,33.1473333 C68.6824444,32.8057778 68.653,32.4642222 68.6294444,32.1285556 C68.6058889,31.7987778 68.5941111,31.4572222 68.5941111,31.1097778 C68.5941111,29.1782222 68.9651111,27.3526667 69.713,25.6272222 C70.4608889,23.9017778 71.4737778,22.4001111 72.7516667,21.1222222 C74.0295556,19.8443333 75.5253333,18.8432222 77.239,18.1071111 C78.9526667,17.371 80.7841111,17 82.7392222,17 C84.6707778,17 86.5022222,17.371 88.2276667,18.1071111 C89.9531111,18.8432222 91.4547778,19.8443333 92.7267778,21.1222222 C94.0046667,22.4001111 95.0116667,23.9017778 95.7477778,25.6272222 C96.4838889,27.3526667 96.8548889,29.1782222 96.8548889,31.1097778 C96.8548889,32.0578889 96.7665556,32.9824444 96.5957778,33.8893333 C96.4191111,34.7962222 96.1541111,35.6795556 95.8007778,36.5275556 C95.4415556,37.3814444 95.0057778,38.1941111 94.4875556,38.9596667 C93.9693333,39.7311111 93.3804444,40.4495556 92.715,41.1208889 C92.5501111,41.2798889 92.3616667,41.4094444 92.1437778,41.4977778 C91.9258889,41.592 91.7021111,41.6391111 91.4724444,41.6391111 L91.4724444,41.6391111 Z M88.0215556,70 C87.5386667,70 87.1205556,69.8292222 86.779,69.4817778 C86.4315556,69.1402222 86.2607778,68.7103333 86.2607778,68.2038889 C86.2607778,67.721 86.4315556,67.3087778 86.779,66.9613333 C87.1205556,66.6197778 87.5386667,66.4431111 88.0215556,66.4431111 L102.166667,66.4431111 C102.649556,66.4431111 103.061778,66.2723333 103.409222,65.9307778 C103.756667,65.5833333 103.927444,65.1711111 103.927444,64.6882222 C103.927444,64.594 103.862667,64.1464444 103.739,63.3396667 C103.609444,62.5328889 103.250222,61.5847778 102.649556,60.4953333 C102.048889,59.4 101.112556,58.2634444 99.8346667,57.0797778 C98.5626667,55.8902222 96.7842222,54.8891111 94.5052222,54.0587778 C94.0458889,53.8997778 93.7102222,53.5994444 93.5041111,53.1636667 C93.298,52.722 93.2744444,52.2744444 93.4393333,51.8151111 C93.5983333,51.3557778 93.9045556,51.0201111 94.3521111,50.814 C94.7996667,50.6078889 95.2531111,50.5843333 95.7124444,50.7433333 C97.2082222,51.2968889 98.5214444,51.9211111 99.6462222,52.6101111 C100.776889,53.2991111 101.748556,54.0234444 102.561222,54.7831111 C103.379778,55.5427778 104.062889,56.3024444 104.616444,57.0621111 C105.17,57.8217778 105.617556,58.5225556 105.965,59.1644444 C106.701111,60.6131111 107.136889,61.8615556 107.272333,62.9097778 C107.413667,63.958 107.478444,64.5468889 107.478444,64.6882222 C107.478444,66.1604444 106.960222,67.4147778 105.929667,68.4453333 C104.893222,69.4817778 103.638889,70 102.166667,70 L88.0215556,70 Z M111,31.1097778 C110.034222,31.1097778 109.121444,31.2982222 108.255778,31.6633333 C107.396,32.0343333 106.642222,32.5407778 105.994444,33.1826667 C105.352556,33.8245556 104.846111,34.5783333 104.481,35.444 C104.11,36.3037778 103.927444,37.2224444 103.927444,38.1882222 C103.927444,39.154 104.11,40.0667778 104.481,40.9265556 C104.846111,41.7922222 105.352556,42.546 105.994444,43.1878889 C106.642222,43.8356667 107.396,44.3421111 108.255778,44.7072222 C109.121444,45.0782222 110.034222,45.2607778 111,45.2607778 C111.965778,45.2607778 112.878556,45.0782222 113.744222,44.7072222 C114.604,44.3421111 115.357778,43.8356667 116.005556,43.1878889 C116.647444,42.546 117.153889,41.7922222 117.519,40.9265556 C117.89,40.0667778 118.072556,39.154 118.072556,38.1882222 C118.072556,37.2224444 117.89,36.3037778 117.519,35.444 C117.153889,34.5783333 116.647444,33.8245556 116.005556,33.1826667 C115.357778,32.5407778 114.604,32.0343333 113.744222,31.6633333 C112.878556,31.2982222 111.965778,31.1097778 111,31.1097778 L111,31.1097778 Z M111,48.7764444 C109.527778,48.7764444 108.155667,48.5055556 106.877778,47.952 C105.599889,47.3984444 104.481,46.6387778 103.515222,45.673 C102.543556,44.7072222 101.789778,43.5883333 101.236222,42.3104444 C100.682667,41.0325556 100.405889,39.6604444 100.405889,38.1882222 C100.405889,36.716 100.682667,35.338 101.236222,34.0601111 C101.789778,32.7881111 102.543556,31.6633333 103.515222,30.6975556 C104.481,29.7317778 105.599889,28.9721111 106.877778,28.4185556 C108.155667,27.8708889 109.527778,27.5941111 111,27.5941111 C112.472222,27.5941111 113.844333,27.8708889 115.122222,28.4185556 C116.400111,28.9721111 117.519,29.7317778 118.484778,30.6975556 C119.456444,31.6633333 120.210222,32.7881111 120.763778,34.0601111 C121.317333,35.338 121.594111,36.716 121.594111,38.1882222 C121.594111,39.6604444 121.317333,41.0325556 120.763778,42.3104444 C120.210222,43.5883333 119.456444,44.7072222 118.484778,45.673 C117.519,46.6387778 116.400111,47.3984444 115.122222,47.952 C113.844333,48.5055556 112.472222,48.7764444 111,48.7764444 L111,48.7764444 Z M112.760778,70 C112.277889,70 111.859778,69.8292222 111.518222,69.4817778 C111.170778,69.1402222 111,68.7103333 111,68.2038889 C111,67.721 111.170778,67.3087778 111.518222,66.9613333 C111.859778,66.6197778 112.277889,66.4431111 112.760778,66.4431111 L123.354889,66.4431111 C123.861333,66.4431111 124.279444,66.2723333 124.615111,65.9307778 C124.944889,65.5833333 125.121556,65.1711111 125.145111,64.6882222 C125.145111,64.594 125.056778,64.0757778 124.868333,63.1335556 C124.685778,62.1913333 124.138111,61.1843333 123.231222,60.1125556 C122.324333,59.0466667 120.922778,58.0691111 119.020667,57.1798889 C117.124444,56.2965556 114.450889,55.8548889 111,55.8548889 C110.723222,55.8548889 110.440556,55.8607778 110.152,55.8725556 C109.869333,55.8843333 109.598444,55.8902222 109.345222,55.8902222 C108.838778,55.9078889 108.408889,55.7606667 108.049667,55.4367778 C107.690444,55.1187778 107.502,54.7124444 107.478444,54.2295556 C107.454889,53.7466667 107.608,53.3226667 107.931889,52.9516667 C108.249889,52.5865556 108.656222,52.3922222 109.139111,52.3686667 C109.433556,52.3451111 109.739778,52.3333333 110.051889,52.3333333 L111,52.3333333 C112.931556,52.3333333 114.733556,52.4805556 116.400111,52.7808889 C118.066667,53.0812222 119.568333,53.5287778 120.905111,54.1294444 C122.029889,54.6358889 123.048667,55.2365556 123.955556,55.9373333 C124.862444,56.6381111 125.651556,57.439 126.322889,58.34 C127.471222,59.877 128.148444,61.3021111 128.354556,62.6153333 C128.560667,63.9285556 128.666667,64.6175556 128.666667,64.6882222 C128.666667,66.1604444 128.148444,67.4147778 127.112,68.4453333 C126.081444,69.4817778 124.827111,70 123.354889,70 L112.760778,70 Z" id="Page-1" stroke="#FFFFFF" fill="#3D9CF3"></path>
                <g id="Page-1">
                    <path d="M22.7484335,20.1497351 C11.8746885,19.72782 7.0424885,18.9311138 7.0424885,18.9311138 C5.7143735,18.9344143 4.6376735,20.0048795 4.6411885,21.3225161 L4.6445185,22.7408183 C4.6467385,24.0593718 5.7269535,25.123236 7.0561785,25.1208523 C7.0561785,25.1208523 10.0235785,25.9019728 20.8553285,26.328472 C21.0863935,24.1143803 21.7453635,22.0293752 22.7484335,20.1497351" id="Fill-1" stroke="#FFFFFF" stroke-width="2" fill="#3D9CF3"></path>
                    <path d="M65.2858105,21.1709494 C65.2813705,19.8534961 64.2033755,18.7885317 62.8719305,18.7909154 C62.8719305,18.7909154 58.0136455,19.6087083 47.1436005,20.0801311 C48.1555505,21.9540869 48.8237705,24.0368917 49.0659355,26.2476829 C59.8875105,25.7729596 62.8865455,24.980654 62.8865455,24.980654 C64.2159555,24.9773535 65.2913605,23.9078051 65.2893255,22.5892516 L65.2858105,21.1709494 Z" id="Fill-3" stroke="#FFFFFF" stroke-width="2" fill="#3D9CF3"></path>
                    <path d="M34.985644,36.4964061 C30.311804,36.5075912 26.513384,32.7596795 26.500804,28.1272312 C26.490629,23.4949664 30.272214,19.7311022 34.944759,19.7199171 C39.617304,19.7087321 43.414799,23.4555436 43.426084,28.089092 C43.437554,32.7215402 39.658189,36.4863212 34.985644,36.4964061 M34.933474,14.3367864 C27.258194,14.3549392 21.051629,20.5345929 21.069759,28.1408 C21.087704,35.7468238 27.322944,41.8997066 34.996929,41.8817372 C42.670914,41.8637677 48.878774,35.6839307 48.863049,28.077907 C48.842514,20.4705997 42.607459,14.3201005 34.933474,14.3367864" id="Fill-5" stroke="#FFFFFF" stroke-width="2" fill="#3D9CF3"></path>
                    <path d="M70.646906,8.38714431 C70.646906,13.0192258 66.858291,16.7742886 62.184821,16.7742886 C57.511351,16.7742886 53.722921,13.0192258 53.722921,8.38714431 C53.722921,3.75506282 57.511351,0 62.184821,0 C66.858291,0 70.646906,3.75506282 70.646906,8.38714431 Z" id="Fill-7" stroke="#FFFFFF" stroke-width="5" fill="#3D9CF3"></path>
                    <g id="Group-11" transform="translate(0.000000, 1.000000)">
                        <mask id="mask-2" fill="white">
                            <use xlink:href="#path-1"></use>
                        </mask>
                        <g id="Clip-10"></g>
                        <path d="M8.4620295,0.141811885 C13.1354995,0.141811885 16.9241145,3.8968747 16.9241145,8.5289562 C16.9241145,13.1610377 13.1354995,16.9161005 8.4620295,16.9161005 C3.7885595,16.9161005 -5.55000001e-05,13.1610377 -5.55000001e-05,8.5289562 C-5.55000001e-05,3.8968747 3.7885595,0.141811885 8.4620295,0.141811885" id="Fill-9" stroke="#FFFFFF" stroke-width="5" fill="#3D9CF3" mask="url(#mask-2)"></path>
                    </g>
                    <path d="M43.4419755,97.3809752 C43.4419755,100.958544 40.5173105,103.858225 36.9081455,103.858225 L33.0224055,103.858225 C29.4128705,103.858225 26.4872805,100.957444 26.4872805,97.3809752 L26.4872805,61.2033589 C26.4872805,57.6257902 29.4150905,54.7261093 33.0224055,54.7261093 L36.9081455,54.7261093 C40.5173105,54.7261093 43.4419755,57.6268903 43.4419755,61.2033589 L43.4419755,97.3809752 Z" id="Fill-12" stroke="#FFFFFF" stroke-width="11" fill="#3D9CF3"></path>
                    <path d="M40.0777566,49 L40.0777566,48.6649884 C40.0777566,46.4303179 38.2509119,44.6197664 35.9965053,44.6197664 L33.5693407,44.6197664 C31.3160897,44.6197664 29.4872805,46.4303179 29.4872805,48.6649884 L29.4872805,49 L40.0777566,49 Z" id="Fill-14" stroke="#FFFFFF" fill="#3D9CF3"></path>
                    <path d="M40.838854,41.9918098 C40.838854,40.7372496 41.865789,39.7194092 43.131559,39.7194092 L44.494824,39.7194092 C45.757079,39.7194092 46.785309,40.7361494 46.785309,41.9918098 L46.785309,79.5374873 C46.785309,80.788747 45.759484,81.8087878 44.494824,81.8087878 L43.131559,81.8087878 C41.865789,81.8087878 40.838854,80.7920475 40.838854,79.5374873 L40.838854,41.9918098 Z" id="Fill-16" stroke="#FFFFFF" fill="#3D9CF3"></path>
                    <path d="M48.185351,65.133147 L48.725551,65.133147 C52.334901,65.133147 55.260491,62.2356666 55.260491,58.6580978 L55.260491,45.2987362 C55.260491,41.7224509 52.336196,38.8203864 48.725551,38.8203864 L48.185351,38.8203864 L48.185351,65.133147 Z" id="Fill-18" stroke="#FFFFFF" stroke-width="3" fill="#3D9CF3"></path>
                    <path d="M23.1452235,41.9918098 C23.1452235,40.7372496 24.1686435,39.7194092 25.4357085,39.7194092 L26.7998985,39.7194092 C28.0645585,39.7194092 29.0903835,40.7361494 29.0903835,41.9918098 L29.0903835,79.5374873 C29.0903835,80.788747 28.0658535,81.8087878 26.7998985,81.8087878 L25.4357085,81.8087878 C24.1686435,81.8087878 23.1452235,80.7920475 23.1452235,79.5374873 L23.1452235,41.9918098 Z" id="Fill-20" stroke="#FFFFFF" fill="#3D9CF3"></path>
                    <path d="M21.7449225,38.8203864 L21.2049075,38.8203864 C17.5953725,38.8203864 14.6697825,41.7178669 14.6697825,45.2965358 L14.6697825,58.6558975 C14.6697825,62.2334662 17.5942625,65.133147 21.2049075,65.133147 L21.7449225,65.133147 L21.7449225,38.8203864 Z" id="Fill-22" stroke="#FFFFFF" stroke-width="3" fill="#3D9CF3"></path>
                </g>
            </g>
        </g>
    </g>
</svg>