<?xml version="1.0" standalone="no"?><!DOCTYPE svg PUBLIC "-//W3C//DTD SVG 1.1//EN" "http://www.w3.org/Graphics/SVG/1.1/DTD/svg11.dtd"><svg width="100%" height="100%" viewBox="0 0 47 49" version="1.1" xmlns="http://www.w3.org/2000/svg" xmlns:xlink="http://www.w3.org/1999/xlink" xml:space="preserve" style="fill-rule:evenodd;clip-rule:evenodd;stroke-linejoin:round;stroke-miterlimit:1.41421;"><path id="Fill-1" d="M20.256,8.552c-1.015,0.432 -1.899,1.024 -2.654,1.775c-0.756,0.751 -1.354,1.631 -1.794,2.64c-0.442,1.009 -0.662,2.091 -0.662,3.244c0,1.141 0.22,2.216 0.662,3.225c0.44,1.009 1.038,1.89 1.794,2.641c0.755,0.75 1.639,1.342 2.654,1.775c1.015,0.432 2.097,0.648 3.244,0.648c1.147,0 2.229,-0.216 3.244,-0.648c1.015,-0.433 1.899,-1.025 2.654,-1.775c0.755,-0.751 1.354,-1.632 1.794,-2.641c0.441,-1.009 0.662,-2.084 0.662,-3.225c0,-1.153 -0.221,-2.235 -0.662,-3.244c-0.44,-1.009 -1.039,-1.889 -1.794,-2.64c-0.755,-0.751 -1.639,-1.343 -2.654,-1.775c-1.015,-0.433 -2.097,-0.649 -3.244,-0.649c-1.147,0 -2.229,0.216 -3.244,0.649ZM19.522,25.554c-1.238,-0.534 -2.32,-1.261 -3.244,-2.18c-0.923,-0.919 -1.651,-1.994 -2.183,-3.226c-0.532,-1.231 -0.797,-2.544 -0.797,-3.937c0,-1.406 0.265,-2.725 0.797,-3.956c0.532,-1.231 1.26,-2.307 2.183,-3.226c0.924,-0.919 2.006,-1.646 3.244,-2.181c1.238,-0.533 2.565,-0.801 3.978,-0.801c1.402,0 2.721,0.268 3.96,0.801c1.238,0.535 2.32,1.262 3.243,2.181c0.925,0.919 1.655,1.995 2.194,3.226c0.537,1.231 0.806,2.55 0.806,3.956c0,1.393 -0.269,2.706 -0.806,3.937c-0.539,1.232 -1.269,2.307 -2.194,3.226c-0.923,0.919 -2.005,1.646 -3.243,2.18c-1.239,0.535 -2.558,0.802 -3.96,0.802c-1.413,0 -2.74,-0.267 -3.978,-0.802ZM18.97,30.375c-1.402,0.216 -2.682,0.538 -3.841,0.964c-1.161,0.427 -2.197,0.959 -3.109,1.595c-0.912,0.637 -1.689,1.37 -2.329,2.199c-0.483,0.625 -0.857,1.237 -1.123,1.838c-0.266,0.6 -0.462,1.138 -0.589,1.613c-0.127,0.474 -0.203,0.859 -0.227,1.153c-0.024,0.295 -0.036,0.447 -0.036,0.459c0,0.253 0.09,0.469 0.272,0.649c0.181,0.18 0.404,0.27 0.67,0.27l29.684,0c0.253,0 0.471,-0.09 0.652,-0.27c0.181,-0.18 0.273,-0.396 0.273,-0.649c0,-0.012 -0.013,-0.164 -0.037,-0.459c-0.024,-0.294 -0.099,-0.679 -0.227,-1.153c-0.127,-0.475 -0.32,-1.013 -0.58,-1.613c-0.26,-0.601 -0.631,-1.213 -1.114,-1.838c-0.641,-0.829 -1.417,-1.562 -2.329,-2.199c-0.913,-0.636 -1.951,-1.168 -3.117,-1.595c-1.166,-0.426 -2.446,-0.748 -3.842,-0.964c-1.395,-0.216 -2.901,-0.324 -4.521,-0.324c-1.619,0 -3.129,0.108 -4.53,0.324ZM8.658,42.953c-0.773,0 -1.431,-0.27 -1.975,-0.81c-0.544,-0.541 -0.816,-1.19 -0.816,-1.947c0,-0.036 0.012,-0.234 0.037,-0.594c0.024,-0.361 0.108,-0.823 0.253,-1.388c0.146,-0.564 0.372,-1.204 0.681,-1.919c0.307,-0.714 0.739,-1.445 1.295,-2.19c0.338,-0.432 0.701,-0.843 1.087,-1.234c0.387,-0.39 0.8,-0.757 1.242,-1.099c0.44,-0.343 0.911,-0.661 1.413,-0.956c0.501,-0.294 1.03,-0.561 1.586,-0.802c0.676,-0.3 1.395,-0.564 2.156,-0.792c0.762,-0.228 1.561,-0.418 2.401,-0.568c0.84,-0.15 1.716,-0.264 2.629,-0.342c0.91,-0.078 1.863,-0.117 2.853,-0.117c0.979,0 1.927,0.039 2.845,0.117c0.917,0.078 1.794,0.192 2.629,0.342c0.833,0.15 1.63,0.34 2.391,0.568c0.761,0.228 1.479,0.492 2.156,0.792c0.555,0.241 1.084,0.508 1.586,0.802c0.502,0.295 0.976,0.613 1.423,0.956c0.446,0.342 0.863,0.709 1.25,1.099c0.387,0.391 0.743,0.802 1.069,1.234c0.568,0.745 1.003,1.476 1.305,2.19c0.301,0.715 0.526,1.355 0.67,1.919c0.145,0.565 0.233,1.027 0.263,1.388c0.031,0.36 0.046,0.558 0.046,0.594c0,0.757 -0.272,1.406 -0.816,1.947c-0.543,0.54 -1.202,0.81 -1.975,0.81l-29.684,0Z" style="fill:#3d9cf3;"/></svg>