<?xml version="1.0" standalone="no"?><!DOCTYPE svg PUBLIC "-//W3C//DTD SVG 1.1//EN" "http://www.w3.org/Graphics/SVG/1.1/DTD/svg11.dtd"><svg width="100%" height="100%" viewBox="0 0 52 46" version="1.1" xmlns="http://www.w3.org/2000/svg" xmlns:xlink="http://www.w3.org/1999/xlink" xml:space="preserve" style="fill-rule:evenodd;clip-rule:evenodd;stroke-linejoin:round;stroke-miterlimit:1.41421;"><path id="Page-1" d="M39.553,39.892l2.7,0l0,-2.699l-2.7,0l0,2.699ZM38.203,26.339c0.371,0 0.689,0.132 0.953,0.397c0.266,0.264 0.397,0.582 0.397,0.952c0,0.372 -0.131,0.689 -0.397,0.954c-0.264,0.264 -0.582,0.397 -0.953,0.397c-0.369,0 -0.687,-0.133 -0.953,-0.397c-0.264,-0.265 -0.396,-0.582 -0.396,-0.954c0,-0.37 0.132,-0.688 0.396,-0.952c0.266,-0.265 0.584,-0.397 0.953,-0.397ZM38.203,31.765c1.113,0 2.066,-0.397 2.859,-1.191c0.795,-0.794 1.191,-1.755 1.191,-2.886c0,-1.111 -0.396,-2.064 -1.191,-2.858c-0.793,-0.795 -1.746,-1.192 -2.859,-1.192c-1.129,0 -2.091,0.397 -2.885,1.192c-0.794,0.794 -1.191,1.747 -1.191,2.858c0,1.131 0.397,2.092 1.191,2.886c0.794,0.794 1.756,1.191 2.885,1.191ZM13.797,26.339c0.37,0 0.688,0.132 0.953,0.397c0.264,0.264 0.396,0.582 0.396,0.952c0,0.372 -0.132,0.689 -0.396,0.954c-0.265,0.264 -0.583,0.397 -0.953,0.397c-0.371,0 -0.689,-0.133 -0.953,-0.397c-0.266,-0.265 -0.397,-0.582 -0.397,-0.954c0,-0.37 0.131,-0.688 0.397,-0.952c0.264,-0.265 0.582,-0.397 0.953,-0.397ZM12.315,10.668c-0.194,0.405 -0.394,0.944 -0.596,1.615c-0.203,0.67 -0.402,1.403 -0.596,2.197c-0.194,0.794 -0.375,1.614 -0.542,2.462c-0.168,0.846 -0.323,1.632 -0.464,2.355c0.141,-0.035 0.278,-0.07 0.41,-0.106c0.133,-0.035 0.27,-0.07 0.412,-0.106c0.617,-0.141 1.278,-0.264 1.984,-0.37c0.705,-0.106 1.447,-0.189 2.223,-0.252c0.777,-0.061 1.589,-0.11 2.436,-0.145c0.847,-0.035 1.73,-0.062 2.647,-0.079l-4.474,-2.965c-0.299,-0.212 -0.489,-0.503 -0.568,-0.874c-0.08,-0.371 -0.013,-0.705 0.199,-1.006c0.211,-0.317 0.497,-0.512 0.86,-0.583c0.361,-0.07 0.701,0 1.019,0.212l7.783,5.189l0.952,0c1.341,0 2.642,0.004 3.905,0.013c1.261,0.009 2.465,0.031 3.613,0.066l-4.235,-3.044c-0.301,-0.229 -0.481,-0.525 -0.543,-0.887c-0.062,-0.361 0.013,-0.701 0.225,-1.019c0.212,-0.299 0.503,-0.48 0.873,-0.543c0.371,-0.061 0.706,0.023 1.007,0.252l7.862,5.612c0.423,0.053 0.829,0.115 1.217,0.186c0.388,0.07 0.768,0.15 1.138,0.237c0.142,0.036 0.279,0.071 0.411,0.106c0.132,0.036 0.268,0.071 0.41,0.106c-0.142,-0.723 -0.295,-1.509 -0.464,-2.355c-0.168,-0.848 -0.349,-1.668 -0.542,-2.462c-0.194,-0.794 -0.393,-1.527 -0.596,-2.197c-0.203,-0.671 -0.401,-1.21 -0.596,-1.615c-0.193,-0.389 -0.648,-0.782 -1.362,-1.178c-0.715,-0.398 -1.66,-0.755 -2.833,-1.072c-1.174,-0.318 -2.559,-0.574 -4.155,-0.768c-1.598,-0.194 -3.376,-0.292 -5.335,-0.292c-1.958,0 -3.737,0.098 -5.334,0.292c-1.597,0.194 -2.983,0.45 -4.156,0.768c-1.173,0.317 -2.118,0.674 -2.832,1.072c-0.715,0.396 -1.17,0.789 -1.363,1.178ZM9.747,39.892l2.7,0l0,-2.7l-2.7,0l0,2.7ZM13.797,31.765c1.129,0 2.091,-0.397 2.885,-1.191c0.794,-0.794 1.191,-1.755 1.191,-2.886c0,-1.111 -0.397,-2.064 -1.191,-2.858c-0.794,-0.795 -1.756,-1.192 -2.885,-1.192c-1.113,0 -2.065,0.397 -2.858,1.192c-0.796,0.794 -1.192,1.747 -1.192,2.858c0,1.131 0.396,2.092 1.192,2.886c0.793,0.794 1.745,1.191 2.858,1.191ZM44.98,33.116l0,-6.777c0,-1.253 -0.357,-2.237 -1.072,-2.952c-0.715,-0.715 -1.875,-1.266 -3.481,-1.654c-0.848,-0.212 -1.8,-0.371 -2.86,-0.477c-1.058,-0.106 -2.196,-0.185 -3.413,-0.238c-1.218,-0.053 -2.511,-0.084 -3.879,-0.093c-1.368,-0.008 -2.793,-0.013 -4.275,-0.013c-1.482,0 -2.908,0.005 -4.275,0.013c-1.367,0.009 -2.66,0.04 -3.878,0.093c-1.218,0.053 -2.355,0.132 -3.414,0.238c-1.06,0.106 -2.012,0.265 -2.86,0.477c-1.606,0.388 -2.766,0.939 -3.481,1.654c-0.715,0.715 -1.072,1.699 -1.072,2.952l0,6.777c0,0.37 0.132,0.688 0.397,0.952c0.265,0.265 0.582,0.397 0.953,0.397l35.26,0c0.371,0 0.688,-0.132 0.953,-0.397c0.265,-0.264 0.397,-0.582 0.397,-0.952ZM44.874,20.674c0.936,0.635 1.637,1.425 2.104,2.37c0.468,0.943 0.702,2.042 0.702,3.295l0,6.777c0,0.882 -0.256,1.672 -0.768,2.369c-0.512,0.697 -1.155,1.186 -1.932,1.469l0,2.938c0,0.741 -0.264,1.377 -0.793,1.906c-0.53,0.53 -1.175,0.794 -1.934,0.794l-2.7,0c-0.741,0 -1.376,-0.264 -1.905,-0.794c-0.53,-0.529 -0.794,-1.165 -0.794,-1.906l0,-2.7l-21.708,0l0,2.7c0,0.741 -0.264,1.377 -0.794,1.906c-0.528,0.53 -1.164,0.794 -1.905,0.794l-2.7,0c-0.759,0 -1.404,-0.264 -1.934,-0.794c-0.528,-0.529 -0.793,-1.165 -0.793,-1.906l0,-2.938c-0.776,-0.283 -1.421,-0.772 -1.932,-1.469c-0.512,-0.697 -0.768,-1.487 -0.768,-2.369l0,-6.777c0,-1.253 0.233,-2.352 0.702,-3.295c0.467,-0.945 1.168,-1.735 2.104,-2.37c0.089,-0.547 0.225,-1.319 0.41,-2.317c0.186,-0.996 0.398,-2.051 0.635,-3.163c0.239,-1.111 0.504,-2.188 0.794,-3.229c0.292,-1.041 0.597,-1.871 0.914,-2.489c0.406,-0.829 1.138,-1.557 2.197,-2.183c1.059,-0.627 2.427,-1.152 4.103,-1.575c0.689,-0.177 1.416,-0.331 2.184,-0.464c0.768,-0.132 1.566,-0.243 2.396,-0.331c0.829,-0.088 1.685,-0.154 2.568,-0.198c0.882,-0.044 1.773,-0.066 2.673,-0.066c0.9,0 1.792,0.022 2.673,0.066c0.883,0.044 1.738,0.11 2.568,0.198c0.829,0.088 1.628,0.199 2.396,0.331c0.768,0.133 1.495,0.287 2.185,0.464c1.675,0.423 3.043,0.948 4.102,1.575c1.059,0.626 1.791,1.354 2.197,2.183c0.317,0.618 0.622,1.448 0.914,2.489c0.291,1.041 0.555,2.118 0.794,3.229c0.237,1.112 0.449,2.167 0.635,3.163c0.185,0.998 0.322,1.77 0.41,2.317Z" style="fill:#3d9cf3;"/></svg>